G04 #@! TF.GenerationSoftware,KiCad,Pcbnew,no-vcs-found-01f5a12~58~ubuntu16.04.1*
G04 #@! TF.CreationDate,2017-04-25T17:44:52-04:00*
G04 #@! TF.ProjectId,RPi_Hat,5250695F4861742E6B696361645F7063,rev?*
G04 #@! TF.FileFunction,Legend,Bot*
G04 #@! TF.FilePolarity,Positive*
%FSLAX46Y46*%
G04 Gerber Fmt 4.6, Leading zero omitted, Abs format (unit mm)*
G04 Created by KiCad (PCBNEW no-vcs-found-01f5a12~58~ubuntu16.04.1) date Tue Apr 25 17:44:52 2017*
%MOMM*%
%LPD*%
G01*
G04 APERTURE LIST*
%ADD10C,0.100000*%
%ADD11C,0.300000*%
%ADD12C,0.150000*%
%ADD13C,0.120000*%
%ADD14C,0.254000*%
G04 APERTURE END LIST*
D10*
D11*
X124066857Y-77061142D02*
X123852571Y-77132571D01*
X123495428Y-77132571D01*
X123352571Y-77061142D01*
X123281142Y-76989714D01*
X123209714Y-76846857D01*
X123209714Y-76704000D01*
X123281142Y-76561142D01*
X123352571Y-76489714D01*
X123495428Y-76418285D01*
X123781142Y-76346857D01*
X123924000Y-76275428D01*
X123995428Y-76204000D01*
X124066857Y-76061142D01*
X124066857Y-75918285D01*
X123995428Y-75775428D01*
X123924000Y-75704000D01*
X123781142Y-75632571D01*
X123424000Y-75632571D01*
X123209714Y-75704000D01*
X121995428Y-77061142D02*
X122138285Y-77132571D01*
X122424000Y-77132571D01*
X122566857Y-77061142D01*
X122638285Y-76918285D01*
X122638285Y-76346857D01*
X122566857Y-76204000D01*
X122424000Y-76132571D01*
X122138285Y-76132571D01*
X121995428Y-76204000D01*
X121924000Y-76346857D01*
X121924000Y-76489714D01*
X122638285Y-76632571D01*
X121281142Y-77132571D02*
X121281142Y-76132571D01*
X121281142Y-76418285D02*
X121209714Y-76275428D01*
X121138285Y-76204000D01*
X120995428Y-76132571D01*
X120852571Y-76132571D01*
X120352571Y-76989714D02*
X120281142Y-77061142D01*
X120352571Y-77132571D01*
X120424000Y-77061142D01*
X120352571Y-76989714D01*
X120352571Y-77132571D01*
X129638142Y-99839714D02*
X129709571Y-99911142D01*
X129923857Y-99982571D01*
X130066714Y-99982571D01*
X130281000Y-99911142D01*
X130423857Y-99768285D01*
X130495285Y-99625428D01*
X130566714Y-99339714D01*
X130566714Y-99125428D01*
X130495285Y-98839714D01*
X130423857Y-98696857D01*
X130281000Y-98554000D01*
X130066714Y-98482571D01*
X129923857Y-98482571D01*
X129709571Y-98554000D01*
X129638142Y-98625428D01*
X128781000Y-99982571D02*
X128923857Y-99911142D01*
X128995285Y-99839714D01*
X129066714Y-99696857D01*
X129066714Y-99268285D01*
X128995285Y-99125428D01*
X128923857Y-99054000D01*
X128781000Y-98982571D01*
X128566714Y-98982571D01*
X128423857Y-99054000D01*
X128352428Y-99125428D01*
X128281000Y-99268285D01*
X128281000Y-99696857D01*
X128352428Y-99839714D01*
X128423857Y-99911142D01*
X128566714Y-99982571D01*
X128781000Y-99982571D01*
X127638142Y-99982571D02*
X127638142Y-98482571D01*
X127638142Y-99054000D02*
X127495285Y-98982571D01*
X127209571Y-98982571D01*
X127066714Y-99054000D01*
X126995285Y-99125428D01*
X126923857Y-99268285D01*
X126923857Y-99696857D01*
X126995285Y-99839714D01*
X127066714Y-99911142D01*
X127209571Y-99982571D01*
X127495285Y-99982571D01*
X127638142Y-99911142D01*
X125209571Y-99911142D02*
X124995285Y-99982571D01*
X124638142Y-99982571D01*
X124495285Y-99911142D01*
X124423857Y-99839714D01*
X124352428Y-99696857D01*
X124352428Y-99554000D01*
X124423857Y-99411142D01*
X124495285Y-99339714D01*
X124638142Y-99268285D01*
X124923857Y-99196857D01*
X125066714Y-99125428D01*
X125138142Y-99054000D01*
X125209571Y-98911142D01*
X125209571Y-98768285D01*
X125138142Y-98625428D01*
X125066714Y-98554000D01*
X124923857Y-98482571D01*
X124566714Y-98482571D01*
X124352428Y-98554000D01*
X123923857Y-98982571D02*
X123352428Y-98982571D01*
X123709571Y-98482571D02*
X123709571Y-99768285D01*
X123638142Y-99911142D01*
X123495285Y-99982571D01*
X123352428Y-99982571D01*
X122852428Y-99411142D02*
X121709571Y-99411142D01*
X121066714Y-99554000D02*
X120352428Y-99554000D01*
X121209571Y-99982571D02*
X120709571Y-98482571D01*
X120209571Y-99982571D01*
X119709571Y-99982571D02*
X119709571Y-98982571D01*
X119709571Y-99125428D02*
X119638142Y-99054000D01*
X119495285Y-98982571D01*
X119281000Y-98982571D01*
X119138142Y-99054000D01*
X119066714Y-99196857D01*
X119066714Y-99982571D01*
X119066714Y-99196857D02*
X118995285Y-99054000D01*
X118852428Y-98982571D01*
X118638142Y-98982571D01*
X118495285Y-99054000D01*
X118423857Y-99196857D01*
X118423857Y-99982571D01*
X117709571Y-99982571D02*
X117709571Y-98482571D01*
X117709571Y-99054000D02*
X117566714Y-98982571D01*
X117281000Y-98982571D01*
X117138142Y-99054000D01*
X117066714Y-99125428D01*
X116995285Y-99268285D01*
X116995285Y-99696857D01*
X117066714Y-99839714D01*
X117138142Y-99911142D01*
X117281000Y-99982571D01*
X117566714Y-99982571D01*
X117709571Y-99911142D01*
X116352428Y-99982571D02*
X116352428Y-98982571D01*
X116352428Y-99268285D02*
X116281000Y-99125428D01*
X116209571Y-99054000D01*
X116066714Y-98982571D01*
X115923857Y-98982571D01*
X115209571Y-99982571D02*
X115352428Y-99911142D01*
X115423857Y-99839714D01*
X115495285Y-99696857D01*
X115495285Y-99268285D01*
X115423857Y-99125428D01*
X115352428Y-99054000D01*
X115209571Y-98982571D01*
X114995285Y-98982571D01*
X114852428Y-99054000D01*
X114781000Y-99125428D01*
X114709571Y-99268285D01*
X114709571Y-99696857D01*
X114781000Y-99839714D01*
X114852428Y-99911142D01*
X114995285Y-99982571D01*
X115209571Y-99982571D01*
X114066714Y-99982571D02*
X114066714Y-98982571D01*
X114066714Y-98482571D02*
X114138142Y-98554000D01*
X114066714Y-98625428D01*
X113995285Y-98554000D01*
X114066714Y-98482571D01*
X114066714Y-98625428D01*
X113423857Y-99911142D02*
X113281000Y-99982571D01*
X112995285Y-99982571D01*
X112852428Y-99911142D01*
X112781000Y-99768285D01*
X112781000Y-99696857D01*
X112852428Y-99554000D01*
X112995285Y-99482571D01*
X113209571Y-99482571D01*
X113352428Y-99411142D01*
X113423857Y-99268285D01*
X113423857Y-99196857D01*
X113352428Y-99054000D01*
X113209571Y-98982571D01*
X112995285Y-98982571D01*
X112852428Y-99054000D01*
X111566714Y-99911142D02*
X111709571Y-99982571D01*
X111995285Y-99982571D01*
X112138142Y-99911142D01*
X112209571Y-99768285D01*
X112209571Y-99196857D01*
X112138142Y-99054000D01*
X111995285Y-98982571D01*
X111709571Y-98982571D01*
X111566714Y-99054000D01*
X111495285Y-99196857D01*
X111495285Y-99339714D01*
X112209571Y-99482571D01*
X132816714Y-102532571D02*
X133316714Y-101818285D01*
X133673857Y-102532571D02*
X133673857Y-101032571D01*
X133102428Y-101032571D01*
X132959571Y-101104000D01*
X132888142Y-101175428D01*
X132816714Y-101318285D01*
X132816714Y-101532571D01*
X132888142Y-101675428D01*
X132959571Y-101746857D01*
X133102428Y-101818285D01*
X133673857Y-101818285D01*
X132173857Y-102532571D02*
X132173857Y-101032571D01*
X131602428Y-101032571D01*
X131459571Y-101104000D01*
X131388142Y-101175428D01*
X131316714Y-101318285D01*
X131316714Y-101532571D01*
X131388142Y-101675428D01*
X131459571Y-101746857D01*
X131602428Y-101818285D01*
X132173857Y-101818285D01*
X130673857Y-102532571D02*
X130673857Y-101532571D01*
X130673857Y-101032571D02*
X130745285Y-101104000D01*
X130673857Y-101175428D01*
X130602428Y-101104000D01*
X130673857Y-101032571D01*
X130673857Y-101175428D01*
X128816714Y-102532571D02*
X128816714Y-101032571D01*
X128816714Y-101746857D02*
X127959571Y-101746857D01*
X127959571Y-102532571D02*
X127959571Y-101032571D01*
X126602428Y-102532571D02*
X126602428Y-101746857D01*
X126673857Y-101604000D01*
X126816714Y-101532571D01*
X127102428Y-101532571D01*
X127245285Y-101604000D01*
X126602428Y-102461142D02*
X126745285Y-102532571D01*
X127102428Y-102532571D01*
X127245285Y-102461142D01*
X127316714Y-102318285D01*
X127316714Y-102175428D01*
X127245285Y-102032571D01*
X127102428Y-101961142D01*
X126745285Y-101961142D01*
X126602428Y-101889714D01*
X126102428Y-101532571D02*
X125531000Y-101532571D01*
X125888142Y-101032571D02*
X125888142Y-102318285D01*
X125816714Y-102461142D01*
X125673857Y-102532571D01*
X125531000Y-102532571D01*
X123388142Y-101746857D02*
X123888142Y-101746857D01*
X123888142Y-102532571D02*
X123888142Y-101032571D01*
X123173857Y-101032571D01*
X122031000Y-102461142D02*
X122173857Y-102532571D01*
X122459571Y-102532571D01*
X122602428Y-102461142D01*
X122673857Y-102318285D01*
X122673857Y-101746857D01*
X122602428Y-101604000D01*
X122459571Y-101532571D01*
X122173857Y-101532571D01*
X122031000Y-101604000D01*
X121959571Y-101746857D01*
X121959571Y-101889714D01*
X122673857Y-102032571D01*
X120673857Y-102532571D02*
X120673857Y-101746857D01*
X120745285Y-101604000D01*
X120888142Y-101532571D01*
X121173857Y-101532571D01*
X121316714Y-101604000D01*
X120673857Y-102461142D02*
X120816714Y-102532571D01*
X121173857Y-102532571D01*
X121316714Y-102461142D01*
X121388142Y-102318285D01*
X121388142Y-102175428D01*
X121316714Y-102032571D01*
X121173857Y-101961142D01*
X120816714Y-101961142D01*
X120673857Y-101889714D01*
X120173857Y-101532571D02*
X119602428Y-101532571D01*
X119959571Y-101032571D02*
X119959571Y-102318285D01*
X119888142Y-102461142D01*
X119745285Y-102532571D01*
X119602428Y-102532571D01*
X119102428Y-102532571D02*
X119102428Y-101032571D01*
X118459571Y-102532571D02*
X118459571Y-101746857D01*
X118531000Y-101604000D01*
X118673857Y-101532571D01*
X118888142Y-101532571D01*
X119031000Y-101604000D01*
X119102428Y-101675428D01*
X117173857Y-102461142D02*
X117316714Y-102532571D01*
X117602428Y-102532571D01*
X117745285Y-102461142D01*
X117816714Y-102318285D01*
X117816714Y-101746857D01*
X117745285Y-101604000D01*
X117602428Y-101532571D01*
X117316714Y-101532571D01*
X117173857Y-101604000D01*
X117102428Y-101746857D01*
X117102428Y-101889714D01*
X117816714Y-102032571D01*
X116459571Y-102532571D02*
X116459571Y-101532571D01*
X116459571Y-101818285D02*
X116388142Y-101675428D01*
X116316714Y-101604000D01*
X116173857Y-101532571D01*
X116031000Y-101532571D01*
X114602428Y-101032571D02*
X114102428Y-102532571D01*
X113602428Y-101032571D01*
X113102428Y-102389714D02*
X113031000Y-102461142D01*
X113102428Y-102532571D01*
X113173857Y-102461142D01*
X113102428Y-102389714D01*
X113102428Y-102532571D01*
X110459571Y-102532571D02*
X111316714Y-102532571D01*
X110888142Y-102532571D02*
X110888142Y-101032571D01*
X111031000Y-101246857D01*
X111173857Y-101389714D01*
X111316714Y-101461142D01*
X109816714Y-102389714D02*
X109745285Y-102461142D01*
X109816714Y-102532571D01*
X109888142Y-102461142D01*
X109816714Y-102389714D01*
X109816714Y-102532571D01*
X108816714Y-101032571D02*
X108673857Y-101032571D01*
X108531000Y-101104000D01*
X108459571Y-101175428D01*
X108388142Y-101318285D01*
X108316714Y-101604000D01*
X108316714Y-101961142D01*
X108388142Y-102246857D01*
X108459571Y-102389714D01*
X108531000Y-102461142D01*
X108673857Y-102532571D01*
X108816714Y-102532571D01*
X108959571Y-102461142D01*
X109031000Y-102389714D01*
X109102428Y-102246857D01*
X109173857Y-101961142D01*
X109173857Y-101604000D01*
X109102428Y-101318285D01*
X109031000Y-101175428D01*
X108959571Y-101104000D01*
X108816714Y-101032571D01*
X126602428Y-104654000D02*
X125888142Y-104654000D01*
X126745285Y-105082571D02*
X126245285Y-103582571D01*
X125745285Y-105082571D01*
X125388142Y-104082571D02*
X125031000Y-105082571D01*
X124673857Y-104082571D01*
X124102428Y-105082571D02*
X124102428Y-104082571D01*
X124102428Y-104368285D02*
X124031000Y-104225428D01*
X123959571Y-104154000D01*
X123816714Y-104082571D01*
X123673857Y-104082571D01*
X123173857Y-105082571D02*
X123173857Y-104082571D01*
X123173857Y-103582571D02*
X123245285Y-103654000D01*
X123173857Y-103725428D01*
X123102428Y-103654000D01*
X123173857Y-103582571D01*
X123173857Y-103725428D01*
X122245285Y-105082571D02*
X122388142Y-105011142D01*
X122459571Y-104868285D01*
X122459571Y-103582571D01*
X120602428Y-103725428D02*
X120531000Y-103654000D01*
X120388142Y-103582571D01*
X120031000Y-103582571D01*
X119888142Y-103654000D01*
X119816714Y-103725428D01*
X119745285Y-103868285D01*
X119745285Y-104011142D01*
X119816714Y-104225428D01*
X120673857Y-105082571D01*
X119745285Y-105082571D01*
X118816714Y-103582571D02*
X118673857Y-103582571D01*
X118531000Y-103654000D01*
X118459571Y-103725428D01*
X118388142Y-103868285D01*
X118316714Y-104154000D01*
X118316714Y-104511142D01*
X118388142Y-104796857D01*
X118459571Y-104939714D01*
X118531000Y-105011142D01*
X118673857Y-105082571D01*
X118816714Y-105082571D01*
X118959571Y-105011142D01*
X119031000Y-104939714D01*
X119102428Y-104796857D01*
X119173857Y-104511142D01*
X119173857Y-104154000D01*
X119102428Y-103868285D01*
X119031000Y-103725428D01*
X118959571Y-103654000D01*
X118816714Y-103582571D01*
X116888142Y-105082571D02*
X117745285Y-105082571D01*
X117316714Y-105082571D02*
X117316714Y-103582571D01*
X117459571Y-103796857D01*
X117602428Y-103939714D01*
X117745285Y-104011142D01*
X116388142Y-103582571D02*
X115388142Y-103582571D01*
X116031000Y-105082571D01*
D12*
X139913500Y-80010000D02*
G75*
G03X139913500Y-80010000I-6500000J0D01*
G01*
X140913500Y-80010000D02*
G75*
G03X140913500Y-80010000I-7500000J0D01*
G01*
D13*
X145835000Y-87114000D02*
X145835000Y-86114000D01*
X147535000Y-86114000D02*
X147535000Y-87114000D01*
D12*
X126007714Y-84002571D02*
X125864857Y-84050190D01*
X125817238Y-84097809D01*
X125769619Y-84193047D01*
X125769619Y-84335904D01*
X125817238Y-84431142D01*
X125864857Y-84478761D01*
X125960095Y-84526380D01*
X126341047Y-84526380D01*
X126341047Y-83526380D01*
X126007714Y-83526380D01*
X125912476Y-83574000D01*
X125864857Y-83621619D01*
X125817238Y-83716857D01*
X125817238Y-83812095D01*
X125864857Y-83907333D01*
X125912476Y-83954952D01*
X126007714Y-84002571D01*
X126341047Y-84002571D01*
X125483904Y-83526380D02*
X124912476Y-83526380D01*
X125198190Y-84526380D02*
X125198190Y-83526380D01*
X124055333Y-84526380D02*
X124626761Y-84526380D01*
X124341047Y-84526380D02*
X124341047Y-83526380D01*
X124436285Y-83669238D01*
X124531523Y-83764476D01*
X124626761Y-83812095D01*
X147042142Y-82288142D02*
X147089761Y-82240523D01*
X147137380Y-82097666D01*
X147137380Y-82002428D01*
X147089761Y-81859571D01*
X146994523Y-81764333D01*
X146899285Y-81716714D01*
X146708809Y-81669095D01*
X146565952Y-81669095D01*
X146375476Y-81716714D01*
X146280238Y-81764333D01*
X146185000Y-81859571D01*
X146137380Y-82002428D01*
X146137380Y-82097666D01*
X146185000Y-82240523D01*
X146232619Y-82288142D01*
X147137380Y-83240523D02*
X147137380Y-82669095D01*
X147137380Y-82954809D02*
X146137380Y-82954809D01*
X146280238Y-82859571D01*
X146375476Y-82764333D01*
X146423095Y-82669095D01*
X146137380Y-84145285D02*
X146137380Y-83669095D01*
X146613571Y-83621476D01*
X146565952Y-83669095D01*
X146518333Y-83764333D01*
X146518333Y-84002428D01*
X146565952Y-84097666D01*
X146613571Y-84145285D01*
X146708809Y-84192904D01*
X146946904Y-84192904D01*
X147042142Y-84145285D01*
X147089761Y-84097666D01*
X147137380Y-84002428D01*
X147137380Y-83764333D01*
X147089761Y-83669095D01*
X147042142Y-83621476D01*
D14*
G36*
X119348668Y-77597000D02*
X103092668Y-77597000D01*
X103092668Y-74803000D01*
X119348668Y-74803000D01*
X119348668Y-77597000D01*
X119348668Y-77597000D01*
G37*
X119348668Y-77597000D02*
X103092668Y-77597000D01*
X103092668Y-74803000D01*
X119348668Y-74803000D01*
X119348668Y-77597000D01*
M02*
