G04 #@! TF.GenerationSoftware,KiCad,Pcbnew,no-vcs-found-01f5a12~58~ubuntu16.04.1*
G04 #@! TF.CreationDate,2017-04-25T17:44:52-04:00*
G04 #@! TF.ProjectId,RPi_Hat,5250695F4861742E6B696361645F7063,rev?*
G04 #@! TF.FileFunction,Soldermask,Top*
G04 #@! TF.FilePolarity,Negative*
%FSLAX46Y46*%
G04 Gerber Fmt 4.6, Leading zero omitted, Abs format (unit mm)*
G04 Created by KiCad (PCBNEW no-vcs-found-01f5a12~58~ubuntu16.04.1) date Tue Apr 25 17:44:52 2017*
%MOMM*%
%LPD*%
G01*
G04 APERTURE LIST*
%ADD10C,0.100000*%
%ADD11C,1.397000*%
%ADD12R,1.397000X1.397000*%
%ADD13C,1.524000*%
%ADD14R,1.524000X1.524000*%
%ADD15C,2.540000*%
%ADD16R,1.270000X1.270000*%
%ADD17C,1.270000*%
%ADD18R,1.750000X0.450000*%
%ADD19R,1.550000X0.600000*%
%ADD20R,1.500000X1.250000*%
%ADD21O,1.727200X1.727200*%
%ADD22R,1.727200X1.727200*%
%ADD23C,3.048000*%
%ADD24O,1.727200X2.032000*%
%ADD25C,6.200000*%
%ADD26R,1.250000X1.500000*%
%ADD27R,1.500000X1.300000*%
%ADD28R,0.600000X1.550000*%
%ADD29C,1.600000*%
%ADD30R,2.400000X1.100000*%
%ADD31C,0.600000*%
%ADD32R,1.300000X1.500000*%
%ADD33R,0.530000X1.700000*%
%ADD34R,0.600000X1.800000*%
%ADD35R,1.200000X1.200000*%
G04 APERTURE END LIST*
D10*
D11*
X146990492Y-107732505D03*
X146990492Y-95743705D03*
X148946292Y-98740905D03*
X148946292Y-101738105D03*
D12*
X148946292Y-104735305D03*
D13*
X147066691Y-75982504D03*
X147066691Y-90968504D03*
X149022491Y-78979704D03*
X149022491Y-81976904D03*
X149022491Y-84974104D03*
D14*
X149022491Y-87971304D03*
D15*
X91465399Y-107530900D03*
X91465399Y-100241101D03*
D16*
X91465399Y-102400101D03*
D17*
X91465399Y-105397301D03*
D15*
X91465399Y-76034900D03*
X91465399Y-68745101D03*
D16*
X91465399Y-70904101D03*
D17*
X91465399Y-73901301D03*
D18*
X103080000Y-99407000D03*
X103080000Y-100057000D03*
X103080000Y-100707000D03*
X103080000Y-101357000D03*
X103080000Y-102007000D03*
X103080000Y-102657000D03*
X103080000Y-103307000D03*
X103080000Y-103957000D03*
X103080000Y-104607000D03*
X103080000Y-105257000D03*
X103080000Y-105907000D03*
X103080000Y-106557000D03*
X103080000Y-107207000D03*
X103080000Y-107857000D03*
X110280000Y-107857000D03*
X110280000Y-107207000D03*
X110280000Y-106557000D03*
X110280000Y-105907000D03*
X110280000Y-105257000D03*
X110280000Y-104607000D03*
X110280000Y-103957000D03*
X110280000Y-103307000D03*
X110280000Y-102657000D03*
X110280000Y-102007000D03*
X110280000Y-101357000D03*
X110280000Y-100707000D03*
X110280000Y-100057000D03*
X110280000Y-99407000D03*
D19*
X137676000Y-102037000D03*
X137676000Y-100767000D03*
X137676000Y-99497000D03*
X137676000Y-98227000D03*
X143076000Y-98227000D03*
X143076000Y-99497000D03*
X143076000Y-100767000D03*
X143076000Y-102037000D03*
D20*
X139680000Y-96393000D03*
X137180000Y-96393000D03*
D21*
X144310800Y-62369200D03*
X144310800Y-64909200D03*
X141770800Y-62369200D03*
X141770800Y-64909200D03*
X139230800Y-62369200D03*
X139230800Y-64909200D03*
X136690800Y-62369200D03*
X136690800Y-64909200D03*
X134150800Y-62369200D03*
X134150800Y-64909200D03*
X131610800Y-62369200D03*
X131610800Y-64909200D03*
X129070800Y-62369200D03*
X129070800Y-64909200D03*
X126530800Y-62369200D03*
X126530800Y-64909200D03*
X123990800Y-62369200D03*
X123990800Y-64909200D03*
X121450800Y-62369200D03*
X121450800Y-64909200D03*
X118910800Y-62369200D03*
X118910800Y-64909200D03*
X116370800Y-62369200D03*
X116370800Y-64909200D03*
X113830800Y-62369200D03*
X113830800Y-64909200D03*
X111290800Y-62369200D03*
X111290800Y-64909200D03*
X108750800Y-62369200D03*
X108750800Y-64909200D03*
X106210800Y-62369200D03*
X106210800Y-64909200D03*
X103670800Y-62369200D03*
X103670800Y-64909200D03*
X101130800Y-62369200D03*
X101130800Y-64909200D03*
X98590800Y-62369200D03*
X98590800Y-64909200D03*
X96050800Y-62369200D03*
D22*
X96050800Y-64909200D03*
D23*
X97282000Y-71120000D03*
X97282000Y-88900000D03*
X143002000Y-88900000D03*
X143002000Y-71120000D03*
D24*
X101092000Y-90170000D03*
X103632000Y-90170000D03*
X106172000Y-90170000D03*
X108712000Y-90170000D03*
X111252000Y-69850000D03*
X111252000Y-90170000D03*
X113792000Y-90170000D03*
X116332000Y-90170000D03*
X118872000Y-90170000D03*
X121412000Y-90170000D03*
X123952000Y-90170000D03*
X126492000Y-90170000D03*
X129032000Y-90170000D03*
X131572000Y-90170000D03*
X134112000Y-90170000D03*
X136652000Y-90170000D03*
X139192000Y-90170000D03*
X139192000Y-69850000D03*
X136652000Y-69850000D03*
X134112000Y-69850000D03*
X131572000Y-69850000D03*
X129032000Y-69850000D03*
X126492000Y-69850000D03*
X123952000Y-69850000D03*
X121412000Y-69850000D03*
X118872000Y-69850000D03*
X116332000Y-69850000D03*
X113792000Y-69850000D03*
X109990000Y-86370000D03*
X112530000Y-86370000D03*
X113792000Y-93980000D03*
X116332000Y-93980000D03*
X118872000Y-93980000D03*
X121412000Y-93980000D03*
X123952000Y-93980000D03*
X126492000Y-93980000D03*
X129032000Y-93980000D03*
X131572000Y-93980000D03*
X134112000Y-93980000D03*
X136652000Y-93980000D03*
X139192000Y-93980000D03*
X139192000Y-114300000D03*
X136652000Y-114300000D03*
X134112000Y-114300000D03*
X131572000Y-114300000D03*
X129032000Y-114300000D03*
X126492000Y-114300000D03*
X123952000Y-114300000D03*
X121412000Y-114300000D03*
X118872000Y-114300000D03*
X116332000Y-114300000D03*
X113792000Y-114300000D03*
X111252000Y-114300000D03*
X111252000Y-93980000D03*
X108712000Y-114300000D03*
X106172000Y-114300000D03*
X103632000Y-114300000D03*
X101092000Y-114300000D03*
D23*
X143002000Y-95250000D03*
X143002000Y-113030000D03*
X97282000Y-113030000D03*
X97282000Y-95250000D03*
D18*
X110280000Y-74896000D03*
X110280000Y-75546000D03*
X110280000Y-76196000D03*
X110280000Y-76846000D03*
X110280000Y-77496000D03*
X110280000Y-78146000D03*
X110280000Y-78796000D03*
X110280000Y-79446000D03*
X110280000Y-80096000D03*
X110280000Y-80746000D03*
X110280000Y-81396000D03*
X110280000Y-82046000D03*
X110280000Y-82696000D03*
X110280000Y-83346000D03*
X103080000Y-83346000D03*
X103080000Y-82696000D03*
X103080000Y-82046000D03*
X103080000Y-81396000D03*
X103080000Y-80746000D03*
X103080000Y-80096000D03*
X103080000Y-79446000D03*
X103080000Y-78796000D03*
X103080000Y-78146000D03*
X103080000Y-77496000D03*
X103080000Y-76846000D03*
X103080000Y-76196000D03*
X103080000Y-75546000D03*
X103080000Y-74896000D03*
D20*
X100477000Y-71628000D03*
X102977000Y-71628000D03*
D25*
X149180800Y-63639200D03*
X149180800Y-112639200D03*
X91180800Y-112639200D03*
X91180800Y-63639200D03*
D26*
X113284000Y-83546000D03*
X113284000Y-81046000D03*
X113284000Y-78212000D03*
X113284000Y-75712000D03*
D20*
X97175000Y-76073000D03*
X99675000Y-76073000D03*
X99675000Y-83439000D03*
X97175000Y-83439000D03*
X107549000Y-96647000D03*
X105049000Y-96647000D03*
D26*
X113284000Y-105430000D03*
X113284000Y-107930000D03*
X113284000Y-99334000D03*
X113284000Y-101834000D03*
D20*
X97175000Y-100584000D03*
X99675000Y-100584000D03*
X99675000Y-107950000D03*
X97175000Y-107950000D03*
D26*
X125476000Y-103271000D03*
X125476000Y-105771000D03*
X127635000Y-105771000D03*
X127635000Y-103271000D03*
D27*
X138350000Y-104203500D03*
X141050000Y-104203500D03*
D28*
X129794000Y-107348000D03*
X131064000Y-107348000D03*
X132334000Y-107348000D03*
X133604000Y-107348000D03*
X133604000Y-101948000D03*
X132334000Y-101948000D03*
X131064000Y-101948000D03*
X129794000Y-101948000D03*
D13*
X129913500Y-80010000D03*
D29*
X137413500Y-80010000D03*
D30*
X99187000Y-81056000D03*
X99187000Y-78456000D03*
X99187000Y-102967000D03*
X99187000Y-105567000D03*
D31*
X94234000Y-84709000D03*
X95234000Y-84709000D03*
X95234000Y-91059000D03*
X94234000Y-91059000D03*
D26*
X142240000Y-78506000D03*
X142240000Y-81006000D03*
D27*
X130857000Y-99568000D03*
X133557000Y-99568000D03*
D32*
X135890000Y-103933000D03*
X135890000Y-106633000D03*
D33*
X138430000Y-110618000D03*
X139700000Y-110618000D03*
X140970000Y-110618000D03*
X138430000Y-107568000D03*
X139700000Y-107568000D03*
X140970000Y-107568000D03*
D34*
X139827000Y-84533000D03*
X138557000Y-84533000D03*
X137287000Y-84533000D03*
X136017000Y-84533000D03*
X134747000Y-84533000D03*
X133477000Y-84533000D03*
X132207000Y-84533000D03*
X130937000Y-84533000D03*
X130937000Y-75233000D03*
X132207000Y-75233000D03*
X133477000Y-75233000D03*
X134747000Y-75233000D03*
X136017000Y-75233000D03*
X137287000Y-75233000D03*
X138557000Y-75233000D03*
X139827000Y-75233000D03*
D35*
X148188500Y-73342500D03*
X150388500Y-73342500D03*
X150388500Y-70294500D03*
X148188500Y-70294500D03*
D32*
X145986500Y-70468500D03*
X145986500Y-73168500D03*
D27*
X148691600Y-68199000D03*
X145991600Y-68199000D03*
M02*
