G04 #@! TF.GenerationSoftware,KiCad,Pcbnew,no-vcs-found-01f5a12~58~ubuntu16.04.1*
G04 #@! TF.CreationDate,2017-04-25T17:44:52-04:00*
G04 #@! TF.ProjectId,RPi_Hat,5250695F4861742E6B696361645F7063,rev?*
G04 #@! TF.FileFunction,Soldermask,Bot*
G04 #@! TF.FilePolarity,Negative*
%FSLAX46Y46*%
G04 Gerber Fmt 4.6, Leading zero omitted, Abs format (unit mm)*
G04 Created by KiCad (PCBNEW no-vcs-found-01f5a12~58~ubuntu16.04.1) date Tue Apr 25 17:44:52 2017*
%MOMM*%
%LPD*%
G01*
G04 APERTURE LIST*
%ADD10C,0.100000*%
%ADD11C,1.397000*%
%ADD12R,1.397000X1.397000*%
%ADD13C,1.524000*%
%ADD14R,1.524000X1.524000*%
%ADD15C,2.540000*%
%ADD16R,1.270000X1.270000*%
%ADD17C,1.270000*%
%ADD18O,1.727200X1.727200*%
%ADD19R,1.727200X1.727200*%
%ADD20C,3.048000*%
%ADD21O,1.727200X2.032000*%
%ADD22C,6.200000*%
%ADD23C,1.600000*%
%ADD24R,3.540000X2.600000*%
%ADD25R,3.660000X2.600000*%
%ADD26C,0.600000*%
%ADD27R,1.250000X1.500000*%
G04 APERTURE END LIST*
D10*
D11*
X146990492Y-107732505D03*
X146990492Y-95743705D03*
X148946292Y-98740905D03*
X148946292Y-101738105D03*
D12*
X148946292Y-104735305D03*
D13*
X147066691Y-75982504D03*
X147066691Y-90968504D03*
X149022491Y-78979704D03*
X149022491Y-81976904D03*
X149022491Y-84974104D03*
D14*
X149022491Y-87971304D03*
D15*
X91465399Y-107530900D03*
X91465399Y-100241101D03*
D16*
X91465399Y-102400101D03*
D17*
X91465399Y-105397301D03*
D15*
X91465399Y-76034900D03*
X91465399Y-68745101D03*
D16*
X91465399Y-70904101D03*
D17*
X91465399Y-73901301D03*
D18*
X144310800Y-62369200D03*
X144310800Y-64909200D03*
X141770800Y-62369200D03*
X141770800Y-64909200D03*
X139230800Y-62369200D03*
X139230800Y-64909200D03*
X136690800Y-62369200D03*
X136690800Y-64909200D03*
X134150800Y-62369200D03*
X134150800Y-64909200D03*
X131610800Y-62369200D03*
X131610800Y-64909200D03*
X129070800Y-62369200D03*
X129070800Y-64909200D03*
X126530800Y-62369200D03*
X126530800Y-64909200D03*
X123990800Y-62369200D03*
X123990800Y-64909200D03*
X121450800Y-62369200D03*
X121450800Y-64909200D03*
X118910800Y-62369200D03*
X118910800Y-64909200D03*
X116370800Y-62369200D03*
X116370800Y-64909200D03*
X113830800Y-62369200D03*
X113830800Y-64909200D03*
X111290800Y-62369200D03*
X111290800Y-64909200D03*
X108750800Y-62369200D03*
X108750800Y-64909200D03*
X106210800Y-62369200D03*
X106210800Y-64909200D03*
X103670800Y-62369200D03*
X103670800Y-64909200D03*
X101130800Y-62369200D03*
X101130800Y-64909200D03*
X98590800Y-62369200D03*
X98590800Y-64909200D03*
X96050800Y-62369200D03*
D19*
X96050800Y-64909200D03*
D20*
X97282000Y-71120000D03*
X97282000Y-88900000D03*
X143002000Y-88900000D03*
X143002000Y-71120000D03*
D21*
X101092000Y-90170000D03*
X103632000Y-90170000D03*
X106172000Y-90170000D03*
X108712000Y-90170000D03*
X111252000Y-69850000D03*
X111252000Y-90170000D03*
X113792000Y-90170000D03*
X116332000Y-90170000D03*
X118872000Y-90170000D03*
X121412000Y-90170000D03*
X123952000Y-90170000D03*
X126492000Y-90170000D03*
X129032000Y-90170000D03*
X131572000Y-90170000D03*
X134112000Y-90170000D03*
X136652000Y-90170000D03*
X139192000Y-90170000D03*
X139192000Y-69850000D03*
X136652000Y-69850000D03*
X134112000Y-69850000D03*
X131572000Y-69850000D03*
X129032000Y-69850000D03*
X126492000Y-69850000D03*
X123952000Y-69850000D03*
X121412000Y-69850000D03*
X118872000Y-69850000D03*
X116332000Y-69850000D03*
X113792000Y-69850000D03*
X109990000Y-86370000D03*
X112530000Y-86370000D03*
X113792000Y-93980000D03*
X116332000Y-93980000D03*
X118872000Y-93980000D03*
X121412000Y-93980000D03*
X123952000Y-93980000D03*
X126492000Y-93980000D03*
X129032000Y-93980000D03*
X131572000Y-93980000D03*
X134112000Y-93980000D03*
X136652000Y-93980000D03*
X139192000Y-93980000D03*
X139192000Y-114300000D03*
X136652000Y-114300000D03*
X134112000Y-114300000D03*
X131572000Y-114300000D03*
X129032000Y-114300000D03*
X126492000Y-114300000D03*
X123952000Y-114300000D03*
X121412000Y-114300000D03*
X118872000Y-114300000D03*
X116332000Y-114300000D03*
X113792000Y-114300000D03*
X111252000Y-114300000D03*
X111252000Y-93980000D03*
X108712000Y-114300000D03*
X106172000Y-114300000D03*
X103632000Y-114300000D03*
X101092000Y-114300000D03*
D20*
X143002000Y-95250000D03*
X143002000Y-113030000D03*
X97282000Y-113030000D03*
X97282000Y-95250000D03*
D22*
X149180800Y-63639200D03*
X149180800Y-112639200D03*
X91180800Y-112639200D03*
X91180800Y-63639200D03*
D13*
X129913500Y-80010000D03*
D23*
X137413500Y-80010000D03*
D24*
X141643500Y-80010000D03*
D25*
X125843500Y-80010000D03*
D26*
X94234000Y-84709000D03*
X95234000Y-84709000D03*
X95234000Y-91059000D03*
X94234000Y-91059000D03*
D27*
X146685000Y-85364000D03*
X146685000Y-87864000D03*
M02*
