G04 #@! TF.GenerationSoftware,KiCad,Pcbnew,no-vcs-found-01f5a12~58~ubuntu16.04.1*
G04 #@! TF.CreationDate,2017-04-25T17:44:52-04:00*
G04 #@! TF.ProjectId,RPi_Hat,5250695F4861742E6B696361645F7063,rev?*
G04 #@! TF.FileFunction,Copper,L1,Top,Signal*
G04 #@! TF.FilePolarity,Positive*
%FSLAX46Y46*%
G04 Gerber Fmt 4.6, Leading zero omitted, Abs format (unit mm)*
G04 Created by KiCad (PCBNEW no-vcs-found-01f5a12~58~ubuntu16.04.1) date Tue Apr 25 17:44:52 2017*
%MOMM*%
%LPD*%
G01*
G04 APERTURE LIST*
%ADD10C,0.100000*%
%ADD11C,1.397000*%
%ADD12R,1.397000X1.397000*%
%ADD13C,1.524000*%
%ADD14R,1.524000X1.524000*%
%ADD15C,2.540000*%
%ADD16R,1.270000X1.270000*%
%ADD17C,1.270000*%
%ADD18R,1.750000X0.450000*%
%ADD19R,1.550000X0.600000*%
%ADD20R,1.500000X1.250000*%
%ADD21O,1.727200X1.727200*%
%ADD22R,1.727200X1.727200*%
%ADD23C,3.048000*%
%ADD24O,1.727200X2.032000*%
%ADD25R,1.250000X1.500000*%
%ADD26R,1.500000X1.300000*%
%ADD27R,0.600000X1.550000*%
%ADD28C,1.600000*%
%ADD29R,2.400000X1.100000*%
%ADD30C,0.600000*%
%ADD31R,1.300000X1.500000*%
%ADD32R,0.530000X1.700000*%
%ADD33R,0.600000X1.800000*%
%ADD34R,1.200000X1.200000*%
%ADD35C,0.685800*%
%ADD36C,0.250000*%
%ADD37C,0.254000*%
%ADD38C,0.203200*%
G04 APERTURE END LIST*
D10*
D11*
X146990492Y-107732505D03*
X146990492Y-95743705D03*
X148946292Y-98740905D03*
X148946292Y-101738105D03*
D12*
X148946292Y-104735305D03*
D13*
X147066691Y-75982504D03*
X147066691Y-90968504D03*
X149022491Y-78979704D03*
X149022491Y-81976904D03*
X149022491Y-84974104D03*
D14*
X149022491Y-87971304D03*
D15*
X91465399Y-107530900D03*
X91465399Y-100241101D03*
D16*
X91465399Y-102400101D03*
D17*
X91465399Y-105397301D03*
D15*
X91465399Y-76034900D03*
X91465399Y-68745101D03*
D16*
X91465399Y-70904101D03*
D17*
X91465399Y-73901301D03*
D18*
X103080000Y-99407000D03*
X103080000Y-100057000D03*
X103080000Y-100707000D03*
X103080000Y-101357000D03*
X103080000Y-102007000D03*
X103080000Y-102657000D03*
X103080000Y-103307000D03*
X103080000Y-103957000D03*
X103080000Y-104607000D03*
X103080000Y-105257000D03*
X103080000Y-105907000D03*
X103080000Y-106557000D03*
X103080000Y-107207000D03*
X103080000Y-107857000D03*
X110280000Y-107857000D03*
X110280000Y-107207000D03*
X110280000Y-106557000D03*
X110280000Y-105907000D03*
X110280000Y-105257000D03*
X110280000Y-104607000D03*
X110280000Y-103957000D03*
X110280000Y-103307000D03*
X110280000Y-102657000D03*
X110280000Y-102007000D03*
X110280000Y-101357000D03*
X110280000Y-100707000D03*
X110280000Y-100057000D03*
X110280000Y-99407000D03*
D19*
X137676000Y-102037000D03*
X137676000Y-100767000D03*
X137676000Y-99497000D03*
X137676000Y-98227000D03*
X143076000Y-98227000D03*
X143076000Y-99497000D03*
X143076000Y-100767000D03*
X143076000Y-102037000D03*
D20*
X139680000Y-96393000D03*
X137180000Y-96393000D03*
D21*
X144310800Y-62369200D03*
X144310800Y-64909200D03*
X141770800Y-62369200D03*
X141770800Y-64909200D03*
X139230800Y-62369200D03*
X139230800Y-64909200D03*
X136690800Y-62369200D03*
X136690800Y-64909200D03*
X134150800Y-62369200D03*
X134150800Y-64909200D03*
X131610800Y-62369200D03*
X131610800Y-64909200D03*
X129070800Y-62369200D03*
X129070800Y-64909200D03*
X126530800Y-62369200D03*
X126530800Y-64909200D03*
X123990800Y-62369200D03*
X123990800Y-64909200D03*
X121450800Y-62369200D03*
X121450800Y-64909200D03*
X118910800Y-62369200D03*
X118910800Y-64909200D03*
X116370800Y-62369200D03*
X116370800Y-64909200D03*
X113830800Y-62369200D03*
X113830800Y-64909200D03*
X111290800Y-62369200D03*
X111290800Y-64909200D03*
X108750800Y-62369200D03*
X108750800Y-64909200D03*
X106210800Y-62369200D03*
X106210800Y-64909200D03*
X103670800Y-62369200D03*
X103670800Y-64909200D03*
X101130800Y-62369200D03*
X101130800Y-64909200D03*
X98590800Y-62369200D03*
X98590800Y-64909200D03*
X96050800Y-62369200D03*
D22*
X96050800Y-64909200D03*
D23*
X97282000Y-71120000D03*
X97282000Y-88900000D03*
X143002000Y-88900000D03*
X143002000Y-71120000D03*
D24*
X101092000Y-90170000D03*
X103632000Y-90170000D03*
X106172000Y-90170000D03*
X108712000Y-90170000D03*
X111252000Y-69850000D03*
X111252000Y-90170000D03*
X113792000Y-90170000D03*
X116332000Y-90170000D03*
X118872000Y-90170000D03*
X121412000Y-90170000D03*
X123952000Y-90170000D03*
X126492000Y-90170000D03*
X129032000Y-90170000D03*
X131572000Y-90170000D03*
X134112000Y-90170000D03*
X136652000Y-90170000D03*
X139192000Y-90170000D03*
X139192000Y-69850000D03*
X136652000Y-69850000D03*
X134112000Y-69850000D03*
X131572000Y-69850000D03*
X129032000Y-69850000D03*
X126492000Y-69850000D03*
X123952000Y-69850000D03*
X121412000Y-69850000D03*
X118872000Y-69850000D03*
X116332000Y-69850000D03*
X113792000Y-69850000D03*
X109990000Y-86370000D03*
X112530000Y-86370000D03*
X113792000Y-93980000D03*
X116332000Y-93980000D03*
X118872000Y-93980000D03*
X121412000Y-93980000D03*
X123952000Y-93980000D03*
X126492000Y-93980000D03*
X129032000Y-93980000D03*
X131572000Y-93980000D03*
X134112000Y-93980000D03*
X136652000Y-93980000D03*
X139192000Y-93980000D03*
X139192000Y-114300000D03*
X136652000Y-114300000D03*
X134112000Y-114300000D03*
X131572000Y-114300000D03*
X129032000Y-114300000D03*
X126492000Y-114300000D03*
X123952000Y-114300000D03*
X121412000Y-114300000D03*
X118872000Y-114300000D03*
X116332000Y-114300000D03*
X113792000Y-114300000D03*
X111252000Y-114300000D03*
X111252000Y-93980000D03*
X108712000Y-114300000D03*
X106172000Y-114300000D03*
X103632000Y-114300000D03*
X101092000Y-114300000D03*
D23*
X143002000Y-95250000D03*
X143002000Y-113030000D03*
X97282000Y-113030000D03*
X97282000Y-95250000D03*
D18*
X110280000Y-74896000D03*
X110280000Y-75546000D03*
X110280000Y-76196000D03*
X110280000Y-76846000D03*
X110280000Y-77496000D03*
X110280000Y-78146000D03*
X110280000Y-78796000D03*
X110280000Y-79446000D03*
X110280000Y-80096000D03*
X110280000Y-80746000D03*
X110280000Y-81396000D03*
X110280000Y-82046000D03*
X110280000Y-82696000D03*
X110280000Y-83346000D03*
X103080000Y-83346000D03*
X103080000Y-82696000D03*
X103080000Y-82046000D03*
X103080000Y-81396000D03*
X103080000Y-80746000D03*
X103080000Y-80096000D03*
X103080000Y-79446000D03*
X103080000Y-78796000D03*
X103080000Y-78146000D03*
X103080000Y-77496000D03*
X103080000Y-76846000D03*
X103080000Y-76196000D03*
X103080000Y-75546000D03*
X103080000Y-74896000D03*
D20*
X100477000Y-71628000D03*
X102977000Y-71628000D03*
D25*
X113284000Y-83546000D03*
X113284000Y-81046000D03*
X113284000Y-78212000D03*
X113284000Y-75712000D03*
D20*
X97175000Y-76073000D03*
X99675000Y-76073000D03*
X99675000Y-83439000D03*
X97175000Y-83439000D03*
X107549000Y-96647000D03*
X105049000Y-96647000D03*
D25*
X113284000Y-105430000D03*
X113284000Y-107930000D03*
X113284000Y-99334000D03*
X113284000Y-101834000D03*
D20*
X97175000Y-100584000D03*
X99675000Y-100584000D03*
X99675000Y-107950000D03*
X97175000Y-107950000D03*
D25*
X125476000Y-103271000D03*
X125476000Y-105771000D03*
X127635000Y-105771000D03*
X127635000Y-103271000D03*
D26*
X138350000Y-104203500D03*
X141050000Y-104203500D03*
D27*
X129794000Y-107348000D03*
X131064000Y-107348000D03*
X132334000Y-107348000D03*
X133604000Y-107348000D03*
X133604000Y-101948000D03*
X132334000Y-101948000D03*
X131064000Y-101948000D03*
X129794000Y-101948000D03*
D13*
X129913500Y-80010000D03*
D28*
X137413500Y-80010000D03*
D29*
X99187000Y-81056000D03*
X99187000Y-78456000D03*
X99187000Y-102967000D03*
X99187000Y-105567000D03*
D30*
X94234000Y-84709000D03*
X95234000Y-84709000D03*
X95234000Y-91059000D03*
X94234000Y-91059000D03*
D25*
X142240000Y-78506000D03*
X142240000Y-81006000D03*
D26*
X130857000Y-99568000D03*
X133557000Y-99568000D03*
D31*
X135890000Y-103933000D03*
X135890000Y-106633000D03*
D32*
X138430000Y-110618000D03*
X139700000Y-110618000D03*
X140970000Y-110618000D03*
X138430000Y-107568000D03*
X139700000Y-107568000D03*
X140970000Y-107568000D03*
D33*
X139827000Y-84533000D03*
X138557000Y-84533000D03*
X137287000Y-84533000D03*
X136017000Y-84533000D03*
X134747000Y-84533000D03*
X133477000Y-84533000D03*
X132207000Y-84533000D03*
X130937000Y-84533000D03*
X130937000Y-75233000D03*
X132207000Y-75233000D03*
X133477000Y-75233000D03*
X134747000Y-75233000D03*
X136017000Y-75233000D03*
X137287000Y-75233000D03*
X138557000Y-75233000D03*
X139827000Y-75233000D03*
D34*
X148188500Y-73342500D03*
X150388500Y-73342500D03*
X150388500Y-70294500D03*
X148188500Y-70294500D03*
D31*
X145986500Y-70468500D03*
X145986500Y-73168500D03*
D26*
X148691600Y-68199000D03*
X145991600Y-68199000D03*
D35*
X150388500Y-71729600D03*
X88773000Y-106934000D03*
X88646000Y-74422000D03*
X144018000Y-77978000D03*
X141859000Y-97663000D03*
X125603000Y-101219000D03*
X149098000Y-92329000D03*
X142367000Y-82804000D03*
X129032000Y-77216000D03*
X118166957Y-101981000D03*
X109273383Y-97457282D03*
X114935000Y-107823000D03*
X114935000Y-101600000D03*
X96901000Y-104267000D03*
X101346000Y-106172000D03*
X114935000Y-83693000D03*
X96647000Y-79756000D03*
X101473000Y-81915000D03*
X114935000Y-78613000D03*
X102997000Y-70231000D03*
X105740200Y-69407490D03*
X142239998Y-76581000D03*
X115697000Y-79502000D03*
X135508992Y-96139000D03*
X125222000Y-107569000D03*
X115062000Y-99313996D03*
X113284000Y-72009000D03*
X104896518Y-68675487D03*
X145034000Y-91059000D03*
X145161000Y-85852000D03*
X103759000Y-94361006D03*
X108077000Y-71475598D03*
X110109000Y-63627000D03*
X107391194Y-72237600D03*
X103251014Y-66548000D03*
X106553000Y-72847198D03*
X134239000Y-66929000D03*
X122428000Y-66802000D03*
X107442000Y-65658960D03*
X133604000Y-67691000D03*
X121412000Y-66929000D03*
X107061000Y-66675000D03*
X135509000Y-79756000D03*
X105918000Y-67310000D03*
X105898000Y-68166879D03*
X134937500Y-80581500D03*
X105346500Y-100587500D03*
X101320600Y-75819000D03*
X105346500Y-101476500D03*
X101346000Y-77241400D03*
X104838500Y-110299501D03*
X124460006Y-112014000D03*
X124078994Y-110363000D03*
X108331000Y-110363000D03*
X125857000Y-111125000D03*
X107188004Y-110363000D03*
X105410000Y-108204000D03*
X124841000Y-108839000D03*
X123386306Y-109670306D03*
X106299000Y-109601000D03*
X135636000Y-82232500D03*
D36*
X150388500Y-72492500D02*
X150388500Y-71729600D01*
X150388500Y-71729600D02*
X150388500Y-70294500D01*
X150388500Y-73342500D02*
X150388500Y-72492500D01*
X103080000Y-105257000D02*
X104205000Y-105257000D01*
X104205000Y-105257000D02*
X107378500Y-102083500D01*
X107378500Y-102083500D02*
X107378500Y-99352165D01*
X107378500Y-99352165D02*
X108973384Y-97757281D01*
X108973384Y-97757281D02*
X109273383Y-97457282D01*
X143076000Y-102037000D02*
X142051000Y-102037000D01*
X142051000Y-102037000D02*
X140970000Y-100956000D01*
X140970000Y-100956000D02*
X140970000Y-100476000D01*
X108712000Y-114300000D02*
X108712000Y-114147600D01*
X108712000Y-114147600D02*
X111480600Y-111379000D01*
X111480600Y-111379000D02*
X115570000Y-111379000D01*
X115570000Y-111379000D02*
X118166957Y-108782043D01*
X118166957Y-108782043D02*
X118166957Y-102405264D01*
X118166957Y-102405264D02*
X118166957Y-101981000D01*
D37*
X144317999Y-78277999D02*
X144018000Y-77978000D01*
X147193000Y-88138000D02*
X147193000Y-81153000D01*
X148971000Y-89916000D02*
X147193000Y-88138000D01*
X148971000Y-92329000D02*
X148971000Y-89916000D01*
X147193000Y-81153000D02*
X144317999Y-78277999D01*
D36*
X140589000Y-96393000D02*
X141559001Y-97363001D01*
X139805000Y-96393000D02*
X140589000Y-96393000D01*
X141559001Y-97363001D02*
X141859000Y-97663000D01*
X139680000Y-96393000D02*
X139805000Y-96393000D01*
X137033000Y-110744000D02*
X137287000Y-110490000D01*
X137287000Y-110490000D02*
X137287000Y-109855000D01*
X137287000Y-109855000D02*
X137922000Y-109220000D01*
X137922000Y-109220000D02*
X139065000Y-109220000D01*
X139065000Y-109220000D02*
X139700000Y-109855000D01*
X139700000Y-109855000D02*
X139700000Y-110618000D01*
D37*
X132334000Y-107348000D02*
X132334000Y-108377000D01*
X132334000Y-108377000D02*
X135209000Y-111252000D01*
X135209000Y-111252000D02*
X136525000Y-111252000D01*
X136525000Y-111252000D02*
X137033000Y-110744000D01*
D36*
X131064000Y-101948000D02*
X131064000Y-102973000D01*
X131064000Y-102973000D02*
X132334000Y-104243000D01*
X132334000Y-104243000D02*
X132334000Y-106323000D01*
X132334000Y-106323000D02*
X132334000Y-107348000D01*
X129794000Y-101948000D02*
X131064000Y-101948000D01*
X127635000Y-103271000D02*
X127635000Y-103146000D01*
X127635000Y-103146000D02*
X128833000Y-101948000D01*
X128833000Y-101948000D02*
X129244000Y-101948000D01*
X129244000Y-101948000D02*
X129794000Y-101948000D01*
X125476000Y-103271000D02*
X127635000Y-103271000D01*
X125603000Y-101219000D02*
X125603000Y-103144000D01*
X125603000Y-103144000D02*
X125476000Y-103271000D01*
X148971000Y-92329000D02*
X149098000Y-92329000D01*
X140970000Y-100476000D02*
X140970000Y-97558000D01*
X140970000Y-97558000D02*
X139805000Y-96393000D01*
D37*
X142240000Y-81006000D02*
X141361000Y-81006000D01*
X141361000Y-81006000D02*
X141341000Y-81026000D01*
X141341000Y-81026000D02*
X140462000Y-81026000D01*
X142367000Y-82804000D02*
X142367000Y-81133000D01*
X142367000Y-81133000D02*
X142240000Y-81006000D01*
D36*
X135763000Y-77978000D02*
X137414000Y-77978000D01*
X137414000Y-77978000D02*
X140462000Y-81026000D01*
X129794000Y-77978000D02*
X129032000Y-77216000D01*
X131953000Y-77978000D02*
X129794000Y-77978000D01*
X133477000Y-81788000D02*
X134112000Y-81788000D01*
X134112000Y-81788000D02*
X136017000Y-83693000D01*
X136017000Y-83693000D02*
X136017000Y-84533000D01*
X130937000Y-84533000D02*
X130937000Y-83533000D01*
X132682000Y-81788000D02*
X133477000Y-81788000D01*
X130937000Y-83533000D02*
X132682000Y-81788000D01*
X132207000Y-84533000D02*
X132207000Y-83533000D01*
X132207000Y-83533000D02*
X133063000Y-82677000D01*
X133063000Y-82677000D02*
X133477000Y-82677000D01*
X133477000Y-81788000D02*
X133477000Y-82677000D01*
X133477000Y-82677000D02*
X133477000Y-84533000D01*
X134747000Y-83533000D02*
X133891000Y-82677000D01*
X134747000Y-84533000D02*
X134747000Y-83533000D01*
X133891000Y-82677000D02*
X133477000Y-82677000D01*
X133477000Y-80645000D02*
X133477000Y-81788000D01*
X135509000Y-78613000D02*
X133477000Y-80645000D01*
X135509000Y-77978000D02*
X134620000Y-77978000D01*
X135763000Y-77978000D02*
X135509000Y-77978000D01*
X135509000Y-77978000D02*
X135509000Y-78613000D01*
X131953000Y-77978000D02*
X130937000Y-76962000D01*
X130937000Y-76962000D02*
X130937000Y-75233000D01*
X132969000Y-77978000D02*
X131953000Y-77978000D01*
X132969000Y-77978000D02*
X132207000Y-77216000D01*
X132207000Y-77216000D02*
X132207000Y-75233000D01*
X134620000Y-77978000D02*
X132969000Y-77978000D01*
X134620000Y-77978000D02*
X133477000Y-76835000D01*
X133477000Y-76835000D02*
X133477000Y-75233000D01*
X135763000Y-77978000D02*
X134747000Y-76962000D01*
X134747000Y-76962000D02*
X134747000Y-75233000D01*
X109273383Y-97457282D02*
X108359282Y-97457282D01*
X108359282Y-97457282D02*
X107549000Y-96647000D01*
X113284000Y-101834000D02*
X112409000Y-101834000D01*
X112409000Y-101834000D02*
X111282000Y-100707000D01*
X111282000Y-100707000D02*
X110280000Y-100707000D01*
X114935000Y-107823000D02*
X113391000Y-107823000D01*
X113391000Y-107823000D02*
X113284000Y-107930000D01*
X114935000Y-101600000D02*
X113518000Y-101600000D01*
X113518000Y-101600000D02*
X113284000Y-101834000D01*
X102977000Y-72503000D02*
X102977000Y-71628000D01*
X104603912Y-74129912D02*
X102977000Y-72503000D01*
X104603912Y-80347088D02*
X104603912Y-74129912D01*
X103080000Y-80746000D02*
X104205000Y-80746000D01*
X104205000Y-80746000D02*
X104603912Y-80347088D01*
X113284000Y-78075000D02*
X113284000Y-78212000D01*
X111405000Y-76196000D02*
X113284000Y-78075000D01*
X110280000Y-76196000D02*
X111405000Y-76196000D01*
X96901000Y-104267000D02*
X96901000Y-100858000D01*
X96901000Y-100858000D02*
X97175000Y-100584000D01*
X96901000Y-104267000D02*
X96901000Y-107676000D01*
X96901000Y-107676000D02*
X97175000Y-107950000D01*
X101346000Y-105866000D02*
X101346000Y-106172000D01*
X103080000Y-105257000D02*
X101955000Y-105257000D01*
X101955000Y-105257000D02*
X101346000Y-105866000D01*
X96647000Y-79756000D02*
X96647000Y-82911000D01*
X96647000Y-82911000D02*
X97175000Y-83439000D01*
X96647000Y-79756000D02*
X96647000Y-76601000D01*
X96647000Y-76601000D02*
X97175000Y-76073000D01*
X113284000Y-78212000D02*
X114534000Y-78212000D01*
X114534000Y-78212000D02*
X114935000Y-78613000D01*
X113284000Y-83546000D02*
X114788000Y-83546000D01*
X114788000Y-83546000D02*
X114935000Y-83693000D01*
X101473000Y-81228000D02*
X101473000Y-81915000D01*
X103080000Y-80746000D02*
X101955000Y-80746000D01*
X101955000Y-80746000D02*
X101473000Y-81228000D01*
X102997000Y-70231000D02*
X102997000Y-71608000D01*
X102997000Y-71608000D02*
X102977000Y-71628000D01*
X102977000Y-71628000D02*
X103102000Y-71628000D01*
X145991600Y-68199000D02*
X145288000Y-68199000D01*
X145288000Y-68199000D02*
X141998200Y-64909200D01*
X141998200Y-64909200D02*
X141770800Y-64909200D01*
X145986500Y-70468500D02*
X145830300Y-70468500D01*
X141706600Y-66344800D02*
X140666400Y-66344800D01*
X145830300Y-70468500D02*
X141706600Y-66344800D01*
X140666400Y-66344800D02*
X139230800Y-64909200D01*
X99497000Y-69469000D02*
X99558510Y-69407490D01*
X99558510Y-69407490D02*
X105255267Y-69407490D01*
X105255267Y-69407490D02*
X105740200Y-69407490D01*
X148336000Y-96085692D02*
X148336000Y-96837500D01*
X148336000Y-96837500D02*
X144406500Y-100767000D01*
X144406500Y-100767000D02*
X143076000Y-100767000D01*
X142240000Y-76581002D02*
X142239998Y-76581000D01*
X142240000Y-78506000D02*
X142240000Y-76581002D01*
D37*
X148336000Y-96085692D02*
X148336000Y-90233500D01*
X148336000Y-90233500D02*
X146558000Y-88455500D01*
X146558000Y-88455500D02*
X146558000Y-82949000D01*
X146558000Y-82949000D02*
X142240000Y-78631000D01*
X142240000Y-78631000D02*
X142240000Y-78506000D01*
D36*
X142240000Y-78506000D02*
X140863000Y-78506000D01*
X140863000Y-78506000D02*
X138557000Y-76200000D01*
X138557000Y-76200000D02*
X138557000Y-75233000D01*
X113284000Y-81046000D02*
X114153000Y-81046000D01*
X114153000Y-81046000D02*
X115697000Y-79502000D01*
X103080000Y-74896000D02*
X101947000Y-74896000D01*
X101947000Y-74896000D02*
X100477000Y-73426000D01*
X100477000Y-73426000D02*
X100477000Y-71628000D01*
X100477000Y-72156000D02*
X100477000Y-71628000D01*
X99497000Y-69469000D02*
X100477000Y-70449000D01*
X100477000Y-70449000D02*
X100477000Y-71628000D01*
X96050800Y-66022800D02*
X99497000Y-69469000D01*
X96050800Y-64909200D02*
X96050800Y-66022800D01*
X110280000Y-80746000D02*
X112984000Y-80746000D01*
X112984000Y-80746000D02*
X113284000Y-81046000D01*
X141050000Y-104203500D02*
X140601700Y-104203500D01*
X140601700Y-104203500D02*
X139268200Y-105537000D01*
X139268200Y-105537000D02*
X137886000Y-105537000D01*
X137886000Y-105537000D02*
X136790000Y-106633000D01*
X136790000Y-106633000D02*
X135890000Y-106633000D01*
X139649200Y-101041200D02*
X139395200Y-100787200D01*
X139395200Y-100787200D02*
X139395200Y-98145600D01*
X139395200Y-98145600D02*
X138633200Y-97383600D01*
X138633200Y-97383600D02*
X138295600Y-97383600D01*
X138295600Y-97383600D02*
X137305000Y-96393000D01*
X137305000Y-96393000D02*
X137180000Y-96393000D01*
X139649200Y-101041200D02*
X139375000Y-100767000D01*
X139375000Y-100767000D02*
X137676000Y-100767000D01*
X141050000Y-104203500D02*
X141050000Y-102442000D01*
X141050000Y-102442000D02*
X139649200Y-101041200D01*
X135810400Y-97637600D02*
X132887400Y-97637600D01*
X132887400Y-97637600D02*
X130957000Y-99568000D01*
X130957000Y-99568000D02*
X130857000Y-99568000D01*
X137180000Y-96393000D02*
X137055000Y-96393000D01*
X137055000Y-96393000D02*
X135810400Y-97637600D01*
X116332000Y-93980000D02*
X116332000Y-92714000D01*
X115062000Y-91444000D02*
X115062000Y-88519000D01*
X116332000Y-92714000D02*
X115062000Y-91444000D01*
X115062000Y-88519000D02*
X118364000Y-85217000D01*
X118364000Y-85217000D02*
X118364000Y-71867013D01*
X118364000Y-71867013D02*
X116446991Y-69950004D01*
X116446991Y-69950004D02*
X116446991Y-69797604D01*
X141050000Y-104250500D02*
X141050000Y-104203500D01*
X135762992Y-96393000D02*
X135508992Y-96139000D01*
X137180000Y-96393000D02*
X135762992Y-96393000D01*
X125222000Y-107569000D02*
X125222000Y-106025000D01*
X125222000Y-106025000D02*
X125476000Y-105771000D01*
X127635000Y-105771000D02*
X127635000Y-105896000D01*
X127635000Y-105896000D02*
X129087000Y-107348000D01*
X129087000Y-107348000D02*
X129244000Y-107348000D01*
X129244000Y-107348000D02*
X129794000Y-107348000D01*
X125476000Y-105771000D02*
X127635000Y-105771000D01*
X115041996Y-99334000D02*
X115062000Y-99313996D01*
X113284000Y-99334000D02*
X115041996Y-99334000D01*
X110280000Y-100057000D02*
X112561000Y-100057000D01*
X112561000Y-100057000D02*
X113284000Y-99334000D01*
X113284000Y-72009008D02*
X113284000Y-72009000D01*
X113284000Y-75712000D02*
X113284000Y-72009000D01*
X100425487Y-68675487D02*
X104472254Y-68675487D01*
X104472254Y-68675487D02*
X104896518Y-68675487D01*
X97402199Y-63720599D02*
X97402199Y-65652199D01*
X97402199Y-65652199D02*
X100425487Y-68675487D01*
X96050800Y-62369200D02*
X97402199Y-63720599D01*
X110280000Y-75546000D02*
X113118000Y-75546000D01*
X113118000Y-75546000D02*
X113284000Y-75712000D01*
X113792000Y-93980000D02*
X113792000Y-92710000D01*
X113792000Y-92710000D02*
X112522000Y-91440000D01*
X112522000Y-91440000D02*
X112522000Y-89408000D01*
X113411000Y-88519000D02*
X114046000Y-88519000D01*
X112522000Y-89408000D02*
X113411000Y-88519000D01*
X114046000Y-88519000D02*
X117729000Y-84836000D01*
X117729000Y-84836000D02*
X117729000Y-73660000D01*
X113911000Y-69842000D02*
X113911000Y-69713000D01*
X117729000Y-73660000D02*
X113911000Y-69842000D01*
X118991000Y-69713000D02*
X118999000Y-69721000D01*
X118999000Y-69721000D02*
X118999000Y-86107413D01*
X117602000Y-91440000D02*
X118872000Y-92710000D01*
X118999000Y-86107413D02*
X117602000Y-87504413D01*
X117602000Y-87504413D02*
X117602000Y-91440000D01*
X118872000Y-92710000D02*
X118872000Y-93980000D01*
X121412000Y-93980000D02*
X121412000Y-92714000D01*
X121412000Y-92714000D02*
X119786674Y-91088674D01*
X119786674Y-91088674D02*
X120060610Y-90814738D01*
X120060610Y-90814738D02*
X120060610Y-89525262D01*
X120060610Y-89525262D02*
X119634000Y-89098652D01*
X119634000Y-89098652D02*
X119634000Y-71610000D01*
X119634000Y-71610000D02*
X121531000Y-69713000D01*
X123952000Y-93980000D02*
X123952000Y-92714000D01*
X123952000Y-92714000D02*
X122682000Y-91444000D01*
X122682000Y-91444000D02*
X122682000Y-87884000D01*
X122682000Y-87884000D02*
X120269000Y-85471000D01*
X120269000Y-85471000D02*
X120269000Y-73279000D01*
X120269000Y-73279000D02*
X123835000Y-69713000D01*
X123835000Y-69713000D02*
X124071000Y-69713000D01*
X126492000Y-93980000D02*
X126492000Y-92714000D01*
X126492000Y-92714000D02*
X125222000Y-91444000D01*
X125222000Y-91444000D02*
X125222000Y-89409411D01*
X126611000Y-69858000D02*
X126611000Y-69713000D01*
X125222000Y-89409411D02*
X120904000Y-85091411D01*
X120904000Y-85091411D02*
X120904000Y-75565000D01*
X120904000Y-75565000D02*
X126611000Y-69858000D01*
X129032000Y-93980000D02*
X129032000Y-92714000D01*
X129032000Y-92714000D02*
X127762000Y-91444000D01*
X127762000Y-91444000D02*
X127762000Y-89154000D01*
X127762000Y-89154000D02*
X126619000Y-88011000D01*
X126619000Y-88011000D02*
X124714000Y-88011000D01*
X124714000Y-88011000D02*
X121666000Y-84963000D01*
X121666000Y-84963000D02*
X121666000Y-75692000D01*
X121666000Y-75692000D02*
X125603000Y-71755000D01*
X125603000Y-71755000D02*
X127109000Y-71755000D01*
X127109000Y-71755000D02*
X129151000Y-69713000D01*
X123952000Y-114300000D02*
X123952000Y-113034000D01*
X123952000Y-113034000D02*
X121066945Y-110148945D01*
X121066945Y-110148945D02*
X121066945Y-98897055D01*
X121066945Y-98897055D02*
X125222000Y-94742000D01*
X123952000Y-91436000D02*
X123952000Y-90170000D01*
X125222000Y-94742000D02*
X125222000Y-92710000D01*
X125222000Y-92710000D02*
X123952000Y-91440000D01*
X123952000Y-91440000D02*
X123952000Y-91436000D01*
X121412000Y-114300000D02*
X121412000Y-113034000D01*
X121412000Y-113034000D02*
X120616934Y-112238934D01*
X120616934Y-112238934D02*
X120616934Y-98458066D01*
X120616934Y-98458066D02*
X122682000Y-96393000D01*
X122682000Y-96393000D02*
X122682000Y-92710000D01*
X122682000Y-92710000D02*
X121412000Y-91440000D01*
X121412000Y-91436000D02*
X121412000Y-90170000D01*
X121412000Y-91440000D02*
X121412000Y-91436000D01*
X118872000Y-90170000D02*
X118872000Y-91440000D01*
X118872000Y-91440000D02*
X120142000Y-92710000D01*
X120142000Y-92710000D02*
X120142000Y-110363000D01*
X118872000Y-113034000D02*
X118872000Y-114300000D01*
X120142000Y-110363000D02*
X118872000Y-111633000D01*
X118872000Y-111633000D02*
X118872000Y-113034000D01*
X116332000Y-90170000D02*
X116332000Y-91440000D01*
X116332000Y-91440000D02*
X117602000Y-92710000D01*
X117602000Y-92710000D02*
X117602000Y-95123000D01*
X117602000Y-95123000D02*
X119691989Y-97212989D01*
X119691989Y-97212989D02*
X119691989Y-109924011D01*
X117445600Y-113034000D02*
X116332000Y-114147600D01*
X119691989Y-109924011D02*
X117445600Y-112170400D01*
X117445600Y-112170400D02*
X117445600Y-113034000D01*
X116332000Y-114147600D02*
X116332000Y-114300000D01*
X113792000Y-114300000D02*
X113792000Y-114147600D01*
X113792000Y-114147600D02*
X115163600Y-112776000D01*
X115163600Y-112776000D02*
X115951000Y-112776000D01*
X119241978Y-109485022D02*
X119241978Y-98723326D01*
X119241978Y-98723326D02*
X115062000Y-94543348D01*
X115951000Y-112776000D02*
X119241978Y-109485022D01*
X115062000Y-94543348D02*
X115062000Y-92706000D01*
X115062000Y-92706000D02*
X113792000Y-91436000D01*
X113792000Y-91436000D02*
X113792000Y-90170000D01*
X111252000Y-114300000D02*
X111252000Y-114147600D01*
X111252000Y-114147600D02*
X113385600Y-112014000D01*
X118791967Y-109046033D02*
X118791967Y-98979967D01*
X118791967Y-98979967D02*
X115316000Y-95504000D01*
X113385600Y-112014000D02*
X115824000Y-112014000D01*
X113284000Y-95504000D02*
X112522000Y-94742000D01*
X111252000Y-91440000D02*
X111252000Y-91436000D01*
X111252000Y-91436000D02*
X111252000Y-90170000D01*
X115824000Y-112014000D02*
X118791967Y-109046033D01*
X115316000Y-95504000D02*
X113284000Y-95504000D01*
X112522000Y-94742000D02*
X112522000Y-92710000D01*
X112522000Y-92710000D02*
X111252000Y-91440000D01*
X111252000Y-93980000D02*
X111252000Y-92710000D01*
X111252000Y-92710000D02*
X109982000Y-91440000D01*
X111506000Y-87884000D02*
X113665000Y-87884000D01*
X113665000Y-87884000D02*
X117094000Y-84455000D01*
X117094000Y-84455000D02*
X117094000Y-74000672D01*
X109982000Y-91440000D02*
X109982000Y-89408000D01*
X109982000Y-89408000D02*
X111506000Y-87884000D01*
X117094000Y-74000672D02*
X114467328Y-71374000D01*
X114467328Y-71374000D02*
X113032000Y-71374000D01*
X113032000Y-71374000D02*
X111371000Y-69713000D01*
X106172000Y-90170000D02*
X106172000Y-90805000D01*
X106172000Y-90805000D02*
X111379000Y-96012000D01*
X111379000Y-96012000D02*
X115062000Y-96012000D01*
X106172000Y-114147600D02*
X106172000Y-114300000D01*
X115062000Y-96012000D02*
X117541956Y-98491956D01*
X117541956Y-98491956D02*
X117541956Y-108518044D01*
X117541956Y-108518044D02*
X115316000Y-110744000D01*
X111125000Y-110744000D02*
X109347000Y-112522000D01*
X115316000Y-110744000D02*
X111125000Y-110744000D01*
X109347000Y-112522000D02*
X107797600Y-112522000D01*
X107797600Y-112522000D02*
X106172000Y-114147600D01*
X99675000Y-76073000D02*
X99675000Y-77968000D01*
X99675000Y-77968000D02*
X99187000Y-78456000D01*
X101798000Y-79446000D02*
X100808000Y-78456000D01*
X100808000Y-78456000D02*
X99187000Y-78456000D01*
X103080000Y-79446000D02*
X101798000Y-79446000D01*
X99675000Y-83439000D02*
X99675000Y-81544000D01*
X99675000Y-81544000D02*
X99187000Y-81056000D01*
X103080000Y-80096000D02*
X101955000Y-80096000D01*
X101955000Y-80096000D02*
X100995000Y-81056000D01*
X100995000Y-81056000D02*
X99187000Y-81056000D01*
X99675000Y-100584000D02*
X99675000Y-102479000D01*
X99675000Y-102479000D02*
X99187000Y-102967000D01*
X101163000Y-103957000D02*
X100173000Y-102967000D01*
X100173000Y-102967000D02*
X99187000Y-102967000D01*
X103080000Y-103957000D02*
X101163000Y-103957000D01*
X99675000Y-107950000D02*
X99675000Y-106055000D01*
X99675000Y-106055000D02*
X99187000Y-105567000D01*
X101260000Y-104607000D02*
X100300000Y-105567000D01*
X100300000Y-105567000D02*
X99187000Y-105567000D01*
X103080000Y-104607000D02*
X101260000Y-104607000D01*
X110280000Y-74896000D02*
X109262466Y-74896000D01*
X109262466Y-74896000D02*
X108712000Y-75446466D01*
X108712000Y-75446466D02*
X108712000Y-79003000D01*
X108712000Y-79003000D02*
X109155000Y-79446000D01*
X109155000Y-79446000D02*
X110280000Y-79446000D01*
X110280000Y-80096000D02*
X111405000Y-80096000D01*
X111405000Y-80096000D02*
X111887000Y-79614000D01*
X111887000Y-79614000D02*
X111887000Y-78105000D01*
X111887000Y-78105000D02*
X111252000Y-77470000D01*
X111252000Y-77470000D02*
X110306000Y-77470000D01*
X110306000Y-77470000D02*
X110280000Y-77496000D01*
X110280000Y-104607000D02*
X111405000Y-104607000D01*
X112014000Y-102616000D02*
X111405000Y-102007000D01*
X111405000Y-104607000D02*
X112014000Y-103998000D01*
X112014000Y-103998000D02*
X112014000Y-102616000D01*
X111405000Y-102007000D02*
X110280000Y-102007000D01*
X110280000Y-99407000D02*
X109155000Y-99407000D01*
X109155000Y-99407000D02*
X108712000Y-99850000D01*
X108712000Y-99850000D02*
X108712000Y-103514000D01*
X108712000Y-103514000D02*
X109155000Y-103957000D01*
X109155000Y-103957000D02*
X110280000Y-103957000D01*
X145161000Y-90932000D02*
X145034000Y-91059000D01*
X145161000Y-85852000D02*
X145161000Y-90932000D01*
X113284000Y-105430000D02*
X113284000Y-104430000D01*
X113284000Y-104430000D02*
X115824000Y-101890000D01*
X115824000Y-101890000D02*
X115824000Y-99187000D01*
X115824000Y-99187000D02*
X114173000Y-97536000D01*
X110490000Y-97536000D02*
X107315006Y-94361006D01*
X104183264Y-94361006D02*
X103759000Y-94361006D01*
X114173000Y-97536000D02*
X110490000Y-97536000D01*
X107315006Y-94361006D02*
X104183264Y-94361006D01*
X103632000Y-114300000D02*
X103632000Y-114147600D01*
X116967000Y-108204000D02*
X116967000Y-98806000D01*
X103632000Y-114147600D02*
X105061589Y-112718011D01*
X103632000Y-90322400D02*
X103632000Y-90170000D01*
X105061589Y-112718011D02*
X106610989Y-112718011D01*
X107696000Y-93091000D02*
X106400600Y-93091000D01*
X106610989Y-112718011D02*
X107442000Y-111887000D01*
X111125000Y-96520000D02*
X107696000Y-93091000D01*
X107442000Y-111887000D02*
X109093000Y-111887000D01*
X109093000Y-111887000D02*
X110871000Y-110109000D01*
X110871000Y-110109000D02*
X115062000Y-110109000D01*
X115062000Y-110109000D02*
X116967000Y-108204000D01*
X116967000Y-98806000D02*
X114681000Y-96520000D01*
X114681000Y-96520000D02*
X111125000Y-96520000D01*
X106400600Y-93091000D02*
X103632000Y-90322400D01*
X103759000Y-94361006D02*
X105049000Y-95651006D01*
X105049000Y-95651006D02*
X105049000Y-96647000D01*
X103080000Y-99407000D02*
X103730000Y-99407000D01*
X105049000Y-98088000D02*
X105049000Y-96647000D01*
X103730000Y-99407000D02*
X105049000Y-98088000D01*
X110280000Y-105257000D02*
X113111000Y-105257000D01*
X113111000Y-105257000D02*
X113284000Y-105430000D01*
X118873410Y-68199000D02*
X120966717Y-66105693D01*
X108204000Y-81095000D02*
X108204000Y-75318055D01*
X110742040Y-68199000D02*
X118873410Y-68199000D01*
X110280000Y-82046000D02*
X109155000Y-82046000D01*
X109578323Y-69362717D02*
X110742040Y-68199000D01*
X120966717Y-66105693D02*
X124496579Y-66105693D01*
X124496579Y-66105693D02*
X125222000Y-65380272D01*
X125222000Y-65380272D02*
X125222000Y-63600400D01*
X125222000Y-63600400D02*
X124854399Y-63232799D01*
X108204000Y-75318055D02*
X109578323Y-73943732D01*
X124854399Y-63232799D02*
X123990800Y-62369200D01*
X109155000Y-82046000D02*
X108204000Y-81095000D01*
X109578323Y-73943732D02*
X109578323Y-69362717D01*
X103080000Y-83346000D02*
X104205000Y-83346000D01*
X104205000Y-83346000D02*
X105503934Y-82047066D01*
X105503934Y-82047066D02*
X105503934Y-71408476D01*
X105503934Y-71408476D02*
X110063443Y-66848967D01*
X110063443Y-66848967D02*
X116412033Y-66848967D01*
X118433870Y-63627000D02*
X122708600Y-63627000D01*
X116412033Y-66848967D02*
X117559401Y-65701599D01*
X122708600Y-63627000D02*
X123127201Y-64045601D01*
X117559401Y-65701599D02*
X117559401Y-64501469D01*
X117559401Y-64501469D02*
X118433870Y-63627000D01*
X123127201Y-64045601D02*
X123990800Y-64909200D01*
X103080000Y-82696000D02*
X104205000Y-82696000D01*
X109877043Y-66398956D02*
X114195044Y-66398956D01*
X115062000Y-65532000D02*
X115062000Y-64389000D01*
X120262199Y-61180599D02*
X120587201Y-61505601D01*
X104205000Y-82696000D02*
X105053923Y-81847077D01*
X117094000Y-63627000D02*
X117602000Y-63119000D01*
X117602000Y-61918870D02*
X118340271Y-61180599D01*
X105053923Y-81847077D02*
X105053923Y-71222076D01*
X105053923Y-71222076D02*
X109877043Y-66398956D01*
X118340271Y-61180599D02*
X120262199Y-61180599D01*
X114195044Y-66398956D02*
X115062000Y-65532000D01*
X115062000Y-64389000D02*
X115824000Y-63627000D01*
X115824000Y-63627000D02*
X117094000Y-63627000D01*
X117602000Y-63119000D02*
X117602000Y-61918870D01*
X120587201Y-61505601D02*
X121450800Y-62369200D01*
X107753989Y-75131655D02*
X109175912Y-73709732D01*
X109155000Y-82696000D02*
X107753989Y-81294989D01*
X109175912Y-69128717D02*
X110555640Y-67748989D01*
X120587201Y-65772799D02*
X121450800Y-64909200D01*
X110280000Y-82696000D02*
X109155000Y-82696000D01*
X107753989Y-81294989D02*
X107753989Y-75131655D01*
X118611011Y-67748989D02*
X120587201Y-65772799D01*
X109175912Y-73709732D02*
X109175912Y-69128717D01*
X110555640Y-67748989D02*
X118611011Y-67748989D01*
X117742336Y-67298978D02*
X118910800Y-66130514D01*
X107303978Y-81494978D02*
X107303978Y-74945263D01*
X110280000Y-83346000D02*
X109155000Y-83346000D01*
X110249843Y-67298978D02*
X117742336Y-67298978D01*
X108773501Y-68775320D02*
X110249843Y-67298978D01*
X118910800Y-66130514D02*
X118910800Y-64909200D01*
X107303978Y-74945263D02*
X108773501Y-73475740D01*
X108773501Y-73475740D02*
X108773501Y-68775320D01*
X109155000Y-83346000D02*
X107303978Y-81494978D01*
X112644991Y-86317604D02*
X111303981Y-84976594D01*
X111303981Y-84976594D02*
X110176361Y-84976594D01*
X106853967Y-81654200D02*
X106853967Y-74603633D01*
X110176361Y-84976594D02*
X106853967Y-81654200D01*
X106853967Y-74603633D02*
X108240101Y-73217499D01*
X108240101Y-73217499D02*
X108240101Y-71638699D01*
X108240101Y-71638699D02*
X108077000Y-71475598D01*
X113295398Y-63627000D02*
X110109000Y-63627000D01*
X114427000Y-63627000D02*
X113295398Y-63627000D01*
X115684800Y-62369200D02*
X114427000Y-63627000D01*
X116370800Y-62369200D02*
X115684800Y-62369200D01*
X109990000Y-86370000D02*
X109990000Y-86217600D01*
X109990000Y-86217600D02*
X106403956Y-82631556D01*
X106403956Y-82631556D02*
X106403956Y-73910644D01*
X107391194Y-72923406D02*
X107391194Y-72237600D01*
X106403956Y-73910644D02*
X107391194Y-72923406D01*
X102951015Y-66248001D02*
X103251014Y-66548000D01*
X102362000Y-65658986D02*
X102951015Y-66248001D01*
X102362000Y-61918870D02*
X102362000Y-65658986D01*
X112642199Y-61180599D02*
X103100271Y-61180599D01*
X113830800Y-62369200D02*
X112642199Y-61180599D01*
X103100271Y-61180599D02*
X102362000Y-61918870D01*
X106210101Y-73190097D02*
X106553000Y-72847198D01*
X105930701Y-85393894D02*
X105930701Y-73469497D01*
X105930701Y-73469497D02*
X106210101Y-73190097D01*
X101206991Y-90117604D02*
X105930701Y-85393894D01*
X101092000Y-114300000D02*
X101092000Y-114147600D01*
X114427000Y-97028000D02*
X110871000Y-97028000D01*
X101092000Y-114147600D02*
X103098600Y-112141000D01*
X116332000Y-107950000D02*
X116332000Y-98933000D01*
X103098600Y-112141000D02*
X106299000Y-112141000D01*
X110617000Y-109474000D02*
X114808000Y-109474000D01*
X106299000Y-112141000D02*
X107188000Y-111252000D01*
X108839000Y-111252000D02*
X110617000Y-109474000D01*
X107188000Y-111252000D02*
X108839000Y-111252000D01*
X114808000Y-109474000D02*
X116332000Y-107950000D01*
X116332000Y-98933000D02*
X114427000Y-97028000D01*
X107569000Y-93726000D02*
X104495600Y-93726000D01*
X110871000Y-97028000D02*
X107569000Y-93726000D01*
X104495600Y-93726000D02*
X101092000Y-90322400D01*
X101092000Y-90322400D02*
X101092000Y-90170000D01*
X101211000Y-90112611D02*
X101211000Y-90033000D01*
X134112000Y-66802000D02*
X134239000Y-66929000D01*
X122428000Y-66802000D02*
X134112000Y-66802000D01*
X107442000Y-63600400D02*
X107442000Y-65234696D01*
X106210800Y-62369200D02*
X107442000Y-63600400D01*
X107442000Y-65234696D02*
X107442000Y-65658960D01*
X122174000Y-67691000D02*
X133179736Y-67691000D01*
X121412000Y-66929000D02*
X122174000Y-67691000D01*
X133179736Y-67691000D02*
X133604000Y-67691000D01*
X106761001Y-66375001D02*
X107061000Y-66675000D01*
X106680000Y-66294000D02*
X106761001Y-66375001D01*
X105836470Y-66294000D02*
X106680000Y-66294000D01*
X104902000Y-65359530D02*
X105836470Y-66294000D01*
X104902000Y-63600400D02*
X104902000Y-65359530D01*
X103670800Y-62369200D02*
X104902000Y-63600400D01*
X139827000Y-87822906D02*
X139827000Y-85533000D01*
X140864411Y-88860316D02*
X139827000Y-87822906D01*
X140864411Y-89749317D02*
X140864411Y-88860316D01*
X145738011Y-96579400D02*
X145738011Y-94622917D01*
X139827000Y-85533000D02*
X139827000Y-84533000D01*
X145738011Y-94622917D02*
X140864411Y-89749317D01*
X145732500Y-97028000D02*
X145732500Y-97751900D01*
X145732500Y-97751900D02*
X143987400Y-99497000D01*
X143987400Y-99497000D02*
X143076000Y-99497000D01*
D37*
X139827000Y-84533000D02*
X139827000Y-85090000D01*
X145732500Y-97028000D02*
X145732500Y-96583500D01*
X145732500Y-96583500D02*
X145736600Y-96579400D01*
X145736600Y-96579400D02*
X145738011Y-96579400D01*
D36*
X139827000Y-84533000D02*
X139827000Y-84074000D01*
X139827000Y-84074000D02*
X135808999Y-80055999D01*
X135808999Y-80055999D02*
X135509000Y-79756000D01*
X105493736Y-67310000D02*
X105918000Y-67310000D01*
X102310286Y-67310000D02*
X105493736Y-67310000D01*
X101130800Y-66130514D02*
X102310286Y-67310000D01*
X101130800Y-64909200D02*
X101130800Y-66130514D01*
X145034000Y-96520000D02*
X145034000Y-94488000D01*
X140462000Y-89916000D02*
X140462000Y-89027000D01*
X140462000Y-89027000D02*
X138557000Y-87122000D01*
X145034000Y-94488000D02*
X140462000Y-89916000D01*
X138557000Y-85533000D02*
X138557000Y-84533000D01*
X138557000Y-87122000D02*
X138557000Y-85533000D01*
X105181198Y-67935010D02*
X105413067Y-68166879D01*
X101616610Y-67935010D02*
X105181198Y-67935010D01*
X98590800Y-64909200D02*
X101616610Y-67935010D01*
X105413067Y-68166879D02*
X105898000Y-68166879D01*
X145034000Y-96774000D02*
X145034000Y-97231200D01*
X145034000Y-97231200D02*
X144038200Y-98227000D01*
X144038200Y-98227000D02*
X143076000Y-98227000D01*
D37*
X145034000Y-96774000D02*
X145034000Y-96520000D01*
D36*
X134937500Y-80581500D02*
X135255000Y-80581500D01*
X135255000Y-80581500D02*
X138557000Y-83883500D01*
X138557000Y-83883500D02*
X138557000Y-84533000D01*
X139192000Y-93980000D02*
X139192000Y-92714000D01*
X139192000Y-92714000D02*
X137922000Y-91444000D01*
X124206000Y-76708000D02*
X126619000Y-74295000D01*
X137922000Y-91444000D02*
X137922000Y-89408000D01*
X137922000Y-89408000D02*
X136398000Y-87884000D01*
X125857000Y-85598000D02*
X124206000Y-83947000D01*
X136398000Y-87884000D02*
X133223000Y-87884000D01*
X133223000Y-87884000D02*
X132588000Y-87249000D01*
X132588000Y-87249000D02*
X130810000Y-87249000D01*
X126619000Y-74295000D02*
X129413000Y-74295000D01*
X130810000Y-87249000D02*
X130302000Y-86741000D01*
X130302000Y-86741000D02*
X128905000Y-86741000D01*
X128905000Y-86741000D02*
X127762000Y-85598000D01*
X129413000Y-74295000D02*
X130429000Y-73279000D01*
X135915400Y-73279000D02*
X139192000Y-70002400D01*
X127762000Y-85598000D02*
X125857000Y-85598000D01*
X124206000Y-83947000D02*
X124206000Y-76708000D01*
X130429000Y-73279000D02*
X135915400Y-73279000D01*
X139192000Y-70002400D02*
X139192000Y-69850000D01*
X149022491Y-81976904D02*
X149022491Y-81966491D01*
X149022491Y-81966491D02*
X139192000Y-72136000D01*
X139192000Y-72136000D02*
X139192000Y-69850000D01*
X136652000Y-93980000D02*
X136652000Y-92714000D01*
X123571000Y-76454000D02*
X126365000Y-73660000D01*
X136652000Y-92714000D02*
X135382000Y-91444000D01*
X129921000Y-87376000D02*
X128651000Y-87376000D01*
X135382000Y-91444000D02*
X135382000Y-89439265D01*
X132334000Y-87884000D02*
X130429000Y-87884000D01*
X134461735Y-88519000D02*
X132969000Y-88519000D01*
X135382000Y-89439265D02*
X134461735Y-88519000D01*
X132969000Y-88519000D02*
X132334000Y-87884000D01*
X126365000Y-73660000D02*
X129159000Y-73660000D01*
X130429000Y-87884000D02*
X129921000Y-87376000D01*
X128651000Y-87376000D02*
X127508000Y-86233000D01*
X127508000Y-86233000D02*
X125603000Y-86233000D01*
X125603000Y-86233000D02*
X123571000Y-84201000D01*
X123571000Y-84201000D02*
X123571000Y-76454000D01*
X129159000Y-73660000D02*
X130175000Y-72644000D01*
X130175000Y-72644000D02*
X133850354Y-72644000D01*
X133850354Y-72644000D02*
X136771000Y-69723354D01*
X136771000Y-69723354D02*
X136771000Y-69713000D01*
X149022491Y-78979704D02*
X149008195Y-78994000D01*
X149008195Y-78994000D02*
X147447000Y-78994000D01*
X147447000Y-78994000D02*
X140716000Y-72263000D01*
X140716000Y-72263000D02*
X140716000Y-68961000D01*
X140716000Y-68961000D02*
X140081000Y-68326000D01*
X140081000Y-68326000D02*
X138023600Y-68326000D01*
X138023600Y-68326000D02*
X136652000Y-69697600D01*
X136652000Y-69697600D02*
X136652000Y-69850000D01*
X139446000Y-106172000D02*
X140081000Y-105537000D01*
X138430000Y-107568000D02*
X138430000Y-106468000D01*
X138430000Y-106468000D02*
X138726000Y-106172000D01*
X138726000Y-106172000D02*
X139446000Y-106172000D01*
X140081000Y-105537000D02*
X145147397Y-105537000D01*
X145147397Y-105537000D02*
X148247793Y-102436604D01*
X148247793Y-102436604D02*
X148946292Y-101738105D01*
X139700000Y-107568000D02*
X139700000Y-107168000D01*
X139700000Y-107168000D02*
X140696000Y-106172000D01*
X140696000Y-106172000D02*
X147509597Y-106172000D01*
X147509597Y-106172000D02*
X148247793Y-105433804D01*
X148247793Y-105433804D02*
X148946292Y-104735305D01*
D38*
X103080000Y-100707000D02*
X105227000Y-100707000D01*
X105227000Y-100707000D02*
X105346500Y-100587500D01*
X103080000Y-76196000D02*
X101697600Y-76196000D01*
X101663499Y-76161899D02*
X101320600Y-75819000D01*
X101697600Y-76196000D02*
X101663499Y-76161899D01*
X91465399Y-73901301D02*
X92760800Y-72605900D01*
X94470106Y-79298345D02*
X94503250Y-79351093D01*
X93960452Y-78977305D02*
X93981027Y-79036106D01*
X92760800Y-72605900D02*
X93273532Y-72605900D01*
X93273532Y-72605900D02*
X94530801Y-73863169D01*
X94110970Y-79166049D02*
X94169771Y-79186624D01*
X94530801Y-73863169D02*
X94530801Y-78359000D01*
X94503250Y-79351093D02*
X94523825Y-79409894D01*
X94530801Y-79471800D02*
X94530801Y-84412199D01*
X94014171Y-79088854D02*
X94058222Y-79132905D01*
X94470106Y-78532454D02*
X94426055Y-78576505D01*
X94058222Y-79132905D02*
X94110970Y-79166049D01*
X93981027Y-79036106D02*
X94014171Y-79088854D01*
X94530801Y-78359000D02*
X94523825Y-78420905D01*
X94058222Y-78697894D02*
X94014171Y-78741945D01*
X94373307Y-78609649D02*
X94314506Y-78630224D01*
X94523825Y-78420905D02*
X94503250Y-78479706D01*
X94231677Y-79193600D02*
X94252601Y-79193600D01*
X94503250Y-78479706D02*
X94470106Y-78532454D01*
X94169771Y-78644175D02*
X94110970Y-78664750D01*
X94426055Y-78576505D02*
X94373307Y-78609649D01*
X94314506Y-78630224D02*
X94252601Y-78637200D01*
X94252601Y-78637200D02*
X94231677Y-78637200D01*
X94231677Y-78637200D02*
X94169771Y-78644175D01*
X94314506Y-79200575D02*
X94373307Y-79221150D01*
X94110970Y-78664750D02*
X94058222Y-78697894D01*
X94014171Y-78741945D02*
X93981027Y-78794693D01*
X93981027Y-78794693D02*
X93960452Y-78853494D01*
X93960452Y-78853494D02*
X93953477Y-78915400D01*
X93953477Y-78915400D02*
X93960452Y-78977305D01*
X94169771Y-79186624D02*
X94231677Y-79193600D01*
X94252601Y-79193600D02*
X94314506Y-79200575D01*
X94373307Y-79221150D02*
X94426055Y-79254294D01*
X94426055Y-79254294D02*
X94470106Y-79298345D01*
X94523825Y-79409894D02*
X94530801Y-79471800D01*
X94530801Y-84412199D02*
X94234000Y-84709000D01*
X94234000Y-84709000D02*
X94530801Y-85005801D01*
X94530801Y-85005801D02*
X94530801Y-90762199D01*
X94530801Y-90762199D02*
X94234000Y-91059000D01*
X88823800Y-103081168D02*
X89844532Y-104101900D01*
X89844532Y-104101900D02*
X90169998Y-104101900D01*
X90169998Y-104101900D02*
X91465399Y-105397301D01*
X88823800Y-98594832D02*
X88823800Y-103081168D01*
X89831832Y-97586800D02*
X88823800Y-98594832D01*
X92879832Y-97586800D02*
X89831832Y-97586800D01*
X94530801Y-95935831D02*
X92879832Y-97586800D01*
X94234000Y-91059000D02*
X94530801Y-91355801D01*
X94530801Y-91355801D02*
X94530801Y-95935831D01*
X103080000Y-101357000D02*
X105227000Y-101357000D01*
X105227000Y-101357000D02*
X105346500Y-101476500D01*
X95234000Y-91059000D02*
X94937199Y-91355801D01*
X101688899Y-76898501D02*
X101346000Y-77241400D01*
X101741400Y-76846000D02*
X101688899Y-76898501D01*
X103080000Y-76846000D02*
X101741400Y-76846000D01*
X94937199Y-91355801D02*
X94937199Y-96104169D01*
X94901679Y-96805803D02*
X94901680Y-96867383D01*
X94726685Y-96399532D02*
X94726685Y-96461112D01*
X94937199Y-96104169D02*
X94805500Y-96235868D01*
X94861258Y-96982901D02*
X94822862Y-97031048D01*
X94887977Y-96745766D02*
X94901679Y-96805803D01*
X90169998Y-103695502D02*
X91465399Y-102400101D01*
X94805500Y-96235868D02*
X94767106Y-96284014D01*
X94767106Y-96284014D02*
X94740388Y-96339495D01*
X94191348Y-96934870D02*
X94131313Y-96948572D01*
X94368448Y-96975291D02*
X94312965Y-96948573D01*
X94433954Y-97031048D02*
X94416593Y-97013687D01*
X94740388Y-96339495D02*
X94726685Y-96399532D01*
X94740388Y-96521149D02*
X94767106Y-96576632D01*
X94726685Y-96461112D02*
X94740388Y-96521149D01*
X89230200Y-102912832D02*
X90012870Y-103695502D01*
X94767106Y-96576632D02*
X94805501Y-96624776D01*
X94805501Y-96624776D02*
X94822863Y-96642138D01*
X94861257Y-96690285D02*
X94887977Y-96745766D01*
X94252930Y-96934869D02*
X94191348Y-96934870D01*
X94822862Y-97031048D02*
X94774717Y-97069443D01*
X89230200Y-98763168D02*
X89230200Y-102912832D01*
X94312965Y-96948573D02*
X94252930Y-96934869D01*
X94901680Y-96867383D02*
X94887976Y-96927420D01*
X94822863Y-96642138D02*
X94861257Y-96690285D01*
X94887976Y-96927420D02*
X94861258Y-96982901D01*
X94774717Y-97069443D02*
X94719236Y-97096161D01*
X94719236Y-97096161D02*
X94659199Y-97109864D01*
X94659199Y-97109864D02*
X94597619Y-97109864D01*
X94482099Y-97069443D02*
X94433954Y-97031048D01*
X94597619Y-97109864D02*
X94537582Y-97096161D01*
X94537582Y-97096161D02*
X94482099Y-97069443D01*
X94416593Y-97013687D02*
X94368448Y-96975291D01*
X94131313Y-96948572D02*
X94075830Y-96975292D01*
X94075830Y-96975292D02*
X94027684Y-97013685D01*
X94027684Y-97013685D02*
X93921619Y-97119749D01*
X93921619Y-97119749D02*
X93048168Y-97993200D01*
X93048168Y-97993200D02*
X90000168Y-97993200D01*
X90000168Y-97993200D02*
X89230200Y-98763168D01*
X90012870Y-103695502D02*
X90169998Y-103695502D01*
X95234000Y-84709000D02*
X94937199Y-85005801D01*
X94937199Y-90762199D02*
X95234000Y-91059000D01*
X94937199Y-85005801D02*
X94937199Y-90762199D01*
X93441870Y-72199502D02*
X94937199Y-73694831D01*
X94937199Y-84412199D02*
X95234000Y-84709000D01*
X94937199Y-73694831D02*
X94937199Y-84412199D01*
X91465399Y-70904101D02*
X92760800Y-72199502D01*
X92760800Y-72199502D02*
X93441870Y-72199502D01*
D36*
X124460006Y-112014000D02*
X124035742Y-112014000D01*
X124035742Y-112014000D02*
X121516956Y-109495214D01*
X121516956Y-109495214D02*
X121516956Y-99336044D01*
X121516956Y-99336044D02*
X125371044Y-95481956D01*
X125371044Y-95481956D02*
X127149044Y-95481956D01*
X127149044Y-95481956D02*
X127762000Y-94869000D01*
X127762000Y-94869000D02*
X127762000Y-92706000D01*
X127762000Y-92706000D02*
X126492000Y-91436000D01*
X126492000Y-91436000D02*
X126492000Y-90170000D01*
X104538501Y-109999502D02*
X104838500Y-110299501D01*
X103080000Y-108541001D02*
X104538501Y-109999502D01*
X103080000Y-107857000D02*
X103080000Y-108541001D01*
X126492000Y-114300000D02*
X126492000Y-114045994D01*
X126492000Y-114045994D02*
X124760005Y-112313999D01*
X124760005Y-112313999D02*
X124460006Y-112014000D01*
X130302000Y-95123000D02*
X130302000Y-92706000D01*
X130302000Y-92706000D02*
X129032000Y-91436000D01*
X125730000Y-96139000D02*
X129286000Y-96139000D01*
X124078994Y-110363000D02*
X123153996Y-110363000D01*
X129286000Y-96139000D02*
X130302000Y-95123000D01*
X123153996Y-110363000D02*
X122047000Y-109256004D01*
X129032000Y-91436000D02*
X129032000Y-90170000D01*
X122047000Y-109256004D02*
X122047000Y-99822000D01*
X122047000Y-99822000D02*
X125730000Y-96139000D01*
X126434005Y-112718011D02*
X124378993Y-110662999D01*
X128214011Y-112718011D02*
X126434005Y-112718011D01*
X129151000Y-113655000D02*
X128214011Y-112718011D01*
X124378993Y-110662999D02*
X124078994Y-110363000D01*
X110280000Y-107857000D02*
X109440000Y-107857000D01*
X109440000Y-107857000D02*
X108331000Y-108966000D01*
X108331000Y-108966000D02*
X108331000Y-110363000D01*
X131572000Y-114300000D02*
X129413000Y-112141000D01*
X129413000Y-112141000D02*
X126873000Y-112141000D01*
X126873000Y-112141000D02*
X125857000Y-111125000D01*
X132842000Y-92706000D02*
X131572000Y-91436000D01*
X126365000Y-97409000D02*
X130556000Y-97409000D01*
X125857000Y-111125000D02*
X123063000Y-108331000D01*
X123063000Y-100711000D02*
X126365000Y-97409000D01*
X123063000Y-108331000D02*
X123063000Y-100711000D01*
X130556000Y-97409000D02*
X132842000Y-95123000D01*
X132842000Y-95123000D02*
X132842000Y-92706000D01*
X131572000Y-91436000D02*
X131572000Y-90170000D01*
X107188004Y-109938736D02*
X107188004Y-110363000D01*
X107188004Y-109173996D02*
X107188004Y-109938736D01*
X110280000Y-107207000D02*
X109155000Y-107207000D01*
X109155000Y-107207000D02*
X107188004Y-109173996D01*
X134112000Y-93980000D02*
X134112000Y-92714000D01*
X125349000Y-86868000D02*
X122936000Y-84455000D01*
X134112000Y-92714000D02*
X132842000Y-91444000D01*
X129921000Y-72009000D02*
X131572000Y-72009000D01*
X132842000Y-91444000D02*
X132842000Y-89439265D01*
X122936000Y-84455000D02*
X122936000Y-76200000D01*
X132842000Y-89439265D02*
X131921735Y-88519000D01*
X128905000Y-73025000D02*
X129921000Y-72009000D01*
X127254000Y-86868000D02*
X125349000Y-86868000D01*
X131921735Y-88519000D02*
X130175000Y-88519000D01*
X130175000Y-88519000D02*
X129667000Y-88011000D01*
X128397000Y-88011000D02*
X127254000Y-86868000D01*
X129667000Y-88011000D02*
X128397000Y-88011000D01*
X131572000Y-72009000D02*
X133868000Y-69713000D01*
X122936000Y-76200000D02*
X126111000Y-73025000D01*
X126111000Y-73025000D02*
X128905000Y-73025000D01*
X133868000Y-69713000D02*
X134231000Y-69713000D01*
X124841000Y-108839000D02*
X123571000Y-107569000D01*
X134112000Y-94996000D02*
X134112000Y-93980000D01*
X123571000Y-107569000D02*
X123571000Y-101092000D01*
X123571000Y-101092000D02*
X126619000Y-98044000D01*
X126619000Y-98044000D02*
X131064000Y-98044000D01*
X131064000Y-98044000D02*
X134112000Y-94996000D01*
X104413000Y-107207000D02*
X105110001Y-107904001D01*
X103080000Y-107207000D02*
X104413000Y-107207000D01*
X105110001Y-107904001D02*
X105410000Y-108204000D01*
X131572000Y-93980000D02*
X131572000Y-92714000D01*
X131572000Y-92714000D02*
X130302000Y-91444000D01*
X130302000Y-91444000D02*
X130302000Y-89439265D01*
X126930989Y-87433989D02*
X125025989Y-87433989D01*
X130302000Y-89439265D02*
X129461768Y-88599033D01*
X129461768Y-88599033D02*
X128096033Y-88599033D01*
X128096033Y-88599033D02*
X126930989Y-87433989D01*
X125025989Y-87433989D02*
X122301000Y-84709000D01*
X125857000Y-72390000D02*
X128524000Y-72390000D01*
X122301000Y-84709000D02*
X122301000Y-75946000D01*
X122301000Y-75946000D02*
X125857000Y-72390000D01*
X128524000Y-72390000D02*
X131201000Y-69713000D01*
X131201000Y-69713000D02*
X131691000Y-69713000D01*
X122555000Y-108839000D02*
X122555000Y-100330000D01*
X130044000Y-96774000D02*
X131572000Y-95246000D01*
X123386306Y-109670306D02*
X122555000Y-108839000D01*
X122555000Y-100330000D02*
X126111000Y-96774000D01*
X126111000Y-96774000D02*
X130044000Y-96774000D01*
X131572000Y-95246000D02*
X131572000Y-93980000D01*
X110280000Y-106557000D02*
X109155000Y-106557000D01*
X109155000Y-106557000D02*
X106299000Y-109413000D01*
X106299000Y-109413000D02*
X106299000Y-109601000D01*
X135636000Y-82232500D02*
X137287000Y-83883500D01*
X137287000Y-83883500D02*
X137287000Y-84533000D01*
X138350000Y-104203500D02*
X138350000Y-102711000D01*
X138350000Y-102711000D02*
X137676000Y-102037000D01*
X134620000Y-111760000D02*
X134874000Y-112014000D01*
X134874000Y-112014000D02*
X137033000Y-112014000D01*
X137033000Y-112014000D02*
X138429000Y-110618000D01*
X138429000Y-110618000D02*
X138430000Y-110618000D01*
D37*
X131064000Y-107348000D02*
X131064000Y-108204000D01*
X131064000Y-108204000D02*
X134620000Y-111760000D01*
D36*
X137676000Y-98227000D02*
X136651000Y-98227000D01*
X136651000Y-98227000D02*
X135310000Y-99568000D01*
X135310000Y-99568000D02*
X134557000Y-99568000D01*
X134557000Y-99568000D02*
X133557000Y-99568000D01*
X133968000Y-99157000D02*
X133557000Y-99568000D01*
X133604000Y-101948000D02*
X133604000Y-100029000D01*
X137676000Y-99497000D02*
X136651000Y-99497000D01*
X136651000Y-99497000D02*
X135890000Y-100258000D01*
X135890000Y-100258000D02*
X135890000Y-101118000D01*
X135890000Y-103933000D02*
X135890000Y-101118000D01*
X133604000Y-105156000D02*
X134827000Y-103933000D01*
X134827000Y-103933000D02*
X135890000Y-103933000D01*
X133604000Y-107348000D02*
X133604000Y-105156000D01*
X145986500Y-73168500D02*
X148014500Y-73168500D01*
X148014500Y-73168500D02*
X148188500Y-73342500D01*
X148691600Y-68199000D02*
X148691600Y-69791400D01*
X148691600Y-69791400D02*
X148188500Y-70294500D01*
D37*
G36*
X150561577Y-60512817D02*
X151308263Y-61011737D01*
X151694203Y-61589337D01*
X151011136Y-60905077D01*
X149825506Y-60412761D01*
X148541726Y-60411641D01*
X147355239Y-60901887D01*
X146446677Y-61808864D01*
X145954361Y-62994494D01*
X145953241Y-64278274D01*
X146443487Y-65464761D01*
X147350464Y-66373323D01*
X148536094Y-66865639D01*
X149819874Y-66866759D01*
X151006361Y-66376513D01*
X151914923Y-65469536D01*
X151995800Y-65274762D01*
X151995800Y-111001656D01*
X151918113Y-110813639D01*
X151011136Y-109905077D01*
X149825506Y-109412761D01*
X148541726Y-109411641D01*
X147355239Y-109901887D01*
X146446677Y-110808864D01*
X145954361Y-111994494D01*
X145953241Y-113278274D01*
X146443487Y-114464761D01*
X147350464Y-115373323D01*
X147545238Y-115454200D01*
X140311950Y-115454200D01*
X140576526Y-115058234D01*
X140690600Y-114484745D01*
X140690600Y-114115255D01*
X140576526Y-113541766D01*
X140251670Y-113055585D01*
X139765489Y-112730729D01*
X139192000Y-112616655D01*
X138618511Y-112730729D01*
X138132330Y-113055585D01*
X137922000Y-113370366D01*
X137711670Y-113055585D01*
X137231235Y-112734568D01*
X137323839Y-112716148D01*
X137570401Y-112551401D01*
X138032682Y-112089120D01*
X138165000Y-112115440D01*
X138695000Y-112115440D01*
X138942765Y-112066157D01*
X139058080Y-111989106D01*
X139075301Y-112006327D01*
X139308690Y-112103000D01*
X139414250Y-112103000D01*
X139573000Y-111944250D01*
X139573000Y-110745000D01*
X139553000Y-110745000D01*
X139553000Y-110491000D01*
X139573000Y-110491000D01*
X139573000Y-109291750D01*
X139827000Y-109291750D01*
X139827000Y-110491000D01*
X139847000Y-110491000D01*
X139847000Y-110745000D01*
X139827000Y-110745000D01*
X139827000Y-111944250D01*
X139985750Y-112103000D01*
X140091310Y-112103000D01*
X140324699Y-112006327D01*
X140341920Y-111989106D01*
X140457235Y-112066157D01*
X140705000Y-112115440D01*
X141044028Y-112115440D01*
X140843376Y-112598664D01*
X140842626Y-113457567D01*
X141170622Y-114251377D01*
X141777428Y-114859244D01*
X142570664Y-115188624D01*
X143429567Y-115189374D01*
X144223377Y-114861378D01*
X144831244Y-114254572D01*
X145160624Y-113461336D01*
X145161374Y-112602433D01*
X144833378Y-111808623D01*
X144226572Y-111200756D01*
X143433336Y-110871376D01*
X142574433Y-110870626D01*
X141882440Y-111156552D01*
X141882440Y-109768000D01*
X141833157Y-109520235D01*
X141692809Y-109310191D01*
X141482765Y-109169843D01*
X141235000Y-109120560D01*
X140705000Y-109120560D01*
X140457235Y-109169843D01*
X140341920Y-109246894D01*
X140324699Y-109229673D01*
X140091310Y-109133000D01*
X139985750Y-109133000D01*
X139827000Y-109291750D01*
X139573000Y-109291750D01*
X139414250Y-109133000D01*
X139308690Y-109133000D01*
X139075301Y-109229673D01*
X139058080Y-109246894D01*
X138942765Y-109169843D01*
X138695000Y-109120560D01*
X138165000Y-109120560D01*
X137917235Y-109169843D01*
X137707191Y-109310191D01*
X137566843Y-109520235D01*
X137517560Y-109768000D01*
X137517560Y-110454638D01*
X136718198Y-111254000D01*
X135188802Y-111254000D01*
X135164512Y-111229710D01*
X135158815Y-111221184D01*
X132695630Y-108758000D01*
X132760310Y-108758000D01*
X132977028Y-108668232D01*
X133056235Y-108721157D01*
X133304000Y-108770440D01*
X133904000Y-108770440D01*
X134151765Y-108721157D01*
X134361809Y-108580809D01*
X134502157Y-108370765D01*
X134551440Y-108123000D01*
X134551440Y-106573000D01*
X134502157Y-106325235D01*
X134364000Y-106118470D01*
X134364000Y-105470802D01*
X134746864Y-105087938D01*
X134782191Y-105140809D01*
X134992235Y-105281157D01*
X135001500Y-105283000D01*
X134992235Y-105284843D01*
X134782191Y-105425191D01*
X134641843Y-105635235D01*
X134592560Y-105883000D01*
X134592560Y-107383000D01*
X134641843Y-107630765D01*
X134782191Y-107840809D01*
X134992235Y-107981157D01*
X135240000Y-108030440D01*
X136540000Y-108030440D01*
X136787765Y-107981157D01*
X136997809Y-107840809D01*
X137138157Y-107630765D01*
X137187440Y-107383000D01*
X137187440Y-107263920D01*
X137327401Y-107170401D01*
X137517560Y-106980242D01*
X137517560Y-108418000D01*
X137566843Y-108665765D01*
X137707191Y-108875809D01*
X137917235Y-109016157D01*
X138165000Y-109065440D01*
X138695000Y-109065440D01*
X138942765Y-109016157D01*
X139065000Y-108934482D01*
X139187235Y-109016157D01*
X139435000Y-109065440D01*
X139965000Y-109065440D01*
X140212765Y-109016157D01*
X140335000Y-108934482D01*
X140457235Y-109016157D01*
X140705000Y-109065440D01*
X141235000Y-109065440D01*
X141482765Y-109016157D01*
X141692809Y-108875809D01*
X141833157Y-108665765D01*
X141882440Y-108418000D01*
X141882440Y-106932000D01*
X145904894Y-106932000D01*
X145860665Y-106976152D01*
X145657224Y-107466092D01*
X145656761Y-107996591D01*
X145859346Y-108486885D01*
X146234139Y-108862332D01*
X146724079Y-109065773D01*
X147254578Y-109066236D01*
X147744872Y-108863651D01*
X148120319Y-108488858D01*
X148323760Y-107998918D01*
X148324223Y-107468419D01*
X148121638Y-106978125D01*
X147930853Y-106787007D01*
X148046998Y-106709401D01*
X148675154Y-106081245D01*
X149644792Y-106081245D01*
X149892557Y-106031962D01*
X150102601Y-105891614D01*
X150242949Y-105681570D01*
X150292232Y-105433805D01*
X150292232Y-104036805D01*
X150242949Y-103789040D01*
X150102601Y-103578996D01*
X149892557Y-103438648D01*
X149644792Y-103389365D01*
X148369834Y-103389365D01*
X148687819Y-103071380D01*
X149210378Y-103071836D01*
X149700672Y-102869251D01*
X150076119Y-102494458D01*
X150279560Y-102004518D01*
X150280023Y-101474019D01*
X150077438Y-100983725D01*
X149702645Y-100608278D01*
X149212705Y-100404837D01*
X148682206Y-100404374D01*
X148191912Y-100606959D01*
X147816465Y-100981752D01*
X147613024Y-101471692D01*
X147612566Y-101997029D01*
X144832595Y-104777000D01*
X142447440Y-104777000D01*
X142447440Y-103553500D01*
X142398157Y-103305735D01*
X142257809Y-103095691D01*
X142047765Y-102955343D01*
X141810000Y-102908049D01*
X141810000Y-102744026D01*
X141941302Y-102875327D01*
X142174691Y-102972000D01*
X142790250Y-102972000D01*
X142949000Y-102813250D01*
X142949000Y-102164000D01*
X143203000Y-102164000D01*
X143203000Y-102813250D01*
X143361750Y-102972000D01*
X143977309Y-102972000D01*
X144210698Y-102875327D01*
X144389327Y-102696699D01*
X144486000Y-102463310D01*
X144486000Y-102322750D01*
X144327250Y-102164000D01*
X143203000Y-102164000D01*
X142949000Y-102164000D01*
X142929000Y-102164000D01*
X142929000Y-101910000D01*
X142949000Y-101910000D01*
X142949000Y-101890000D01*
X143203000Y-101890000D01*
X143203000Y-101910000D01*
X144327250Y-101910000D01*
X144486000Y-101751250D01*
X144486000Y-101610690D01*
X144447922Y-101518761D01*
X144697339Y-101469148D01*
X144943901Y-101304401D01*
X147612884Y-98635418D01*
X147612561Y-99004991D01*
X147815146Y-99495285D01*
X148189939Y-99870732D01*
X148679879Y-100074173D01*
X149210378Y-100074636D01*
X149700672Y-99872051D01*
X150076119Y-99497258D01*
X150279560Y-99007318D01*
X150280023Y-98476819D01*
X150077438Y-97986525D01*
X149702645Y-97611078D01*
X149212705Y-97407637D01*
X148840989Y-97407313D01*
X148873401Y-97374901D01*
X149038148Y-97128340D01*
X149096000Y-96837500D01*
X149096000Y-96095747D01*
X149098000Y-96085692D01*
X149098000Y-90233500D01*
X149039996Y-89941895D01*
X148935161Y-89784999D01*
X148874816Y-89694685D01*
X148548435Y-89368304D01*
X148736741Y-89368304D01*
X148895491Y-89209554D01*
X148895491Y-88098304D01*
X149149491Y-88098304D01*
X149149491Y-89209554D01*
X149308241Y-89368304D01*
X149910801Y-89368304D01*
X150144190Y-89271631D01*
X150322818Y-89093002D01*
X150419491Y-88859613D01*
X150419491Y-88257054D01*
X150260741Y-88098304D01*
X149149491Y-88098304D01*
X148895491Y-88098304D01*
X147784241Y-88098304D01*
X147625491Y-88257054D01*
X147625491Y-88445361D01*
X147320000Y-88139870D01*
X147320000Y-87082995D01*
X147625491Y-87082995D01*
X147625491Y-87685554D01*
X147784241Y-87844304D01*
X148895491Y-87844304D01*
X148895491Y-86733054D01*
X149149491Y-86733054D01*
X149149491Y-87844304D01*
X150260741Y-87844304D01*
X150419491Y-87685554D01*
X150419491Y-87082995D01*
X150322818Y-86849606D01*
X150144190Y-86670977D01*
X149910801Y-86574304D01*
X149308241Y-86574304D01*
X149149491Y-86733054D01*
X148895491Y-86733054D01*
X148736741Y-86574304D01*
X148134181Y-86574304D01*
X147900792Y-86670977D01*
X147722164Y-86849606D01*
X147625491Y-87082995D01*
X147320000Y-87082995D01*
X147320000Y-85250765D01*
X147625249Y-85250765D01*
X147837481Y-85764407D01*
X148230121Y-86157733D01*
X148743391Y-86370861D01*
X149299152Y-86371346D01*
X149812794Y-86159114D01*
X150206120Y-85766474D01*
X150419248Y-85253204D01*
X150419733Y-84697443D01*
X150207501Y-84183801D01*
X149814861Y-83790475D01*
X149301591Y-83577347D01*
X148745830Y-83576862D01*
X148232188Y-83789094D01*
X147838862Y-84181734D01*
X147625734Y-84695004D01*
X147625249Y-85250765D01*
X147320000Y-85250765D01*
X147320000Y-82949000D01*
X147261996Y-82657395D01*
X147096815Y-82410185D01*
X143512440Y-78825810D01*
X143512440Y-77756000D01*
X143463157Y-77508235D01*
X143410245Y-77429047D01*
X147641363Y-81660165D01*
X147625734Y-81697804D01*
X147625249Y-82253565D01*
X147837481Y-82767207D01*
X148230121Y-83160533D01*
X148743391Y-83373661D01*
X149299152Y-83374146D01*
X149812794Y-83161914D01*
X150206120Y-82769274D01*
X150419248Y-82256004D01*
X150419733Y-81700243D01*
X150207501Y-81186601D01*
X149814861Y-80793275D01*
X149301591Y-80580147D01*
X148745830Y-80579662D01*
X148720804Y-80590002D01*
X148339591Y-80208789D01*
X148743391Y-80376461D01*
X149299152Y-80376946D01*
X149812794Y-80164714D01*
X150206120Y-79772074D01*
X150419248Y-79258804D01*
X150419733Y-78703043D01*
X150207501Y-78189401D01*
X149814861Y-77796075D01*
X149301591Y-77582947D01*
X148745830Y-77582462D01*
X148232188Y-77794694D01*
X147838862Y-78187334D01*
X147819485Y-78234000D01*
X147761802Y-78234000D01*
X146907167Y-77379365D01*
X147343352Y-77379746D01*
X147856994Y-77167514D01*
X148250320Y-76774874D01*
X148463448Y-76261604D01*
X148463933Y-75705843D01*
X148251701Y-75192201D01*
X147859061Y-74798875D01*
X147345791Y-74585747D01*
X146790030Y-74585262D01*
X146276388Y-74797494D01*
X145883062Y-75190134D01*
X145669934Y-75703404D01*
X145669551Y-76141749D01*
X142806632Y-73278830D01*
X143429567Y-73279374D01*
X144223377Y-72951378D01*
X144689060Y-72486508D01*
X144689060Y-73918500D01*
X144738343Y-74166265D01*
X144878691Y-74376309D01*
X145088735Y-74516657D01*
X145336500Y-74565940D01*
X146636500Y-74565940D01*
X146884265Y-74516657D01*
X147094309Y-74376309D01*
X147104482Y-74361084D01*
X147130691Y-74400309D01*
X147340735Y-74540657D01*
X147588500Y-74589940D01*
X148788500Y-74589940D01*
X149036265Y-74540657D01*
X149246309Y-74400309D01*
X149287154Y-74339180D01*
X149428802Y-74480827D01*
X149662191Y-74577500D01*
X150102750Y-74577500D01*
X150261500Y-74418750D01*
X150261500Y-73469500D01*
X150515500Y-73469500D01*
X150515500Y-74418750D01*
X150674250Y-74577500D01*
X151114809Y-74577500D01*
X151348198Y-74480827D01*
X151526827Y-74302199D01*
X151623500Y-74068810D01*
X151623500Y-73628250D01*
X151464750Y-73469500D01*
X150515500Y-73469500D01*
X150261500Y-73469500D01*
X150241500Y-73469500D01*
X150241500Y-73215500D01*
X150261500Y-73215500D01*
X150261500Y-72266250D01*
X150515500Y-72266250D01*
X150515500Y-73215500D01*
X151464750Y-73215500D01*
X151623500Y-73056750D01*
X151623500Y-72616190D01*
X151526827Y-72382801D01*
X151348198Y-72204173D01*
X151114809Y-72107500D01*
X150674250Y-72107500D01*
X150515500Y-72266250D01*
X150261500Y-72266250D01*
X150102750Y-72107500D01*
X149662191Y-72107500D01*
X149428802Y-72204173D01*
X149287154Y-72345820D01*
X149246309Y-72284691D01*
X149036265Y-72144343D01*
X148788500Y-72095060D01*
X147588500Y-72095060D01*
X147340735Y-72144343D01*
X147242468Y-72210003D01*
X147234657Y-72170735D01*
X147094309Y-71960691D01*
X146884265Y-71820343D01*
X146875000Y-71818500D01*
X146884265Y-71816657D01*
X147094309Y-71676309D01*
X147234657Y-71466265D01*
X147242468Y-71426997D01*
X147340735Y-71492657D01*
X147588500Y-71541940D01*
X148788500Y-71541940D01*
X149036265Y-71492657D01*
X149246309Y-71352309D01*
X149287154Y-71291180D01*
X149428802Y-71432827D01*
X149662191Y-71529500D01*
X150102750Y-71529500D01*
X150261500Y-71370750D01*
X150261500Y-70421500D01*
X150515500Y-70421500D01*
X150515500Y-71370750D01*
X150674250Y-71529500D01*
X151114809Y-71529500D01*
X151348198Y-71432827D01*
X151526827Y-71254199D01*
X151623500Y-71020810D01*
X151623500Y-70580250D01*
X151464750Y-70421500D01*
X150515500Y-70421500D01*
X150261500Y-70421500D01*
X150241500Y-70421500D01*
X150241500Y-70167500D01*
X150261500Y-70167500D01*
X150261500Y-69218250D01*
X150515500Y-69218250D01*
X150515500Y-70167500D01*
X151464750Y-70167500D01*
X151623500Y-70008750D01*
X151623500Y-69568190D01*
X151526827Y-69334801D01*
X151348198Y-69156173D01*
X151114809Y-69059500D01*
X150674250Y-69059500D01*
X150515500Y-69218250D01*
X150261500Y-69218250D01*
X150102750Y-69059500D01*
X150047169Y-69059500D01*
X150089040Y-68849000D01*
X150089040Y-67549000D01*
X150039757Y-67301235D01*
X149899409Y-67091191D01*
X149689365Y-66950843D01*
X149441600Y-66901560D01*
X147941600Y-66901560D01*
X147693835Y-66950843D01*
X147483791Y-67091191D01*
X147343443Y-67301235D01*
X147341600Y-67310500D01*
X147339757Y-67301235D01*
X147199409Y-67091191D01*
X146989365Y-66950843D01*
X146741600Y-66901560D01*
X145241600Y-66901560D01*
X145094602Y-66930800D01*
X144437802Y-66274000D01*
X144437802Y-66243018D01*
X144669826Y-66364158D01*
X145085747Y-66191888D01*
X145517621Y-65797690D01*
X145765768Y-65268227D01*
X145645269Y-65036200D01*
X144437800Y-65036200D01*
X144437800Y-65056200D01*
X144183800Y-65056200D01*
X144183800Y-65036200D01*
X144163800Y-65036200D01*
X144163800Y-64782200D01*
X144183800Y-64782200D01*
X144183800Y-64762200D01*
X144437800Y-64762200D01*
X144437800Y-64782200D01*
X145645269Y-64782200D01*
X145765768Y-64550173D01*
X145517621Y-64020710D01*
X145099639Y-63639192D01*
X145370470Y-63458229D01*
X145695326Y-62972048D01*
X145809400Y-62398559D01*
X145809400Y-62339841D01*
X145695326Y-61766352D01*
X145370470Y-61280171D01*
X144884289Y-60955315D01*
X144310800Y-60841241D01*
X143737311Y-60955315D01*
X143251130Y-61280171D01*
X143040800Y-61594952D01*
X142830470Y-61280171D01*
X142344289Y-60955315D01*
X141770800Y-60841241D01*
X141197311Y-60955315D01*
X140711130Y-61280171D01*
X140500800Y-61594952D01*
X140290470Y-61280171D01*
X139804289Y-60955315D01*
X139230800Y-60841241D01*
X138657311Y-60955315D01*
X138171130Y-61280171D01*
X137955136Y-61603428D01*
X137897621Y-61480710D01*
X137465747Y-61086512D01*
X137049826Y-60914242D01*
X136817800Y-61035383D01*
X136817800Y-62242200D01*
X136837800Y-62242200D01*
X136837800Y-62496200D01*
X136817800Y-62496200D01*
X136817800Y-62516200D01*
X136563800Y-62516200D01*
X136563800Y-62496200D01*
X136543800Y-62496200D01*
X136543800Y-62242200D01*
X136563800Y-62242200D01*
X136563800Y-61035383D01*
X136331774Y-60914242D01*
X135915853Y-61086512D01*
X135483979Y-61480710D01*
X135426464Y-61603428D01*
X135210470Y-61280171D01*
X134724289Y-60955315D01*
X134150800Y-60841241D01*
X133577311Y-60955315D01*
X133091130Y-61280171D01*
X132875136Y-61603428D01*
X132817621Y-61480710D01*
X132385747Y-61086512D01*
X131969826Y-60914242D01*
X131737800Y-61035383D01*
X131737800Y-62242200D01*
X131757800Y-62242200D01*
X131757800Y-62496200D01*
X131737800Y-62496200D01*
X131737800Y-62516200D01*
X131483800Y-62516200D01*
X131483800Y-62496200D01*
X131463800Y-62496200D01*
X131463800Y-62242200D01*
X131483800Y-62242200D01*
X131483800Y-61035383D01*
X131251774Y-60914242D01*
X130835853Y-61086512D01*
X130403979Y-61480710D01*
X130346464Y-61603428D01*
X130130470Y-61280171D01*
X129644289Y-60955315D01*
X129070800Y-60841241D01*
X128497311Y-60955315D01*
X128011130Y-61280171D01*
X127800800Y-61594952D01*
X127590470Y-61280171D01*
X127104289Y-60955315D01*
X126530800Y-60841241D01*
X125957311Y-60955315D01*
X125471130Y-61280171D01*
X125260800Y-61594952D01*
X125050470Y-61280171D01*
X124564289Y-60955315D01*
X123990800Y-60841241D01*
X123417311Y-60955315D01*
X122931130Y-61280171D01*
X122720800Y-61594952D01*
X122510470Y-61280171D01*
X122024289Y-60955315D01*
X121450800Y-60841241D01*
X121072827Y-60916425D01*
X120799600Y-60643198D01*
X120553038Y-60478451D01*
X120262199Y-60420599D01*
X118340271Y-60420599D01*
X118049432Y-60478451D01*
X117802870Y-60643198D01*
X117271870Y-61174198D01*
X116944289Y-60955315D01*
X116370800Y-60841241D01*
X115797311Y-60955315D01*
X115311130Y-61280171D01*
X115100800Y-61594952D01*
X114890470Y-61280171D01*
X114404289Y-60955315D01*
X113830800Y-60841241D01*
X113452827Y-60916425D01*
X113179600Y-60643198D01*
X112933038Y-60478451D01*
X112642199Y-60420599D01*
X103100271Y-60420599D01*
X102809432Y-60478451D01*
X102562870Y-60643198D01*
X102017527Y-61188541D01*
X101905747Y-61086512D01*
X101489826Y-60914242D01*
X101257800Y-61035383D01*
X101257800Y-62242200D01*
X101277800Y-62242200D01*
X101277800Y-62496200D01*
X101257800Y-62496200D01*
X101257800Y-62516200D01*
X101003800Y-62516200D01*
X101003800Y-62496200D01*
X100983800Y-62496200D01*
X100983800Y-62242200D01*
X101003800Y-62242200D01*
X101003800Y-61035383D01*
X100771774Y-60914242D01*
X100355853Y-61086512D01*
X99923979Y-61480710D01*
X99866464Y-61603428D01*
X99650470Y-61280171D01*
X99164289Y-60955315D01*
X98590800Y-60841241D01*
X98017311Y-60955315D01*
X97531130Y-61280171D01*
X97320800Y-61594952D01*
X97110470Y-61280171D01*
X96624289Y-60955315D01*
X96050800Y-60841241D01*
X95477311Y-60955315D01*
X94991130Y-61280171D01*
X94666274Y-61766352D01*
X94552200Y-62339841D01*
X94552200Y-62398559D01*
X94666274Y-62972048D01*
X94978704Y-63439632D01*
X94939435Y-63447443D01*
X94729391Y-63587791D01*
X94589043Y-63797835D01*
X94539760Y-64045600D01*
X94539760Y-65772800D01*
X94589043Y-66020565D01*
X94729391Y-66230609D01*
X94939435Y-66370957D01*
X95187200Y-66420240D01*
X95419880Y-66420240D01*
X95513399Y-66560201D01*
X98057471Y-69104273D01*
X97713336Y-68961376D01*
X96854433Y-68960626D01*
X96060623Y-69288622D01*
X95452756Y-69895428D01*
X95123376Y-70688664D01*
X95122626Y-71547567D01*
X95450622Y-72341377D01*
X96057428Y-72949244D01*
X96850664Y-73278624D01*
X97709567Y-73279374D01*
X98503377Y-72951378D01*
X99100006Y-72355790D01*
X99128843Y-72500765D01*
X99269191Y-72710809D01*
X99479235Y-72851157D01*
X99717000Y-72898451D01*
X99717000Y-73426000D01*
X99774852Y-73716839D01*
X99939599Y-73963401D01*
X100907711Y-74931513D01*
X100838061Y-74960291D01*
X100672765Y-74849843D01*
X100425000Y-74800560D01*
X98925000Y-74800560D01*
X98677235Y-74849843D01*
X98467191Y-74990191D01*
X98426346Y-75051320D01*
X98284698Y-74909673D01*
X98051309Y-74813000D01*
X97460750Y-74813000D01*
X97302000Y-74971750D01*
X97302000Y-75946000D01*
X97322000Y-75946000D01*
X97322000Y-76200000D01*
X97302000Y-76200000D01*
X97302000Y-77174250D01*
X97460750Y-77333000D01*
X97701585Y-77333000D01*
X97529191Y-77448191D01*
X97388843Y-77658235D01*
X97339560Y-77906000D01*
X97339560Y-79006000D01*
X97388843Y-79253765D01*
X97529191Y-79463809D01*
X97739235Y-79604157D01*
X97987000Y-79653440D01*
X100387000Y-79653440D01*
X100634765Y-79604157D01*
X100782584Y-79505386D01*
X101126698Y-79849500D01*
X100878134Y-80098064D01*
X100844809Y-80048191D01*
X100634765Y-79907843D01*
X100387000Y-79858560D01*
X97987000Y-79858560D01*
X97739235Y-79907843D01*
X97529191Y-80048191D01*
X97388843Y-80258235D01*
X97339560Y-80506000D01*
X97339560Y-81606000D01*
X97388843Y-81853765D01*
X97529191Y-82063809D01*
X97701585Y-82179000D01*
X97460750Y-82179000D01*
X97302000Y-82337750D01*
X97302000Y-83312000D01*
X97322000Y-83312000D01*
X97322000Y-83566000D01*
X97302000Y-83566000D01*
X97302000Y-84540250D01*
X97460750Y-84699000D01*
X98051309Y-84699000D01*
X98284698Y-84602327D01*
X98426346Y-84460680D01*
X98467191Y-84521809D01*
X98677235Y-84662157D01*
X98925000Y-84711440D01*
X100425000Y-84711440D01*
X100672765Y-84662157D01*
X100882809Y-84521809D01*
X101023157Y-84311765D01*
X101072440Y-84064000D01*
X101072440Y-82814000D01*
X101023157Y-82566235D01*
X100882809Y-82356191D01*
X100672765Y-82215843D01*
X100624390Y-82206221D01*
X100634765Y-82204157D01*
X100844809Y-82063809D01*
X100985157Y-81853765D01*
X100992669Y-81816000D01*
X100995000Y-81816000D01*
X101285839Y-81758148D01*
X101532401Y-81593401D01*
X101557560Y-81568242D01*
X101557560Y-81621000D01*
X101577451Y-81721000D01*
X101557560Y-81821000D01*
X101557560Y-82271000D01*
X101577451Y-82371000D01*
X101557560Y-82471000D01*
X101557560Y-82921000D01*
X101577451Y-83021000D01*
X101557560Y-83121000D01*
X101557560Y-83571000D01*
X101606843Y-83818765D01*
X101747191Y-84028809D01*
X101957235Y-84169157D01*
X102205000Y-84218440D01*
X103955000Y-84218440D01*
X104202765Y-84169157D01*
X104336403Y-84079862D01*
X104495839Y-84048148D01*
X104742401Y-83883401D01*
X105170701Y-83455101D01*
X105170701Y-85079092D01*
X101651789Y-88598004D01*
X101092000Y-88486655D01*
X100518511Y-88600729D01*
X100032330Y-88925585D01*
X99707474Y-89411766D01*
X99593400Y-89985255D01*
X99593400Y-90354745D01*
X99707474Y-90928234D01*
X100032330Y-91414415D01*
X100518511Y-91739271D01*
X101092000Y-91853345D01*
X101472464Y-91777666D01*
X103220301Y-93525503D01*
X103205788Y-93531499D01*
X102930460Y-93806347D01*
X102781270Y-94165636D01*
X102780931Y-94554669D01*
X102929493Y-94914218D01*
X103204341Y-95189546D01*
X103563630Y-95338736D01*
X103662013Y-95338822D01*
X103868881Y-95545689D01*
X103841191Y-95564191D01*
X103700843Y-95774235D01*
X103651560Y-96022000D01*
X103651560Y-97272000D01*
X103700843Y-97519765D01*
X103841191Y-97729809D01*
X104051235Y-97870157D01*
X104168680Y-97893518D01*
X103527638Y-98534560D01*
X102205000Y-98534560D01*
X101957235Y-98583843D01*
X101747191Y-98724191D01*
X101606843Y-98934235D01*
X101557560Y-99182000D01*
X101557560Y-99632000D01*
X101577451Y-99732000D01*
X101557560Y-99832000D01*
X101557560Y-100282000D01*
X101577451Y-100382000D01*
X101557560Y-100482000D01*
X101557560Y-100932000D01*
X101577451Y-101032000D01*
X101557560Y-101132000D01*
X101557560Y-101582000D01*
X101577451Y-101682000D01*
X101557560Y-101782000D01*
X101557560Y-102232000D01*
X101577451Y-102332000D01*
X101557560Y-102432000D01*
X101557560Y-102882000D01*
X101577451Y-102982000D01*
X101557560Y-103082000D01*
X101557560Y-103197000D01*
X101477802Y-103197000D01*
X101034440Y-102753638D01*
X101034440Y-102417000D01*
X100985157Y-102169235D01*
X100844809Y-101959191D01*
X100634765Y-101818843D01*
X100624390Y-101816779D01*
X100672765Y-101807157D01*
X100882809Y-101666809D01*
X101023157Y-101456765D01*
X101072440Y-101209000D01*
X101072440Y-99959000D01*
X101023157Y-99711235D01*
X100882809Y-99501191D01*
X100672765Y-99360843D01*
X100425000Y-99311560D01*
X98925000Y-99311560D01*
X98677235Y-99360843D01*
X98467191Y-99501191D01*
X98426346Y-99562320D01*
X98284698Y-99420673D01*
X98051309Y-99324000D01*
X97460750Y-99324000D01*
X97302000Y-99482750D01*
X97302000Y-100457000D01*
X97322000Y-100457000D01*
X97322000Y-100711000D01*
X97302000Y-100711000D01*
X97302000Y-101685250D01*
X97460750Y-101844000D01*
X97701585Y-101844000D01*
X97529191Y-101959191D01*
X97388843Y-102169235D01*
X97339560Y-102417000D01*
X97339560Y-103517000D01*
X97388843Y-103764765D01*
X97529191Y-103974809D01*
X97739235Y-104115157D01*
X97987000Y-104164440D01*
X100295638Y-104164440D01*
X100461698Y-104330500D01*
X100416725Y-104375473D01*
X100387000Y-104369560D01*
X97987000Y-104369560D01*
X97739235Y-104418843D01*
X97529191Y-104559191D01*
X97388843Y-104769235D01*
X97339560Y-105017000D01*
X97339560Y-106117000D01*
X97388843Y-106364765D01*
X97529191Y-106574809D01*
X97701585Y-106690000D01*
X97460750Y-106690000D01*
X97302000Y-106848750D01*
X97302000Y-107823000D01*
X97322000Y-107823000D01*
X97322000Y-108077000D01*
X97302000Y-108077000D01*
X97302000Y-109051250D01*
X97460750Y-109210000D01*
X98051309Y-109210000D01*
X98284698Y-109113327D01*
X98426346Y-108971680D01*
X98467191Y-109032809D01*
X98677235Y-109173157D01*
X98925000Y-109222440D01*
X100425000Y-109222440D01*
X100672765Y-109173157D01*
X100882809Y-109032809D01*
X101023157Y-108822765D01*
X101072440Y-108575000D01*
X101072440Y-107325000D01*
X101023157Y-107077235D01*
X100882809Y-106867191D01*
X100672765Y-106726843D01*
X100624390Y-106717221D01*
X100634765Y-106715157D01*
X100844809Y-106574809D01*
X100985157Y-106364765D01*
X101034440Y-106117000D01*
X101034440Y-105907362D01*
X101570000Y-105371802D01*
X101570000Y-105384002D01*
X101640408Y-105384002D01*
X101606843Y-105434235D01*
X101592647Y-105505603D01*
X101570000Y-105528250D01*
X101570000Y-105608310D01*
X101571498Y-105611927D01*
X101557560Y-105682000D01*
X101557560Y-106132000D01*
X101577451Y-106232000D01*
X101557560Y-106332000D01*
X101557560Y-106782000D01*
X101577451Y-106882000D01*
X101557560Y-106982000D01*
X101557560Y-107432000D01*
X101577451Y-107532000D01*
X101557560Y-107632000D01*
X101557560Y-108082000D01*
X101606843Y-108329765D01*
X101747191Y-108539809D01*
X101957235Y-108680157D01*
X102205000Y-108729440D01*
X102357483Y-108729440D01*
X102377852Y-108831840D01*
X102542599Y-109078402D01*
X103860515Y-110396318D01*
X103860431Y-110493164D01*
X104008993Y-110852713D01*
X104283841Y-111128041D01*
X104643130Y-111277231D01*
X105032163Y-111277570D01*
X105391712Y-111129008D01*
X105667040Y-110854160D01*
X105816230Y-110494871D01*
X105816261Y-110459404D01*
X106103630Y-110578730D01*
X106219094Y-110578831D01*
X106358497Y-110916212D01*
X106403702Y-110961496D01*
X105984198Y-111381000D01*
X103098600Y-111381000D01*
X102807761Y-111438852D01*
X102561199Y-111603599D01*
X101472464Y-112692334D01*
X101092000Y-112616655D01*
X100518511Y-112730729D01*
X100032330Y-113055585D01*
X99707474Y-113541766D01*
X99593400Y-114115255D01*
X99593400Y-114484745D01*
X99707474Y-115058234D01*
X99972050Y-115454200D01*
X92818344Y-115454200D01*
X93006361Y-115376513D01*
X93914923Y-114469536D01*
X94335128Y-113457567D01*
X95122626Y-113457567D01*
X95450622Y-114251377D01*
X96057428Y-114859244D01*
X96850664Y-115188624D01*
X97709567Y-115189374D01*
X98503377Y-114861378D01*
X99111244Y-114254572D01*
X99440624Y-113461336D01*
X99441374Y-112602433D01*
X99113378Y-111808623D01*
X98506572Y-111200756D01*
X97713336Y-110871376D01*
X96854433Y-110870626D01*
X96060623Y-111198622D01*
X95452756Y-111805428D01*
X95123376Y-112598664D01*
X95122626Y-113457567D01*
X94335128Y-113457567D01*
X94407239Y-113283906D01*
X94408359Y-112000126D01*
X93918113Y-110813639D01*
X93011136Y-109905077D01*
X91862393Y-109428078D01*
X92543085Y-109146822D01*
X93079438Y-108611405D01*
X93235422Y-108235750D01*
X95790000Y-108235750D01*
X95790000Y-108701310D01*
X95886673Y-108934699D01*
X96065302Y-109113327D01*
X96298691Y-109210000D01*
X96889250Y-109210000D01*
X97048000Y-109051250D01*
X97048000Y-108077000D01*
X95948750Y-108077000D01*
X95790000Y-108235750D01*
X93235422Y-108235750D01*
X93370067Y-107911490D01*
X93370689Y-107198690D01*
X95790000Y-107198690D01*
X95790000Y-107664250D01*
X95948750Y-107823000D01*
X97048000Y-107823000D01*
X97048000Y-106848750D01*
X96889250Y-106690000D01*
X96298691Y-106690000D01*
X96065302Y-106786673D01*
X95886673Y-106965301D01*
X95790000Y-107198690D01*
X93370689Y-107198690D01*
X93370729Y-107153635D01*
X93081321Y-106453214D01*
X92601619Y-105972674D01*
X92735178Y-105651028D01*
X92735619Y-105145791D01*
X92542681Y-104678843D01*
X92185736Y-104321275D01*
X91719126Y-104127522D01*
X91236909Y-104127101D01*
X91008509Y-103898701D01*
X91224669Y-103682541D01*
X92100399Y-103682541D01*
X92348164Y-103633258D01*
X92558208Y-103492910D01*
X92698556Y-103282866D01*
X92747839Y-103035101D01*
X92747839Y-101765101D01*
X92729173Y-101671260D01*
X93079438Y-101321606D01*
X93267064Y-100869750D01*
X95790000Y-100869750D01*
X95790000Y-101335310D01*
X95886673Y-101568699D01*
X96065302Y-101747327D01*
X96298691Y-101844000D01*
X96889250Y-101844000D01*
X97048000Y-101685250D01*
X97048000Y-100711000D01*
X95948750Y-100711000D01*
X95790000Y-100869750D01*
X93267064Y-100869750D01*
X93370067Y-100621691D01*
X93370729Y-99863836D01*
X93357860Y-99832690D01*
X95790000Y-99832690D01*
X95790000Y-100298250D01*
X95948750Y-100457000D01*
X97048000Y-100457000D01*
X97048000Y-99482750D01*
X96889250Y-99324000D01*
X96298691Y-99324000D01*
X96065302Y-99420673D01*
X95886673Y-99599301D01*
X95790000Y-99832690D01*
X93357860Y-99832690D01*
X93081321Y-99163415D01*
X92648463Y-98729800D01*
X93048168Y-98729800D01*
X93330053Y-98673730D01*
X93569023Y-98514055D01*
X94301210Y-97781868D01*
X94306549Y-97784257D01*
X94315734Y-97790394D01*
X94323890Y-97792016D01*
X94373674Y-97814293D01*
X94433711Y-97827996D01*
X94488242Y-97829526D01*
X94496294Y-97831603D01*
X94507230Y-97830059D01*
X94516444Y-97830317D01*
X94525492Y-97832117D01*
X94535813Y-97836057D01*
X94544126Y-97835824D01*
X94597619Y-97846464D01*
X94659199Y-97846464D01*
X94712692Y-97835824D01*
X94721005Y-97836057D01*
X94731327Y-97832117D01*
X94740374Y-97830317D01*
X94749596Y-97830059D01*
X94760535Y-97831603D01*
X94768588Y-97829526D01*
X94823107Y-97827996D01*
X94883144Y-97814293D01*
X94932928Y-97792016D01*
X94941084Y-97790394D01*
X94950269Y-97784257D01*
X94958690Y-97780489D01*
X94967629Y-97778183D01*
X94978640Y-97777254D01*
X94986029Y-97773437D01*
X95038832Y-97759816D01*
X95094313Y-97733098D01*
X95137893Y-97700301D01*
X95145485Y-97696904D01*
X95153076Y-97688875D01*
X95160448Y-97683327D01*
X95168643Y-97679093D01*
X95179169Y-97675738D01*
X95185524Y-97670372D01*
X95233984Y-97645336D01*
X95282129Y-97606941D01*
X95317311Y-97565277D01*
X95323956Y-97560276D01*
X95329570Y-97550759D01*
X95335523Y-97543709D01*
X95342578Y-97537752D01*
X95352091Y-97532140D01*
X95357090Y-97525497D01*
X95398759Y-97490311D01*
X95437155Y-97442164D01*
X95462191Y-97393702D01*
X95467555Y-97387350D01*
X95470909Y-97376828D01*
X95475144Y-97368629D01*
X95480682Y-97361271D01*
X95488712Y-97353679D01*
X95492110Y-97346085D01*
X95524913Y-97302497D01*
X95551631Y-97247017D01*
X95565253Y-97194207D01*
X95569070Y-97186819D01*
X95569998Y-97175812D01*
X95572303Y-97166878D01*
X95576077Y-97158443D01*
X95582215Y-97149257D01*
X95583837Y-97141103D01*
X95606105Y-97091340D01*
X95619809Y-97031303D01*
X95621340Y-96976775D01*
X95623418Y-96968719D01*
X95621873Y-96957778D01*
X95622132Y-96948560D01*
X95623929Y-96939524D01*
X95627870Y-96929201D01*
X95627637Y-96920883D01*
X95638280Y-96867371D01*
X95638279Y-96805791D01*
X95627642Y-96752318D01*
X95627875Y-96744009D01*
X95623936Y-96733689D01*
X95622134Y-96724630D01*
X95621874Y-96715382D01*
X95623418Y-96704446D01*
X95621342Y-96696399D01*
X95619814Y-96641906D01*
X95619506Y-96640556D01*
X96057428Y-97079244D01*
X96850664Y-97408624D01*
X97709567Y-97409374D01*
X98503377Y-97081378D01*
X99111244Y-96474572D01*
X99440624Y-95681336D01*
X99441374Y-94822433D01*
X99113378Y-94028623D01*
X98506572Y-93420756D01*
X97713336Y-93091376D01*
X96854433Y-93090626D01*
X96060623Y-93418622D01*
X95673799Y-93804771D01*
X95673799Y-91888950D01*
X95762943Y-91852117D01*
X96026192Y-91589327D01*
X96168838Y-91245799D01*
X96169162Y-90873833D01*
X96120187Y-90755304D01*
X96850664Y-91058624D01*
X97709567Y-91059374D01*
X98503377Y-90731378D01*
X99111244Y-90124572D01*
X99440624Y-89331336D01*
X99441374Y-88472433D01*
X99113378Y-87678623D01*
X98506572Y-87070756D01*
X97713336Y-86741376D01*
X96854433Y-86740626D01*
X96060623Y-87068622D01*
X95673799Y-87454771D01*
X95673799Y-85538950D01*
X95762943Y-85502117D01*
X96026192Y-85239327D01*
X96168838Y-84895799D01*
X96169056Y-84645303D01*
X96298691Y-84699000D01*
X96889250Y-84699000D01*
X97048000Y-84540250D01*
X97048000Y-83566000D01*
X95948750Y-83566000D01*
X95790000Y-83724750D01*
X95790000Y-83942526D01*
X95764327Y-83916808D01*
X95673799Y-83879217D01*
X95673799Y-82687690D01*
X95790000Y-82687690D01*
X95790000Y-83153250D01*
X95948750Y-83312000D01*
X97048000Y-83312000D01*
X97048000Y-82337750D01*
X96889250Y-82179000D01*
X96298691Y-82179000D01*
X96065302Y-82275673D01*
X95886673Y-82454301D01*
X95790000Y-82687690D01*
X95673799Y-82687690D01*
X95673799Y-76358750D01*
X95790000Y-76358750D01*
X95790000Y-76824310D01*
X95886673Y-77057699D01*
X96065302Y-77236327D01*
X96298691Y-77333000D01*
X96889250Y-77333000D01*
X97048000Y-77174250D01*
X97048000Y-76200000D01*
X95948750Y-76200000D01*
X95790000Y-76358750D01*
X95673799Y-76358750D01*
X95673799Y-75321690D01*
X95790000Y-75321690D01*
X95790000Y-75787250D01*
X95948750Y-75946000D01*
X97048000Y-75946000D01*
X97048000Y-74971750D01*
X96889250Y-74813000D01*
X96298691Y-74813000D01*
X96065302Y-74909673D01*
X95886673Y-75088301D01*
X95790000Y-75321690D01*
X95673799Y-75321690D01*
X95673799Y-73694836D01*
X95673800Y-73694831D01*
X95626957Y-73459339D01*
X95617729Y-73412946D01*
X95458054Y-73173976D01*
X93962725Y-71678647D01*
X93723755Y-71518972D01*
X93441870Y-71462902D01*
X93065910Y-71462902D01*
X92747839Y-71144831D01*
X92747839Y-70269101D01*
X92729173Y-70175260D01*
X93079438Y-69825606D01*
X93370067Y-69125691D01*
X93370729Y-68367836D01*
X93081321Y-67667415D01*
X92545904Y-67131062D01*
X91864742Y-66848220D01*
X93006361Y-66376513D01*
X93914923Y-65469536D01*
X94407239Y-64283906D01*
X94408359Y-63000126D01*
X93918113Y-61813639D01*
X93011136Y-60905077D01*
X91825506Y-60412761D01*
X90541726Y-60411641D01*
X89355239Y-60901887D01*
X88669018Y-61586911D01*
X89053337Y-61011737D01*
X89800025Y-60512817D01*
X90748267Y-60324200D01*
X149613333Y-60324200D01*
X150561577Y-60512817D01*
X150561577Y-60512817D01*
G37*
X150561577Y-60512817D02*
X151308263Y-61011737D01*
X151694203Y-61589337D01*
X151011136Y-60905077D01*
X149825506Y-60412761D01*
X148541726Y-60411641D01*
X147355239Y-60901887D01*
X146446677Y-61808864D01*
X145954361Y-62994494D01*
X145953241Y-64278274D01*
X146443487Y-65464761D01*
X147350464Y-66373323D01*
X148536094Y-66865639D01*
X149819874Y-66866759D01*
X151006361Y-66376513D01*
X151914923Y-65469536D01*
X151995800Y-65274762D01*
X151995800Y-111001656D01*
X151918113Y-110813639D01*
X151011136Y-109905077D01*
X149825506Y-109412761D01*
X148541726Y-109411641D01*
X147355239Y-109901887D01*
X146446677Y-110808864D01*
X145954361Y-111994494D01*
X145953241Y-113278274D01*
X146443487Y-114464761D01*
X147350464Y-115373323D01*
X147545238Y-115454200D01*
X140311950Y-115454200D01*
X140576526Y-115058234D01*
X140690600Y-114484745D01*
X140690600Y-114115255D01*
X140576526Y-113541766D01*
X140251670Y-113055585D01*
X139765489Y-112730729D01*
X139192000Y-112616655D01*
X138618511Y-112730729D01*
X138132330Y-113055585D01*
X137922000Y-113370366D01*
X137711670Y-113055585D01*
X137231235Y-112734568D01*
X137323839Y-112716148D01*
X137570401Y-112551401D01*
X138032682Y-112089120D01*
X138165000Y-112115440D01*
X138695000Y-112115440D01*
X138942765Y-112066157D01*
X139058080Y-111989106D01*
X139075301Y-112006327D01*
X139308690Y-112103000D01*
X139414250Y-112103000D01*
X139573000Y-111944250D01*
X139573000Y-110745000D01*
X139553000Y-110745000D01*
X139553000Y-110491000D01*
X139573000Y-110491000D01*
X139573000Y-109291750D01*
X139827000Y-109291750D01*
X139827000Y-110491000D01*
X139847000Y-110491000D01*
X139847000Y-110745000D01*
X139827000Y-110745000D01*
X139827000Y-111944250D01*
X139985750Y-112103000D01*
X140091310Y-112103000D01*
X140324699Y-112006327D01*
X140341920Y-111989106D01*
X140457235Y-112066157D01*
X140705000Y-112115440D01*
X141044028Y-112115440D01*
X140843376Y-112598664D01*
X140842626Y-113457567D01*
X141170622Y-114251377D01*
X141777428Y-114859244D01*
X142570664Y-115188624D01*
X143429567Y-115189374D01*
X144223377Y-114861378D01*
X144831244Y-114254572D01*
X145160624Y-113461336D01*
X145161374Y-112602433D01*
X144833378Y-111808623D01*
X144226572Y-111200756D01*
X143433336Y-110871376D01*
X142574433Y-110870626D01*
X141882440Y-111156552D01*
X141882440Y-109768000D01*
X141833157Y-109520235D01*
X141692809Y-109310191D01*
X141482765Y-109169843D01*
X141235000Y-109120560D01*
X140705000Y-109120560D01*
X140457235Y-109169843D01*
X140341920Y-109246894D01*
X140324699Y-109229673D01*
X140091310Y-109133000D01*
X139985750Y-109133000D01*
X139827000Y-109291750D01*
X139573000Y-109291750D01*
X139414250Y-109133000D01*
X139308690Y-109133000D01*
X139075301Y-109229673D01*
X139058080Y-109246894D01*
X138942765Y-109169843D01*
X138695000Y-109120560D01*
X138165000Y-109120560D01*
X137917235Y-109169843D01*
X137707191Y-109310191D01*
X137566843Y-109520235D01*
X137517560Y-109768000D01*
X137517560Y-110454638D01*
X136718198Y-111254000D01*
X135188802Y-111254000D01*
X135164512Y-111229710D01*
X135158815Y-111221184D01*
X132695630Y-108758000D01*
X132760310Y-108758000D01*
X132977028Y-108668232D01*
X133056235Y-108721157D01*
X133304000Y-108770440D01*
X133904000Y-108770440D01*
X134151765Y-108721157D01*
X134361809Y-108580809D01*
X134502157Y-108370765D01*
X134551440Y-108123000D01*
X134551440Y-106573000D01*
X134502157Y-106325235D01*
X134364000Y-106118470D01*
X134364000Y-105470802D01*
X134746864Y-105087938D01*
X134782191Y-105140809D01*
X134992235Y-105281157D01*
X135001500Y-105283000D01*
X134992235Y-105284843D01*
X134782191Y-105425191D01*
X134641843Y-105635235D01*
X134592560Y-105883000D01*
X134592560Y-107383000D01*
X134641843Y-107630765D01*
X134782191Y-107840809D01*
X134992235Y-107981157D01*
X135240000Y-108030440D01*
X136540000Y-108030440D01*
X136787765Y-107981157D01*
X136997809Y-107840809D01*
X137138157Y-107630765D01*
X137187440Y-107383000D01*
X137187440Y-107263920D01*
X137327401Y-107170401D01*
X137517560Y-106980242D01*
X137517560Y-108418000D01*
X137566843Y-108665765D01*
X137707191Y-108875809D01*
X137917235Y-109016157D01*
X138165000Y-109065440D01*
X138695000Y-109065440D01*
X138942765Y-109016157D01*
X139065000Y-108934482D01*
X139187235Y-109016157D01*
X139435000Y-109065440D01*
X139965000Y-109065440D01*
X140212765Y-109016157D01*
X140335000Y-108934482D01*
X140457235Y-109016157D01*
X140705000Y-109065440D01*
X141235000Y-109065440D01*
X141482765Y-109016157D01*
X141692809Y-108875809D01*
X141833157Y-108665765D01*
X141882440Y-108418000D01*
X141882440Y-106932000D01*
X145904894Y-106932000D01*
X145860665Y-106976152D01*
X145657224Y-107466092D01*
X145656761Y-107996591D01*
X145859346Y-108486885D01*
X146234139Y-108862332D01*
X146724079Y-109065773D01*
X147254578Y-109066236D01*
X147744872Y-108863651D01*
X148120319Y-108488858D01*
X148323760Y-107998918D01*
X148324223Y-107468419D01*
X148121638Y-106978125D01*
X147930853Y-106787007D01*
X148046998Y-106709401D01*
X148675154Y-106081245D01*
X149644792Y-106081245D01*
X149892557Y-106031962D01*
X150102601Y-105891614D01*
X150242949Y-105681570D01*
X150292232Y-105433805D01*
X150292232Y-104036805D01*
X150242949Y-103789040D01*
X150102601Y-103578996D01*
X149892557Y-103438648D01*
X149644792Y-103389365D01*
X148369834Y-103389365D01*
X148687819Y-103071380D01*
X149210378Y-103071836D01*
X149700672Y-102869251D01*
X150076119Y-102494458D01*
X150279560Y-102004518D01*
X150280023Y-101474019D01*
X150077438Y-100983725D01*
X149702645Y-100608278D01*
X149212705Y-100404837D01*
X148682206Y-100404374D01*
X148191912Y-100606959D01*
X147816465Y-100981752D01*
X147613024Y-101471692D01*
X147612566Y-101997029D01*
X144832595Y-104777000D01*
X142447440Y-104777000D01*
X142447440Y-103553500D01*
X142398157Y-103305735D01*
X142257809Y-103095691D01*
X142047765Y-102955343D01*
X141810000Y-102908049D01*
X141810000Y-102744026D01*
X141941302Y-102875327D01*
X142174691Y-102972000D01*
X142790250Y-102972000D01*
X142949000Y-102813250D01*
X142949000Y-102164000D01*
X143203000Y-102164000D01*
X143203000Y-102813250D01*
X143361750Y-102972000D01*
X143977309Y-102972000D01*
X144210698Y-102875327D01*
X144389327Y-102696699D01*
X144486000Y-102463310D01*
X144486000Y-102322750D01*
X144327250Y-102164000D01*
X143203000Y-102164000D01*
X142949000Y-102164000D01*
X142929000Y-102164000D01*
X142929000Y-101910000D01*
X142949000Y-101910000D01*
X142949000Y-101890000D01*
X143203000Y-101890000D01*
X143203000Y-101910000D01*
X144327250Y-101910000D01*
X144486000Y-101751250D01*
X144486000Y-101610690D01*
X144447922Y-101518761D01*
X144697339Y-101469148D01*
X144943901Y-101304401D01*
X147612884Y-98635418D01*
X147612561Y-99004991D01*
X147815146Y-99495285D01*
X148189939Y-99870732D01*
X148679879Y-100074173D01*
X149210378Y-100074636D01*
X149700672Y-99872051D01*
X150076119Y-99497258D01*
X150279560Y-99007318D01*
X150280023Y-98476819D01*
X150077438Y-97986525D01*
X149702645Y-97611078D01*
X149212705Y-97407637D01*
X148840989Y-97407313D01*
X148873401Y-97374901D01*
X149038148Y-97128340D01*
X149096000Y-96837500D01*
X149096000Y-96095747D01*
X149098000Y-96085692D01*
X149098000Y-90233500D01*
X149039996Y-89941895D01*
X148935161Y-89784999D01*
X148874816Y-89694685D01*
X148548435Y-89368304D01*
X148736741Y-89368304D01*
X148895491Y-89209554D01*
X148895491Y-88098304D01*
X149149491Y-88098304D01*
X149149491Y-89209554D01*
X149308241Y-89368304D01*
X149910801Y-89368304D01*
X150144190Y-89271631D01*
X150322818Y-89093002D01*
X150419491Y-88859613D01*
X150419491Y-88257054D01*
X150260741Y-88098304D01*
X149149491Y-88098304D01*
X148895491Y-88098304D01*
X147784241Y-88098304D01*
X147625491Y-88257054D01*
X147625491Y-88445361D01*
X147320000Y-88139870D01*
X147320000Y-87082995D01*
X147625491Y-87082995D01*
X147625491Y-87685554D01*
X147784241Y-87844304D01*
X148895491Y-87844304D01*
X148895491Y-86733054D01*
X149149491Y-86733054D01*
X149149491Y-87844304D01*
X150260741Y-87844304D01*
X150419491Y-87685554D01*
X150419491Y-87082995D01*
X150322818Y-86849606D01*
X150144190Y-86670977D01*
X149910801Y-86574304D01*
X149308241Y-86574304D01*
X149149491Y-86733054D01*
X148895491Y-86733054D01*
X148736741Y-86574304D01*
X148134181Y-86574304D01*
X147900792Y-86670977D01*
X147722164Y-86849606D01*
X147625491Y-87082995D01*
X147320000Y-87082995D01*
X147320000Y-85250765D01*
X147625249Y-85250765D01*
X147837481Y-85764407D01*
X148230121Y-86157733D01*
X148743391Y-86370861D01*
X149299152Y-86371346D01*
X149812794Y-86159114D01*
X150206120Y-85766474D01*
X150419248Y-85253204D01*
X150419733Y-84697443D01*
X150207501Y-84183801D01*
X149814861Y-83790475D01*
X149301591Y-83577347D01*
X148745830Y-83576862D01*
X148232188Y-83789094D01*
X147838862Y-84181734D01*
X147625734Y-84695004D01*
X147625249Y-85250765D01*
X147320000Y-85250765D01*
X147320000Y-82949000D01*
X147261996Y-82657395D01*
X147096815Y-82410185D01*
X143512440Y-78825810D01*
X143512440Y-77756000D01*
X143463157Y-77508235D01*
X143410245Y-77429047D01*
X147641363Y-81660165D01*
X147625734Y-81697804D01*
X147625249Y-82253565D01*
X147837481Y-82767207D01*
X148230121Y-83160533D01*
X148743391Y-83373661D01*
X149299152Y-83374146D01*
X149812794Y-83161914D01*
X150206120Y-82769274D01*
X150419248Y-82256004D01*
X150419733Y-81700243D01*
X150207501Y-81186601D01*
X149814861Y-80793275D01*
X149301591Y-80580147D01*
X148745830Y-80579662D01*
X148720804Y-80590002D01*
X148339591Y-80208789D01*
X148743391Y-80376461D01*
X149299152Y-80376946D01*
X149812794Y-80164714D01*
X150206120Y-79772074D01*
X150419248Y-79258804D01*
X150419733Y-78703043D01*
X150207501Y-78189401D01*
X149814861Y-77796075D01*
X149301591Y-77582947D01*
X148745830Y-77582462D01*
X148232188Y-77794694D01*
X147838862Y-78187334D01*
X147819485Y-78234000D01*
X147761802Y-78234000D01*
X146907167Y-77379365D01*
X147343352Y-77379746D01*
X147856994Y-77167514D01*
X148250320Y-76774874D01*
X148463448Y-76261604D01*
X148463933Y-75705843D01*
X148251701Y-75192201D01*
X147859061Y-74798875D01*
X147345791Y-74585747D01*
X146790030Y-74585262D01*
X146276388Y-74797494D01*
X145883062Y-75190134D01*
X145669934Y-75703404D01*
X145669551Y-76141749D01*
X142806632Y-73278830D01*
X143429567Y-73279374D01*
X144223377Y-72951378D01*
X144689060Y-72486508D01*
X144689060Y-73918500D01*
X144738343Y-74166265D01*
X144878691Y-74376309D01*
X145088735Y-74516657D01*
X145336500Y-74565940D01*
X146636500Y-74565940D01*
X146884265Y-74516657D01*
X147094309Y-74376309D01*
X147104482Y-74361084D01*
X147130691Y-74400309D01*
X147340735Y-74540657D01*
X147588500Y-74589940D01*
X148788500Y-74589940D01*
X149036265Y-74540657D01*
X149246309Y-74400309D01*
X149287154Y-74339180D01*
X149428802Y-74480827D01*
X149662191Y-74577500D01*
X150102750Y-74577500D01*
X150261500Y-74418750D01*
X150261500Y-73469500D01*
X150515500Y-73469500D01*
X150515500Y-74418750D01*
X150674250Y-74577500D01*
X151114809Y-74577500D01*
X151348198Y-74480827D01*
X151526827Y-74302199D01*
X151623500Y-74068810D01*
X151623500Y-73628250D01*
X151464750Y-73469500D01*
X150515500Y-73469500D01*
X150261500Y-73469500D01*
X150241500Y-73469500D01*
X150241500Y-73215500D01*
X150261500Y-73215500D01*
X150261500Y-72266250D01*
X150515500Y-72266250D01*
X150515500Y-73215500D01*
X151464750Y-73215500D01*
X151623500Y-73056750D01*
X151623500Y-72616190D01*
X151526827Y-72382801D01*
X151348198Y-72204173D01*
X151114809Y-72107500D01*
X150674250Y-72107500D01*
X150515500Y-72266250D01*
X150261500Y-72266250D01*
X150102750Y-72107500D01*
X149662191Y-72107500D01*
X149428802Y-72204173D01*
X149287154Y-72345820D01*
X149246309Y-72284691D01*
X149036265Y-72144343D01*
X148788500Y-72095060D01*
X147588500Y-72095060D01*
X147340735Y-72144343D01*
X147242468Y-72210003D01*
X147234657Y-72170735D01*
X147094309Y-71960691D01*
X146884265Y-71820343D01*
X146875000Y-71818500D01*
X146884265Y-71816657D01*
X147094309Y-71676309D01*
X147234657Y-71466265D01*
X147242468Y-71426997D01*
X147340735Y-71492657D01*
X147588500Y-71541940D01*
X148788500Y-71541940D01*
X149036265Y-71492657D01*
X149246309Y-71352309D01*
X149287154Y-71291180D01*
X149428802Y-71432827D01*
X149662191Y-71529500D01*
X150102750Y-71529500D01*
X150261500Y-71370750D01*
X150261500Y-70421500D01*
X150515500Y-70421500D01*
X150515500Y-71370750D01*
X150674250Y-71529500D01*
X151114809Y-71529500D01*
X151348198Y-71432827D01*
X151526827Y-71254199D01*
X151623500Y-71020810D01*
X151623500Y-70580250D01*
X151464750Y-70421500D01*
X150515500Y-70421500D01*
X150261500Y-70421500D01*
X150241500Y-70421500D01*
X150241500Y-70167500D01*
X150261500Y-70167500D01*
X150261500Y-69218250D01*
X150515500Y-69218250D01*
X150515500Y-70167500D01*
X151464750Y-70167500D01*
X151623500Y-70008750D01*
X151623500Y-69568190D01*
X151526827Y-69334801D01*
X151348198Y-69156173D01*
X151114809Y-69059500D01*
X150674250Y-69059500D01*
X150515500Y-69218250D01*
X150261500Y-69218250D01*
X150102750Y-69059500D01*
X150047169Y-69059500D01*
X150089040Y-68849000D01*
X150089040Y-67549000D01*
X150039757Y-67301235D01*
X149899409Y-67091191D01*
X149689365Y-66950843D01*
X149441600Y-66901560D01*
X147941600Y-66901560D01*
X147693835Y-66950843D01*
X147483791Y-67091191D01*
X147343443Y-67301235D01*
X147341600Y-67310500D01*
X147339757Y-67301235D01*
X147199409Y-67091191D01*
X146989365Y-66950843D01*
X146741600Y-66901560D01*
X145241600Y-66901560D01*
X145094602Y-66930800D01*
X144437802Y-66274000D01*
X144437802Y-66243018D01*
X144669826Y-66364158D01*
X145085747Y-66191888D01*
X145517621Y-65797690D01*
X145765768Y-65268227D01*
X145645269Y-65036200D01*
X144437800Y-65036200D01*
X144437800Y-65056200D01*
X144183800Y-65056200D01*
X144183800Y-65036200D01*
X144163800Y-65036200D01*
X144163800Y-64782200D01*
X144183800Y-64782200D01*
X144183800Y-64762200D01*
X144437800Y-64762200D01*
X144437800Y-64782200D01*
X145645269Y-64782200D01*
X145765768Y-64550173D01*
X145517621Y-64020710D01*
X145099639Y-63639192D01*
X145370470Y-63458229D01*
X145695326Y-62972048D01*
X145809400Y-62398559D01*
X145809400Y-62339841D01*
X145695326Y-61766352D01*
X145370470Y-61280171D01*
X144884289Y-60955315D01*
X144310800Y-60841241D01*
X143737311Y-60955315D01*
X143251130Y-61280171D01*
X143040800Y-61594952D01*
X142830470Y-61280171D01*
X142344289Y-60955315D01*
X141770800Y-60841241D01*
X141197311Y-60955315D01*
X140711130Y-61280171D01*
X140500800Y-61594952D01*
X140290470Y-61280171D01*
X139804289Y-60955315D01*
X139230800Y-60841241D01*
X138657311Y-60955315D01*
X138171130Y-61280171D01*
X137955136Y-61603428D01*
X137897621Y-61480710D01*
X137465747Y-61086512D01*
X137049826Y-60914242D01*
X136817800Y-61035383D01*
X136817800Y-62242200D01*
X136837800Y-62242200D01*
X136837800Y-62496200D01*
X136817800Y-62496200D01*
X136817800Y-62516200D01*
X136563800Y-62516200D01*
X136563800Y-62496200D01*
X136543800Y-62496200D01*
X136543800Y-62242200D01*
X136563800Y-62242200D01*
X136563800Y-61035383D01*
X136331774Y-60914242D01*
X135915853Y-61086512D01*
X135483979Y-61480710D01*
X135426464Y-61603428D01*
X135210470Y-61280171D01*
X134724289Y-60955315D01*
X134150800Y-60841241D01*
X133577311Y-60955315D01*
X133091130Y-61280171D01*
X132875136Y-61603428D01*
X132817621Y-61480710D01*
X132385747Y-61086512D01*
X131969826Y-60914242D01*
X131737800Y-61035383D01*
X131737800Y-62242200D01*
X131757800Y-62242200D01*
X131757800Y-62496200D01*
X131737800Y-62496200D01*
X131737800Y-62516200D01*
X131483800Y-62516200D01*
X131483800Y-62496200D01*
X131463800Y-62496200D01*
X131463800Y-62242200D01*
X131483800Y-62242200D01*
X131483800Y-61035383D01*
X131251774Y-60914242D01*
X130835853Y-61086512D01*
X130403979Y-61480710D01*
X130346464Y-61603428D01*
X130130470Y-61280171D01*
X129644289Y-60955315D01*
X129070800Y-60841241D01*
X128497311Y-60955315D01*
X128011130Y-61280171D01*
X127800800Y-61594952D01*
X127590470Y-61280171D01*
X127104289Y-60955315D01*
X126530800Y-60841241D01*
X125957311Y-60955315D01*
X125471130Y-61280171D01*
X125260800Y-61594952D01*
X125050470Y-61280171D01*
X124564289Y-60955315D01*
X123990800Y-60841241D01*
X123417311Y-60955315D01*
X122931130Y-61280171D01*
X122720800Y-61594952D01*
X122510470Y-61280171D01*
X122024289Y-60955315D01*
X121450800Y-60841241D01*
X121072827Y-60916425D01*
X120799600Y-60643198D01*
X120553038Y-60478451D01*
X120262199Y-60420599D01*
X118340271Y-60420599D01*
X118049432Y-60478451D01*
X117802870Y-60643198D01*
X117271870Y-61174198D01*
X116944289Y-60955315D01*
X116370800Y-60841241D01*
X115797311Y-60955315D01*
X115311130Y-61280171D01*
X115100800Y-61594952D01*
X114890470Y-61280171D01*
X114404289Y-60955315D01*
X113830800Y-60841241D01*
X113452827Y-60916425D01*
X113179600Y-60643198D01*
X112933038Y-60478451D01*
X112642199Y-60420599D01*
X103100271Y-60420599D01*
X102809432Y-60478451D01*
X102562870Y-60643198D01*
X102017527Y-61188541D01*
X101905747Y-61086512D01*
X101489826Y-60914242D01*
X101257800Y-61035383D01*
X101257800Y-62242200D01*
X101277800Y-62242200D01*
X101277800Y-62496200D01*
X101257800Y-62496200D01*
X101257800Y-62516200D01*
X101003800Y-62516200D01*
X101003800Y-62496200D01*
X100983800Y-62496200D01*
X100983800Y-62242200D01*
X101003800Y-62242200D01*
X101003800Y-61035383D01*
X100771774Y-60914242D01*
X100355853Y-61086512D01*
X99923979Y-61480710D01*
X99866464Y-61603428D01*
X99650470Y-61280171D01*
X99164289Y-60955315D01*
X98590800Y-60841241D01*
X98017311Y-60955315D01*
X97531130Y-61280171D01*
X97320800Y-61594952D01*
X97110470Y-61280171D01*
X96624289Y-60955315D01*
X96050800Y-60841241D01*
X95477311Y-60955315D01*
X94991130Y-61280171D01*
X94666274Y-61766352D01*
X94552200Y-62339841D01*
X94552200Y-62398559D01*
X94666274Y-62972048D01*
X94978704Y-63439632D01*
X94939435Y-63447443D01*
X94729391Y-63587791D01*
X94589043Y-63797835D01*
X94539760Y-64045600D01*
X94539760Y-65772800D01*
X94589043Y-66020565D01*
X94729391Y-66230609D01*
X94939435Y-66370957D01*
X95187200Y-66420240D01*
X95419880Y-66420240D01*
X95513399Y-66560201D01*
X98057471Y-69104273D01*
X97713336Y-68961376D01*
X96854433Y-68960626D01*
X96060623Y-69288622D01*
X95452756Y-69895428D01*
X95123376Y-70688664D01*
X95122626Y-71547567D01*
X95450622Y-72341377D01*
X96057428Y-72949244D01*
X96850664Y-73278624D01*
X97709567Y-73279374D01*
X98503377Y-72951378D01*
X99100006Y-72355790D01*
X99128843Y-72500765D01*
X99269191Y-72710809D01*
X99479235Y-72851157D01*
X99717000Y-72898451D01*
X99717000Y-73426000D01*
X99774852Y-73716839D01*
X99939599Y-73963401D01*
X100907711Y-74931513D01*
X100838061Y-74960291D01*
X100672765Y-74849843D01*
X100425000Y-74800560D01*
X98925000Y-74800560D01*
X98677235Y-74849843D01*
X98467191Y-74990191D01*
X98426346Y-75051320D01*
X98284698Y-74909673D01*
X98051309Y-74813000D01*
X97460750Y-74813000D01*
X97302000Y-74971750D01*
X97302000Y-75946000D01*
X97322000Y-75946000D01*
X97322000Y-76200000D01*
X97302000Y-76200000D01*
X97302000Y-77174250D01*
X97460750Y-77333000D01*
X97701585Y-77333000D01*
X97529191Y-77448191D01*
X97388843Y-77658235D01*
X97339560Y-77906000D01*
X97339560Y-79006000D01*
X97388843Y-79253765D01*
X97529191Y-79463809D01*
X97739235Y-79604157D01*
X97987000Y-79653440D01*
X100387000Y-79653440D01*
X100634765Y-79604157D01*
X100782584Y-79505386D01*
X101126698Y-79849500D01*
X100878134Y-80098064D01*
X100844809Y-80048191D01*
X100634765Y-79907843D01*
X100387000Y-79858560D01*
X97987000Y-79858560D01*
X97739235Y-79907843D01*
X97529191Y-80048191D01*
X97388843Y-80258235D01*
X97339560Y-80506000D01*
X97339560Y-81606000D01*
X97388843Y-81853765D01*
X97529191Y-82063809D01*
X97701585Y-82179000D01*
X97460750Y-82179000D01*
X97302000Y-82337750D01*
X97302000Y-83312000D01*
X97322000Y-83312000D01*
X97322000Y-83566000D01*
X97302000Y-83566000D01*
X97302000Y-84540250D01*
X97460750Y-84699000D01*
X98051309Y-84699000D01*
X98284698Y-84602327D01*
X98426346Y-84460680D01*
X98467191Y-84521809D01*
X98677235Y-84662157D01*
X98925000Y-84711440D01*
X100425000Y-84711440D01*
X100672765Y-84662157D01*
X100882809Y-84521809D01*
X101023157Y-84311765D01*
X101072440Y-84064000D01*
X101072440Y-82814000D01*
X101023157Y-82566235D01*
X100882809Y-82356191D01*
X100672765Y-82215843D01*
X100624390Y-82206221D01*
X100634765Y-82204157D01*
X100844809Y-82063809D01*
X100985157Y-81853765D01*
X100992669Y-81816000D01*
X100995000Y-81816000D01*
X101285839Y-81758148D01*
X101532401Y-81593401D01*
X101557560Y-81568242D01*
X101557560Y-81621000D01*
X101577451Y-81721000D01*
X101557560Y-81821000D01*
X101557560Y-82271000D01*
X101577451Y-82371000D01*
X101557560Y-82471000D01*
X101557560Y-82921000D01*
X101577451Y-83021000D01*
X101557560Y-83121000D01*
X101557560Y-83571000D01*
X101606843Y-83818765D01*
X101747191Y-84028809D01*
X101957235Y-84169157D01*
X102205000Y-84218440D01*
X103955000Y-84218440D01*
X104202765Y-84169157D01*
X104336403Y-84079862D01*
X104495839Y-84048148D01*
X104742401Y-83883401D01*
X105170701Y-83455101D01*
X105170701Y-85079092D01*
X101651789Y-88598004D01*
X101092000Y-88486655D01*
X100518511Y-88600729D01*
X100032330Y-88925585D01*
X99707474Y-89411766D01*
X99593400Y-89985255D01*
X99593400Y-90354745D01*
X99707474Y-90928234D01*
X100032330Y-91414415D01*
X100518511Y-91739271D01*
X101092000Y-91853345D01*
X101472464Y-91777666D01*
X103220301Y-93525503D01*
X103205788Y-93531499D01*
X102930460Y-93806347D01*
X102781270Y-94165636D01*
X102780931Y-94554669D01*
X102929493Y-94914218D01*
X103204341Y-95189546D01*
X103563630Y-95338736D01*
X103662013Y-95338822D01*
X103868881Y-95545689D01*
X103841191Y-95564191D01*
X103700843Y-95774235D01*
X103651560Y-96022000D01*
X103651560Y-97272000D01*
X103700843Y-97519765D01*
X103841191Y-97729809D01*
X104051235Y-97870157D01*
X104168680Y-97893518D01*
X103527638Y-98534560D01*
X102205000Y-98534560D01*
X101957235Y-98583843D01*
X101747191Y-98724191D01*
X101606843Y-98934235D01*
X101557560Y-99182000D01*
X101557560Y-99632000D01*
X101577451Y-99732000D01*
X101557560Y-99832000D01*
X101557560Y-100282000D01*
X101577451Y-100382000D01*
X101557560Y-100482000D01*
X101557560Y-100932000D01*
X101577451Y-101032000D01*
X101557560Y-101132000D01*
X101557560Y-101582000D01*
X101577451Y-101682000D01*
X101557560Y-101782000D01*
X101557560Y-102232000D01*
X101577451Y-102332000D01*
X101557560Y-102432000D01*
X101557560Y-102882000D01*
X101577451Y-102982000D01*
X101557560Y-103082000D01*
X101557560Y-103197000D01*
X101477802Y-103197000D01*
X101034440Y-102753638D01*
X101034440Y-102417000D01*
X100985157Y-102169235D01*
X100844809Y-101959191D01*
X100634765Y-101818843D01*
X100624390Y-101816779D01*
X100672765Y-101807157D01*
X100882809Y-101666809D01*
X101023157Y-101456765D01*
X101072440Y-101209000D01*
X101072440Y-99959000D01*
X101023157Y-99711235D01*
X100882809Y-99501191D01*
X100672765Y-99360843D01*
X100425000Y-99311560D01*
X98925000Y-99311560D01*
X98677235Y-99360843D01*
X98467191Y-99501191D01*
X98426346Y-99562320D01*
X98284698Y-99420673D01*
X98051309Y-99324000D01*
X97460750Y-99324000D01*
X97302000Y-99482750D01*
X97302000Y-100457000D01*
X97322000Y-100457000D01*
X97322000Y-100711000D01*
X97302000Y-100711000D01*
X97302000Y-101685250D01*
X97460750Y-101844000D01*
X97701585Y-101844000D01*
X97529191Y-101959191D01*
X97388843Y-102169235D01*
X97339560Y-102417000D01*
X97339560Y-103517000D01*
X97388843Y-103764765D01*
X97529191Y-103974809D01*
X97739235Y-104115157D01*
X97987000Y-104164440D01*
X100295638Y-104164440D01*
X100461698Y-104330500D01*
X100416725Y-104375473D01*
X100387000Y-104369560D01*
X97987000Y-104369560D01*
X97739235Y-104418843D01*
X97529191Y-104559191D01*
X97388843Y-104769235D01*
X97339560Y-105017000D01*
X97339560Y-106117000D01*
X97388843Y-106364765D01*
X97529191Y-106574809D01*
X97701585Y-106690000D01*
X97460750Y-106690000D01*
X97302000Y-106848750D01*
X97302000Y-107823000D01*
X97322000Y-107823000D01*
X97322000Y-108077000D01*
X97302000Y-108077000D01*
X97302000Y-109051250D01*
X97460750Y-109210000D01*
X98051309Y-109210000D01*
X98284698Y-109113327D01*
X98426346Y-108971680D01*
X98467191Y-109032809D01*
X98677235Y-109173157D01*
X98925000Y-109222440D01*
X100425000Y-109222440D01*
X100672765Y-109173157D01*
X100882809Y-109032809D01*
X101023157Y-108822765D01*
X101072440Y-108575000D01*
X101072440Y-107325000D01*
X101023157Y-107077235D01*
X100882809Y-106867191D01*
X100672765Y-106726843D01*
X100624390Y-106717221D01*
X100634765Y-106715157D01*
X100844809Y-106574809D01*
X100985157Y-106364765D01*
X101034440Y-106117000D01*
X101034440Y-105907362D01*
X101570000Y-105371802D01*
X101570000Y-105384002D01*
X101640408Y-105384002D01*
X101606843Y-105434235D01*
X101592647Y-105505603D01*
X101570000Y-105528250D01*
X101570000Y-105608310D01*
X101571498Y-105611927D01*
X101557560Y-105682000D01*
X101557560Y-106132000D01*
X101577451Y-106232000D01*
X101557560Y-106332000D01*
X101557560Y-106782000D01*
X101577451Y-106882000D01*
X101557560Y-106982000D01*
X101557560Y-107432000D01*
X101577451Y-107532000D01*
X101557560Y-107632000D01*
X101557560Y-108082000D01*
X101606843Y-108329765D01*
X101747191Y-108539809D01*
X101957235Y-108680157D01*
X102205000Y-108729440D01*
X102357483Y-108729440D01*
X102377852Y-108831840D01*
X102542599Y-109078402D01*
X103860515Y-110396318D01*
X103860431Y-110493164D01*
X104008993Y-110852713D01*
X104283841Y-111128041D01*
X104643130Y-111277231D01*
X105032163Y-111277570D01*
X105391712Y-111129008D01*
X105667040Y-110854160D01*
X105816230Y-110494871D01*
X105816261Y-110459404D01*
X106103630Y-110578730D01*
X106219094Y-110578831D01*
X106358497Y-110916212D01*
X106403702Y-110961496D01*
X105984198Y-111381000D01*
X103098600Y-111381000D01*
X102807761Y-111438852D01*
X102561199Y-111603599D01*
X101472464Y-112692334D01*
X101092000Y-112616655D01*
X100518511Y-112730729D01*
X100032330Y-113055585D01*
X99707474Y-113541766D01*
X99593400Y-114115255D01*
X99593400Y-114484745D01*
X99707474Y-115058234D01*
X99972050Y-115454200D01*
X92818344Y-115454200D01*
X93006361Y-115376513D01*
X93914923Y-114469536D01*
X94335128Y-113457567D01*
X95122626Y-113457567D01*
X95450622Y-114251377D01*
X96057428Y-114859244D01*
X96850664Y-115188624D01*
X97709567Y-115189374D01*
X98503377Y-114861378D01*
X99111244Y-114254572D01*
X99440624Y-113461336D01*
X99441374Y-112602433D01*
X99113378Y-111808623D01*
X98506572Y-111200756D01*
X97713336Y-110871376D01*
X96854433Y-110870626D01*
X96060623Y-111198622D01*
X95452756Y-111805428D01*
X95123376Y-112598664D01*
X95122626Y-113457567D01*
X94335128Y-113457567D01*
X94407239Y-113283906D01*
X94408359Y-112000126D01*
X93918113Y-110813639D01*
X93011136Y-109905077D01*
X91862393Y-109428078D01*
X92543085Y-109146822D01*
X93079438Y-108611405D01*
X93235422Y-108235750D01*
X95790000Y-108235750D01*
X95790000Y-108701310D01*
X95886673Y-108934699D01*
X96065302Y-109113327D01*
X96298691Y-109210000D01*
X96889250Y-109210000D01*
X97048000Y-109051250D01*
X97048000Y-108077000D01*
X95948750Y-108077000D01*
X95790000Y-108235750D01*
X93235422Y-108235750D01*
X93370067Y-107911490D01*
X93370689Y-107198690D01*
X95790000Y-107198690D01*
X95790000Y-107664250D01*
X95948750Y-107823000D01*
X97048000Y-107823000D01*
X97048000Y-106848750D01*
X96889250Y-106690000D01*
X96298691Y-106690000D01*
X96065302Y-106786673D01*
X95886673Y-106965301D01*
X95790000Y-107198690D01*
X93370689Y-107198690D01*
X93370729Y-107153635D01*
X93081321Y-106453214D01*
X92601619Y-105972674D01*
X92735178Y-105651028D01*
X92735619Y-105145791D01*
X92542681Y-104678843D01*
X92185736Y-104321275D01*
X91719126Y-104127522D01*
X91236909Y-104127101D01*
X91008509Y-103898701D01*
X91224669Y-103682541D01*
X92100399Y-103682541D01*
X92348164Y-103633258D01*
X92558208Y-103492910D01*
X92698556Y-103282866D01*
X92747839Y-103035101D01*
X92747839Y-101765101D01*
X92729173Y-101671260D01*
X93079438Y-101321606D01*
X93267064Y-100869750D01*
X95790000Y-100869750D01*
X95790000Y-101335310D01*
X95886673Y-101568699D01*
X96065302Y-101747327D01*
X96298691Y-101844000D01*
X96889250Y-101844000D01*
X97048000Y-101685250D01*
X97048000Y-100711000D01*
X95948750Y-100711000D01*
X95790000Y-100869750D01*
X93267064Y-100869750D01*
X93370067Y-100621691D01*
X93370729Y-99863836D01*
X93357860Y-99832690D01*
X95790000Y-99832690D01*
X95790000Y-100298250D01*
X95948750Y-100457000D01*
X97048000Y-100457000D01*
X97048000Y-99482750D01*
X96889250Y-99324000D01*
X96298691Y-99324000D01*
X96065302Y-99420673D01*
X95886673Y-99599301D01*
X95790000Y-99832690D01*
X93357860Y-99832690D01*
X93081321Y-99163415D01*
X92648463Y-98729800D01*
X93048168Y-98729800D01*
X93330053Y-98673730D01*
X93569023Y-98514055D01*
X94301210Y-97781868D01*
X94306549Y-97784257D01*
X94315734Y-97790394D01*
X94323890Y-97792016D01*
X94373674Y-97814293D01*
X94433711Y-97827996D01*
X94488242Y-97829526D01*
X94496294Y-97831603D01*
X94507230Y-97830059D01*
X94516444Y-97830317D01*
X94525492Y-97832117D01*
X94535813Y-97836057D01*
X94544126Y-97835824D01*
X94597619Y-97846464D01*
X94659199Y-97846464D01*
X94712692Y-97835824D01*
X94721005Y-97836057D01*
X94731327Y-97832117D01*
X94740374Y-97830317D01*
X94749596Y-97830059D01*
X94760535Y-97831603D01*
X94768588Y-97829526D01*
X94823107Y-97827996D01*
X94883144Y-97814293D01*
X94932928Y-97792016D01*
X94941084Y-97790394D01*
X94950269Y-97784257D01*
X94958690Y-97780489D01*
X94967629Y-97778183D01*
X94978640Y-97777254D01*
X94986029Y-97773437D01*
X95038832Y-97759816D01*
X95094313Y-97733098D01*
X95137893Y-97700301D01*
X95145485Y-97696904D01*
X95153076Y-97688875D01*
X95160448Y-97683327D01*
X95168643Y-97679093D01*
X95179169Y-97675738D01*
X95185524Y-97670372D01*
X95233984Y-97645336D01*
X95282129Y-97606941D01*
X95317311Y-97565277D01*
X95323956Y-97560276D01*
X95329570Y-97550759D01*
X95335523Y-97543709D01*
X95342578Y-97537752D01*
X95352091Y-97532140D01*
X95357090Y-97525497D01*
X95398759Y-97490311D01*
X95437155Y-97442164D01*
X95462191Y-97393702D01*
X95467555Y-97387350D01*
X95470909Y-97376828D01*
X95475144Y-97368629D01*
X95480682Y-97361271D01*
X95488712Y-97353679D01*
X95492110Y-97346085D01*
X95524913Y-97302497D01*
X95551631Y-97247017D01*
X95565253Y-97194207D01*
X95569070Y-97186819D01*
X95569998Y-97175812D01*
X95572303Y-97166878D01*
X95576077Y-97158443D01*
X95582215Y-97149257D01*
X95583837Y-97141103D01*
X95606105Y-97091340D01*
X95619809Y-97031303D01*
X95621340Y-96976775D01*
X95623418Y-96968719D01*
X95621873Y-96957778D01*
X95622132Y-96948560D01*
X95623929Y-96939524D01*
X95627870Y-96929201D01*
X95627637Y-96920883D01*
X95638280Y-96867371D01*
X95638279Y-96805791D01*
X95627642Y-96752318D01*
X95627875Y-96744009D01*
X95623936Y-96733689D01*
X95622134Y-96724630D01*
X95621874Y-96715382D01*
X95623418Y-96704446D01*
X95621342Y-96696399D01*
X95619814Y-96641906D01*
X95619506Y-96640556D01*
X96057428Y-97079244D01*
X96850664Y-97408624D01*
X97709567Y-97409374D01*
X98503377Y-97081378D01*
X99111244Y-96474572D01*
X99440624Y-95681336D01*
X99441374Y-94822433D01*
X99113378Y-94028623D01*
X98506572Y-93420756D01*
X97713336Y-93091376D01*
X96854433Y-93090626D01*
X96060623Y-93418622D01*
X95673799Y-93804771D01*
X95673799Y-91888950D01*
X95762943Y-91852117D01*
X96026192Y-91589327D01*
X96168838Y-91245799D01*
X96169162Y-90873833D01*
X96120187Y-90755304D01*
X96850664Y-91058624D01*
X97709567Y-91059374D01*
X98503377Y-90731378D01*
X99111244Y-90124572D01*
X99440624Y-89331336D01*
X99441374Y-88472433D01*
X99113378Y-87678623D01*
X98506572Y-87070756D01*
X97713336Y-86741376D01*
X96854433Y-86740626D01*
X96060623Y-87068622D01*
X95673799Y-87454771D01*
X95673799Y-85538950D01*
X95762943Y-85502117D01*
X96026192Y-85239327D01*
X96168838Y-84895799D01*
X96169056Y-84645303D01*
X96298691Y-84699000D01*
X96889250Y-84699000D01*
X97048000Y-84540250D01*
X97048000Y-83566000D01*
X95948750Y-83566000D01*
X95790000Y-83724750D01*
X95790000Y-83942526D01*
X95764327Y-83916808D01*
X95673799Y-83879217D01*
X95673799Y-82687690D01*
X95790000Y-82687690D01*
X95790000Y-83153250D01*
X95948750Y-83312000D01*
X97048000Y-83312000D01*
X97048000Y-82337750D01*
X96889250Y-82179000D01*
X96298691Y-82179000D01*
X96065302Y-82275673D01*
X95886673Y-82454301D01*
X95790000Y-82687690D01*
X95673799Y-82687690D01*
X95673799Y-76358750D01*
X95790000Y-76358750D01*
X95790000Y-76824310D01*
X95886673Y-77057699D01*
X96065302Y-77236327D01*
X96298691Y-77333000D01*
X96889250Y-77333000D01*
X97048000Y-77174250D01*
X97048000Y-76200000D01*
X95948750Y-76200000D01*
X95790000Y-76358750D01*
X95673799Y-76358750D01*
X95673799Y-75321690D01*
X95790000Y-75321690D01*
X95790000Y-75787250D01*
X95948750Y-75946000D01*
X97048000Y-75946000D01*
X97048000Y-74971750D01*
X96889250Y-74813000D01*
X96298691Y-74813000D01*
X96065302Y-74909673D01*
X95886673Y-75088301D01*
X95790000Y-75321690D01*
X95673799Y-75321690D01*
X95673799Y-73694836D01*
X95673800Y-73694831D01*
X95626957Y-73459339D01*
X95617729Y-73412946D01*
X95458054Y-73173976D01*
X93962725Y-71678647D01*
X93723755Y-71518972D01*
X93441870Y-71462902D01*
X93065910Y-71462902D01*
X92747839Y-71144831D01*
X92747839Y-70269101D01*
X92729173Y-70175260D01*
X93079438Y-69825606D01*
X93370067Y-69125691D01*
X93370729Y-68367836D01*
X93081321Y-67667415D01*
X92545904Y-67131062D01*
X91864742Y-66848220D01*
X93006361Y-66376513D01*
X93914923Y-65469536D01*
X94407239Y-64283906D01*
X94408359Y-63000126D01*
X93918113Y-61813639D01*
X93011136Y-60905077D01*
X91825506Y-60412761D01*
X90541726Y-60411641D01*
X89355239Y-60901887D01*
X88669018Y-61586911D01*
X89053337Y-61011737D01*
X89800025Y-60512817D01*
X90748267Y-60324200D01*
X149613333Y-60324200D01*
X150561577Y-60512817D01*
G36*
X108839000Y-114173000D02*
X108859000Y-114173000D01*
X108859000Y-114427000D01*
X108839000Y-114427000D01*
X108839000Y-114447000D01*
X108585000Y-114447000D01*
X108585000Y-114427000D01*
X108565000Y-114427000D01*
X108565000Y-114173000D01*
X108585000Y-114173000D01*
X108585000Y-114153000D01*
X108839000Y-114153000D01*
X108839000Y-114173000D01*
X108839000Y-114173000D01*
G37*
X108839000Y-114173000D02*
X108859000Y-114173000D01*
X108859000Y-114427000D01*
X108839000Y-114427000D01*
X108839000Y-114447000D01*
X108585000Y-114447000D01*
X108585000Y-114427000D01*
X108565000Y-114427000D01*
X108565000Y-114173000D01*
X108585000Y-114173000D01*
X108585000Y-114153000D01*
X108839000Y-114153000D01*
X108839000Y-114173000D01*
G36*
X89323677Y-104622755D02*
X89562647Y-104782430D01*
X89844532Y-104838500D01*
X89864888Y-104838500D01*
X90195598Y-105169210D01*
X90195179Y-105648811D01*
X90329265Y-105973324D01*
X89851360Y-106450395D01*
X89560731Y-107150310D01*
X89560069Y-107908165D01*
X89849477Y-108608586D01*
X90384894Y-109144939D01*
X91028208Y-109412065D01*
X90541726Y-109411641D01*
X89355239Y-109901887D01*
X88446677Y-110808864D01*
X88365800Y-111003638D01*
X88365800Y-103664878D01*
X89323677Y-104622755D01*
X89323677Y-104622755D01*
G37*
X89323677Y-104622755D02*
X89562647Y-104782430D01*
X89844532Y-104838500D01*
X89864888Y-104838500D01*
X90195598Y-105169210D01*
X90195179Y-105648811D01*
X90329265Y-105973324D01*
X89851360Y-106450395D01*
X89560731Y-107150310D01*
X89560069Y-107908165D01*
X89849477Y-108608586D01*
X90384894Y-109144939D01*
X91028208Y-109412065D01*
X90541726Y-109411641D01*
X89355239Y-109901887D01*
X88446677Y-110808864D01*
X88365800Y-111003638D01*
X88365800Y-103664878D01*
X89323677Y-104622755D01*
G36*
X115572000Y-107635198D02*
X114544000Y-108663198D01*
X114544000Y-108215750D01*
X114385250Y-108057000D01*
X113411000Y-108057000D01*
X113411000Y-108077000D01*
X113157000Y-108077000D01*
X113157000Y-108057000D01*
X112182750Y-108057000D01*
X112024000Y-108215750D01*
X112024000Y-108714000D01*
X111232623Y-108714000D01*
X111402765Y-108680157D01*
X111612809Y-108539809D01*
X111753157Y-108329765D01*
X111802440Y-108082000D01*
X111802440Y-107632000D01*
X111782549Y-107532000D01*
X111802440Y-107432000D01*
X111802440Y-106982000D01*
X111782549Y-106882000D01*
X111802440Y-106782000D01*
X111802440Y-106332000D01*
X111782549Y-106232000D01*
X111802440Y-106132000D01*
X111802440Y-106017000D01*
X112011560Y-106017000D01*
X112011560Y-106180000D01*
X112060843Y-106427765D01*
X112201191Y-106637809D01*
X112262320Y-106678654D01*
X112120673Y-106820302D01*
X112024000Y-107053691D01*
X112024000Y-107644250D01*
X112182750Y-107803000D01*
X113157000Y-107803000D01*
X113157000Y-107783000D01*
X113411000Y-107783000D01*
X113411000Y-107803000D01*
X114385250Y-107803000D01*
X114544000Y-107644250D01*
X114544000Y-107053691D01*
X114447327Y-106820302D01*
X114305680Y-106678654D01*
X114366809Y-106637809D01*
X114507157Y-106427765D01*
X114556440Y-106180000D01*
X114556440Y-104680000D01*
X114507157Y-104432235D01*
X114446839Y-104341963D01*
X115572000Y-103216802D01*
X115572000Y-107635198D01*
X115572000Y-107635198D01*
G37*
X115572000Y-107635198D02*
X114544000Y-108663198D01*
X114544000Y-108215750D01*
X114385250Y-108057000D01*
X113411000Y-108057000D01*
X113411000Y-108077000D01*
X113157000Y-108077000D01*
X113157000Y-108057000D01*
X112182750Y-108057000D01*
X112024000Y-108215750D01*
X112024000Y-108714000D01*
X111232623Y-108714000D01*
X111402765Y-108680157D01*
X111612809Y-108539809D01*
X111753157Y-108329765D01*
X111802440Y-108082000D01*
X111802440Y-107632000D01*
X111782549Y-107532000D01*
X111802440Y-107432000D01*
X111802440Y-106982000D01*
X111782549Y-106882000D01*
X111802440Y-106782000D01*
X111802440Y-106332000D01*
X111782549Y-106232000D01*
X111802440Y-106132000D01*
X111802440Y-106017000D01*
X112011560Y-106017000D01*
X112011560Y-106180000D01*
X112060843Y-106427765D01*
X112201191Y-106637809D01*
X112262320Y-106678654D01*
X112120673Y-106820302D01*
X112024000Y-107053691D01*
X112024000Y-107644250D01*
X112182750Y-107803000D01*
X113157000Y-107803000D01*
X113157000Y-107783000D01*
X113411000Y-107783000D01*
X113411000Y-107803000D01*
X114385250Y-107803000D01*
X114544000Y-107644250D01*
X114544000Y-107053691D01*
X114447327Y-106820302D01*
X114305680Y-106678654D01*
X114366809Y-106637809D01*
X114507157Y-106427765D01*
X114556440Y-106180000D01*
X114556440Y-104680000D01*
X114507157Y-104432235D01*
X114446839Y-104341963D01*
X115572000Y-103216802D01*
X115572000Y-107635198D01*
G36*
X107676000Y-96520000D02*
X107696000Y-96520000D01*
X107696000Y-96774000D01*
X107676000Y-96774000D01*
X107676000Y-97748250D01*
X107834750Y-97907000D01*
X108425309Y-97907000D01*
X108658698Y-97810327D01*
X108837327Y-97631699D01*
X108934000Y-97398310D01*
X108934000Y-97054802D01*
X109952599Y-98073401D01*
X110199161Y-98238148D01*
X110490000Y-98296000D01*
X112087727Y-98296000D01*
X112060843Y-98336235D01*
X112011560Y-98584000D01*
X112011560Y-99297000D01*
X111802440Y-99297000D01*
X111802440Y-99182000D01*
X111753157Y-98934235D01*
X111612809Y-98724191D01*
X111402765Y-98583843D01*
X111155000Y-98534560D01*
X109405000Y-98534560D01*
X109157235Y-98583843D01*
X109023597Y-98673138D01*
X108864161Y-98704852D01*
X108617599Y-98869599D01*
X108174599Y-99312599D01*
X108009852Y-99559161D01*
X107952000Y-99850000D01*
X107952000Y-103514000D01*
X108009852Y-103804839D01*
X108174599Y-104051401D01*
X108617599Y-104494401D01*
X108757560Y-104587920D01*
X108757560Y-104832000D01*
X108777451Y-104932000D01*
X108757560Y-105032000D01*
X108757560Y-105482000D01*
X108777451Y-105582000D01*
X108757560Y-105682000D01*
X108757560Y-105926080D01*
X108617599Y-106019599D01*
X106387861Y-108249337D01*
X106388069Y-108010337D01*
X106239507Y-107650788D01*
X105964659Y-107375460D01*
X105605370Y-107226270D01*
X105506986Y-107226184D01*
X104950401Y-106669599D01*
X104703839Y-106504852D01*
X104602440Y-106484682D01*
X104602440Y-106332000D01*
X104582549Y-106232000D01*
X104602440Y-106132000D01*
X104602440Y-105682000D01*
X104588502Y-105611927D01*
X104590000Y-105608310D01*
X104590000Y-105528250D01*
X104567353Y-105505603D01*
X104553157Y-105434235D01*
X104434731Y-105257000D01*
X104553157Y-105079765D01*
X104567353Y-105008397D01*
X104590000Y-104985750D01*
X104590000Y-104905690D01*
X104588502Y-104902073D01*
X104602440Y-104832000D01*
X104602440Y-104382000D01*
X104582549Y-104282000D01*
X104602440Y-104182000D01*
X104602440Y-103732000D01*
X104582549Y-103632000D01*
X104602440Y-103532000D01*
X104602440Y-103082000D01*
X104582549Y-102982000D01*
X104602440Y-102882000D01*
X104602440Y-102432000D01*
X104582549Y-102332000D01*
X104602440Y-102232000D01*
X104602440Y-102115308D01*
X104791841Y-102305040D01*
X105151130Y-102454230D01*
X105540163Y-102454569D01*
X105899712Y-102306007D01*
X106175040Y-102031159D01*
X106324230Y-101671870D01*
X106324569Y-101282837D01*
X106220854Y-101031827D01*
X106324230Y-100782870D01*
X106324569Y-100393837D01*
X106176007Y-100034288D01*
X105901159Y-99758960D01*
X105541870Y-99609770D01*
X105152837Y-99609431D01*
X104793288Y-99757993D01*
X104602440Y-99948508D01*
X104602440Y-99832000D01*
X104582549Y-99732000D01*
X104602440Y-99632000D01*
X104602440Y-99609362D01*
X105586401Y-98625401D01*
X105751148Y-98378839D01*
X105809000Y-98088000D01*
X105809000Y-97917451D01*
X106046765Y-97870157D01*
X106256809Y-97729809D01*
X106297654Y-97668680D01*
X106439302Y-97810327D01*
X106672691Y-97907000D01*
X107263250Y-97907000D01*
X107422000Y-97748250D01*
X107422000Y-96774000D01*
X107402000Y-96774000D01*
X107402000Y-96520000D01*
X107422000Y-96520000D01*
X107422000Y-96500000D01*
X107676000Y-96500000D01*
X107676000Y-96520000D01*
X107676000Y-96520000D01*
G37*
X107676000Y-96520000D02*
X107696000Y-96520000D01*
X107696000Y-96774000D01*
X107676000Y-96774000D01*
X107676000Y-97748250D01*
X107834750Y-97907000D01*
X108425309Y-97907000D01*
X108658698Y-97810327D01*
X108837327Y-97631699D01*
X108934000Y-97398310D01*
X108934000Y-97054802D01*
X109952599Y-98073401D01*
X110199161Y-98238148D01*
X110490000Y-98296000D01*
X112087727Y-98296000D01*
X112060843Y-98336235D01*
X112011560Y-98584000D01*
X112011560Y-99297000D01*
X111802440Y-99297000D01*
X111802440Y-99182000D01*
X111753157Y-98934235D01*
X111612809Y-98724191D01*
X111402765Y-98583843D01*
X111155000Y-98534560D01*
X109405000Y-98534560D01*
X109157235Y-98583843D01*
X109023597Y-98673138D01*
X108864161Y-98704852D01*
X108617599Y-98869599D01*
X108174599Y-99312599D01*
X108009852Y-99559161D01*
X107952000Y-99850000D01*
X107952000Y-103514000D01*
X108009852Y-103804839D01*
X108174599Y-104051401D01*
X108617599Y-104494401D01*
X108757560Y-104587920D01*
X108757560Y-104832000D01*
X108777451Y-104932000D01*
X108757560Y-105032000D01*
X108757560Y-105482000D01*
X108777451Y-105582000D01*
X108757560Y-105682000D01*
X108757560Y-105926080D01*
X108617599Y-106019599D01*
X106387861Y-108249337D01*
X106388069Y-108010337D01*
X106239507Y-107650788D01*
X105964659Y-107375460D01*
X105605370Y-107226270D01*
X105506986Y-107226184D01*
X104950401Y-106669599D01*
X104703839Y-106504852D01*
X104602440Y-106484682D01*
X104602440Y-106332000D01*
X104582549Y-106232000D01*
X104602440Y-106132000D01*
X104602440Y-105682000D01*
X104588502Y-105611927D01*
X104590000Y-105608310D01*
X104590000Y-105528250D01*
X104567353Y-105505603D01*
X104553157Y-105434235D01*
X104434731Y-105257000D01*
X104553157Y-105079765D01*
X104567353Y-105008397D01*
X104590000Y-104985750D01*
X104590000Y-104905690D01*
X104588502Y-104902073D01*
X104602440Y-104832000D01*
X104602440Y-104382000D01*
X104582549Y-104282000D01*
X104602440Y-104182000D01*
X104602440Y-103732000D01*
X104582549Y-103632000D01*
X104602440Y-103532000D01*
X104602440Y-103082000D01*
X104582549Y-102982000D01*
X104602440Y-102882000D01*
X104602440Y-102432000D01*
X104582549Y-102332000D01*
X104602440Y-102232000D01*
X104602440Y-102115308D01*
X104791841Y-102305040D01*
X105151130Y-102454230D01*
X105540163Y-102454569D01*
X105899712Y-102306007D01*
X106175040Y-102031159D01*
X106324230Y-101671870D01*
X106324569Y-101282837D01*
X106220854Y-101031827D01*
X106324230Y-100782870D01*
X106324569Y-100393837D01*
X106176007Y-100034288D01*
X105901159Y-99758960D01*
X105541870Y-99609770D01*
X105152837Y-99609431D01*
X104793288Y-99757993D01*
X104602440Y-99948508D01*
X104602440Y-99832000D01*
X104582549Y-99732000D01*
X104602440Y-99632000D01*
X104602440Y-99609362D01*
X105586401Y-98625401D01*
X105751148Y-98378839D01*
X105809000Y-98088000D01*
X105809000Y-97917451D01*
X106046765Y-97870157D01*
X106256809Y-97729809D01*
X106297654Y-97668680D01*
X106439302Y-97810327D01*
X106672691Y-97907000D01*
X107263250Y-97907000D01*
X107422000Y-97748250D01*
X107422000Y-96774000D01*
X107402000Y-96774000D01*
X107402000Y-96520000D01*
X107422000Y-96520000D01*
X107422000Y-96500000D01*
X107676000Y-96500000D01*
X107676000Y-96520000D01*
G36*
X129459560Y-98918000D02*
X129459560Y-100218000D01*
X129508843Y-100465765D01*
X129649191Y-100675809D01*
X129666998Y-100687707D01*
X129666998Y-100696748D01*
X129508250Y-100538000D01*
X129367690Y-100538000D01*
X129134301Y-100634673D01*
X128955673Y-100813302D01*
X128859000Y-101046691D01*
X128859000Y-101662250D01*
X129017750Y-101821000D01*
X129667000Y-101821000D01*
X129667000Y-101801000D01*
X129921000Y-101801000D01*
X129921000Y-101821000D01*
X130937000Y-101821000D01*
X130937000Y-101801000D01*
X131191000Y-101801000D01*
X131191000Y-101821000D01*
X131211000Y-101821000D01*
X131211000Y-102075000D01*
X131191000Y-102075000D01*
X131191000Y-103199250D01*
X131349750Y-103358000D01*
X131490310Y-103358000D01*
X131707028Y-103268232D01*
X131786235Y-103321157D01*
X132034000Y-103370440D01*
X132634000Y-103370440D01*
X132881765Y-103321157D01*
X132969000Y-103262868D01*
X133056235Y-103321157D01*
X133304000Y-103370440D01*
X133904000Y-103370440D01*
X134151765Y-103321157D01*
X134361809Y-103180809D01*
X134502157Y-102970765D01*
X134551440Y-102723000D01*
X134551440Y-101173000D01*
X134502157Y-100925235D01*
X134443995Y-100838190D01*
X134554765Y-100816157D01*
X134764809Y-100675809D01*
X134905157Y-100465765D01*
X134932560Y-100328000D01*
X135130000Y-100328000D01*
X135130000Y-102557440D01*
X134992235Y-102584843D01*
X134782191Y-102725191D01*
X134641843Y-102935235D01*
X134592560Y-103183000D01*
X134592560Y-103219633D01*
X134536160Y-103230852D01*
X134289599Y-103395599D01*
X133066599Y-104618599D01*
X132901852Y-104865161D01*
X132844000Y-105156000D01*
X132844000Y-105972666D01*
X132760310Y-105938000D01*
X132619750Y-105938000D01*
X132461000Y-106096750D01*
X132461000Y-107221000D01*
X132481000Y-107221000D01*
X132481000Y-107475000D01*
X132461000Y-107475000D01*
X132461000Y-107495000D01*
X132207000Y-107495000D01*
X132207000Y-107475000D01*
X132187000Y-107475000D01*
X132187000Y-107221000D01*
X132207000Y-107221000D01*
X132207000Y-106096750D01*
X132048250Y-105938000D01*
X131907690Y-105938000D01*
X131690972Y-106027768D01*
X131611765Y-105974843D01*
X131364000Y-105925560D01*
X130764000Y-105925560D01*
X130516235Y-105974843D01*
X130429000Y-106033132D01*
X130341765Y-105974843D01*
X130094000Y-105925560D01*
X129494000Y-105925560D01*
X129246235Y-105974843D01*
X129036191Y-106115191D01*
X128993253Y-106179451D01*
X128907440Y-106093638D01*
X128907440Y-105021000D01*
X128858157Y-104773235D01*
X128717809Y-104563191D01*
X128656680Y-104522346D01*
X128798327Y-104380698D01*
X128895000Y-104147309D01*
X128895000Y-103556750D01*
X128736250Y-103398000D01*
X127762000Y-103398000D01*
X127762000Y-103418000D01*
X127508000Y-103418000D01*
X127508000Y-103398000D01*
X125603000Y-103398000D01*
X125603000Y-103418000D01*
X125349000Y-103418000D01*
X125349000Y-103398000D01*
X125329000Y-103398000D01*
X125329000Y-103144000D01*
X125349000Y-103144000D01*
X125349000Y-102044750D01*
X125603000Y-102044750D01*
X125603000Y-103144000D01*
X127508000Y-103144000D01*
X127508000Y-102044750D01*
X127762000Y-102044750D01*
X127762000Y-103144000D01*
X128736250Y-103144000D01*
X128895000Y-102985250D01*
X128895000Y-102936221D01*
X128955673Y-103082698D01*
X129134301Y-103261327D01*
X129367690Y-103358000D01*
X129508250Y-103358000D01*
X129667000Y-103199250D01*
X129667000Y-102075000D01*
X129921000Y-102075000D01*
X129921000Y-103199250D01*
X130079750Y-103358000D01*
X130220310Y-103358000D01*
X130429000Y-103271558D01*
X130637690Y-103358000D01*
X130778250Y-103358000D01*
X130937000Y-103199250D01*
X130937000Y-102075000D01*
X129921000Y-102075000D01*
X129667000Y-102075000D01*
X129017750Y-102075000D01*
X128859000Y-102233750D01*
X128859000Y-102307779D01*
X128798327Y-102161302D01*
X128619699Y-101982673D01*
X128386310Y-101886000D01*
X127920750Y-101886000D01*
X127762000Y-102044750D01*
X127508000Y-102044750D01*
X127349250Y-101886000D01*
X126883690Y-101886000D01*
X126650301Y-101982673D01*
X126555500Y-102077475D01*
X126460699Y-101982673D01*
X126227310Y-101886000D01*
X125761750Y-101886000D01*
X125603000Y-102044750D01*
X125349000Y-102044750D01*
X125190250Y-101886000D01*
X124724690Y-101886000D01*
X124491301Y-101982673D01*
X124331000Y-102142975D01*
X124331000Y-101406802D01*
X126933802Y-98804000D01*
X129482236Y-98804000D01*
X129459560Y-98918000D01*
X129459560Y-98918000D01*
G37*
X129459560Y-98918000D02*
X129459560Y-100218000D01*
X129508843Y-100465765D01*
X129649191Y-100675809D01*
X129666998Y-100687707D01*
X129666998Y-100696748D01*
X129508250Y-100538000D01*
X129367690Y-100538000D01*
X129134301Y-100634673D01*
X128955673Y-100813302D01*
X128859000Y-101046691D01*
X128859000Y-101662250D01*
X129017750Y-101821000D01*
X129667000Y-101821000D01*
X129667000Y-101801000D01*
X129921000Y-101801000D01*
X129921000Y-101821000D01*
X130937000Y-101821000D01*
X130937000Y-101801000D01*
X131191000Y-101801000D01*
X131191000Y-101821000D01*
X131211000Y-101821000D01*
X131211000Y-102075000D01*
X131191000Y-102075000D01*
X131191000Y-103199250D01*
X131349750Y-103358000D01*
X131490310Y-103358000D01*
X131707028Y-103268232D01*
X131786235Y-103321157D01*
X132034000Y-103370440D01*
X132634000Y-103370440D01*
X132881765Y-103321157D01*
X132969000Y-103262868D01*
X133056235Y-103321157D01*
X133304000Y-103370440D01*
X133904000Y-103370440D01*
X134151765Y-103321157D01*
X134361809Y-103180809D01*
X134502157Y-102970765D01*
X134551440Y-102723000D01*
X134551440Y-101173000D01*
X134502157Y-100925235D01*
X134443995Y-100838190D01*
X134554765Y-100816157D01*
X134764809Y-100675809D01*
X134905157Y-100465765D01*
X134932560Y-100328000D01*
X135130000Y-100328000D01*
X135130000Y-102557440D01*
X134992235Y-102584843D01*
X134782191Y-102725191D01*
X134641843Y-102935235D01*
X134592560Y-103183000D01*
X134592560Y-103219633D01*
X134536160Y-103230852D01*
X134289599Y-103395599D01*
X133066599Y-104618599D01*
X132901852Y-104865161D01*
X132844000Y-105156000D01*
X132844000Y-105972666D01*
X132760310Y-105938000D01*
X132619750Y-105938000D01*
X132461000Y-106096750D01*
X132461000Y-107221000D01*
X132481000Y-107221000D01*
X132481000Y-107475000D01*
X132461000Y-107475000D01*
X132461000Y-107495000D01*
X132207000Y-107495000D01*
X132207000Y-107475000D01*
X132187000Y-107475000D01*
X132187000Y-107221000D01*
X132207000Y-107221000D01*
X132207000Y-106096750D01*
X132048250Y-105938000D01*
X131907690Y-105938000D01*
X131690972Y-106027768D01*
X131611765Y-105974843D01*
X131364000Y-105925560D01*
X130764000Y-105925560D01*
X130516235Y-105974843D01*
X130429000Y-106033132D01*
X130341765Y-105974843D01*
X130094000Y-105925560D01*
X129494000Y-105925560D01*
X129246235Y-105974843D01*
X129036191Y-106115191D01*
X128993253Y-106179451D01*
X128907440Y-106093638D01*
X128907440Y-105021000D01*
X128858157Y-104773235D01*
X128717809Y-104563191D01*
X128656680Y-104522346D01*
X128798327Y-104380698D01*
X128895000Y-104147309D01*
X128895000Y-103556750D01*
X128736250Y-103398000D01*
X127762000Y-103398000D01*
X127762000Y-103418000D01*
X127508000Y-103418000D01*
X127508000Y-103398000D01*
X125603000Y-103398000D01*
X125603000Y-103418000D01*
X125349000Y-103418000D01*
X125349000Y-103398000D01*
X125329000Y-103398000D01*
X125329000Y-103144000D01*
X125349000Y-103144000D01*
X125349000Y-102044750D01*
X125603000Y-102044750D01*
X125603000Y-103144000D01*
X127508000Y-103144000D01*
X127508000Y-102044750D01*
X127762000Y-102044750D01*
X127762000Y-103144000D01*
X128736250Y-103144000D01*
X128895000Y-102985250D01*
X128895000Y-102936221D01*
X128955673Y-103082698D01*
X129134301Y-103261327D01*
X129367690Y-103358000D01*
X129508250Y-103358000D01*
X129667000Y-103199250D01*
X129667000Y-102075000D01*
X129921000Y-102075000D01*
X129921000Y-103199250D01*
X130079750Y-103358000D01*
X130220310Y-103358000D01*
X130429000Y-103271558D01*
X130637690Y-103358000D01*
X130778250Y-103358000D01*
X130937000Y-103199250D01*
X130937000Y-102075000D01*
X129921000Y-102075000D01*
X129667000Y-102075000D01*
X129017750Y-102075000D01*
X128859000Y-102233750D01*
X128859000Y-102307779D01*
X128798327Y-102161302D01*
X128619699Y-101982673D01*
X128386310Y-101886000D01*
X127920750Y-101886000D01*
X127762000Y-102044750D01*
X127508000Y-102044750D01*
X127349250Y-101886000D01*
X126883690Y-101886000D01*
X126650301Y-101982673D01*
X126555500Y-102077475D01*
X126460699Y-101982673D01*
X126227310Y-101886000D01*
X125761750Y-101886000D01*
X125603000Y-102044750D01*
X125349000Y-102044750D01*
X125190250Y-101886000D01*
X124724690Y-101886000D01*
X124491301Y-101982673D01*
X124331000Y-102142975D01*
X124331000Y-101406802D01*
X126933802Y-98804000D01*
X129482236Y-98804000D01*
X129459560Y-98918000D01*
G36*
X114866630Y-100291726D02*
X115064000Y-100291898D01*
X115064000Y-101575198D01*
X114531724Y-102107474D01*
X114385250Y-101961000D01*
X113411000Y-101961000D01*
X113411000Y-103060250D01*
X113494974Y-103144224D01*
X112774000Y-103865198D01*
X112774000Y-103219000D01*
X112998250Y-103219000D01*
X113157000Y-103060250D01*
X113157000Y-101961000D01*
X113137000Y-101961000D01*
X113137000Y-101707000D01*
X113157000Y-101707000D01*
X113157000Y-101687000D01*
X113411000Y-101687000D01*
X113411000Y-101707000D01*
X114385250Y-101707000D01*
X114544000Y-101548250D01*
X114544000Y-100957691D01*
X114447327Y-100724302D01*
X114305680Y-100582654D01*
X114366809Y-100541809D01*
X114507157Y-100331765D01*
X114541939Y-100156902D01*
X114866630Y-100291726D01*
X114866630Y-100291726D01*
G37*
X114866630Y-100291726D02*
X115064000Y-100291898D01*
X115064000Y-101575198D01*
X114531724Y-102107474D01*
X114385250Y-101961000D01*
X113411000Y-101961000D01*
X113411000Y-103060250D01*
X113494974Y-103144224D01*
X112774000Y-103865198D01*
X112774000Y-103219000D01*
X112998250Y-103219000D01*
X113157000Y-103060250D01*
X113157000Y-101961000D01*
X113137000Y-101961000D01*
X113137000Y-101707000D01*
X113157000Y-101707000D01*
X113157000Y-101687000D01*
X113411000Y-101687000D01*
X113411000Y-101707000D01*
X114385250Y-101707000D01*
X114544000Y-101548250D01*
X114544000Y-100957691D01*
X114447327Y-100724302D01*
X114305680Y-100582654D01*
X114366809Y-100541809D01*
X114507157Y-100331765D01*
X114541939Y-100156902D01*
X114866630Y-100291726D01*
G36*
X141170622Y-96471377D02*
X141777428Y-97079244D01*
X142273173Y-97285095D01*
X142053235Y-97328843D01*
X141843191Y-97469191D01*
X141702843Y-97679235D01*
X141653560Y-97927000D01*
X141653560Y-98527000D01*
X141702843Y-98774765D01*
X141761132Y-98862000D01*
X141702843Y-98949235D01*
X141653560Y-99197000D01*
X141653560Y-99797000D01*
X141702843Y-100044765D01*
X141761132Y-100132000D01*
X141702843Y-100219235D01*
X141653560Y-100467000D01*
X141653560Y-101067000D01*
X141702843Y-101314765D01*
X141755768Y-101393972D01*
X141666000Y-101610690D01*
X141666000Y-101751250D01*
X141824748Y-101909998D01*
X141666000Y-101909998D01*
X141666000Y-102022231D01*
X141587401Y-101904599D01*
X140155200Y-100472398D01*
X140155200Y-98145600D01*
X140097348Y-97854761D01*
X139956064Y-97643314D01*
X139965750Y-97653000D01*
X140556309Y-97653000D01*
X140789698Y-97556327D01*
X140968327Y-97377699D01*
X141065000Y-97144310D01*
X141065000Y-96678750D01*
X140906250Y-96520000D01*
X139807000Y-96520000D01*
X139807000Y-96540000D01*
X139553000Y-96540000D01*
X139553000Y-96520000D01*
X139533000Y-96520000D01*
X139533000Y-96266000D01*
X139553000Y-96266000D01*
X139553000Y-96246000D01*
X139807000Y-96246000D01*
X139807000Y-96266000D01*
X140906250Y-96266000D01*
X141033276Y-96138974D01*
X141170622Y-96471377D01*
X141170622Y-96471377D01*
G37*
X141170622Y-96471377D02*
X141777428Y-97079244D01*
X142273173Y-97285095D01*
X142053235Y-97328843D01*
X141843191Y-97469191D01*
X141702843Y-97679235D01*
X141653560Y-97927000D01*
X141653560Y-98527000D01*
X141702843Y-98774765D01*
X141761132Y-98862000D01*
X141702843Y-98949235D01*
X141653560Y-99197000D01*
X141653560Y-99797000D01*
X141702843Y-100044765D01*
X141761132Y-100132000D01*
X141702843Y-100219235D01*
X141653560Y-100467000D01*
X141653560Y-101067000D01*
X141702843Y-101314765D01*
X141755768Y-101393972D01*
X141666000Y-101610690D01*
X141666000Y-101751250D01*
X141824748Y-101909998D01*
X141666000Y-101909998D01*
X141666000Y-102022231D01*
X141587401Y-101904599D01*
X140155200Y-100472398D01*
X140155200Y-98145600D01*
X140097348Y-97854761D01*
X139956064Y-97643314D01*
X139965750Y-97653000D01*
X140556309Y-97653000D01*
X140789698Y-97556327D01*
X140968327Y-97377699D01*
X141065000Y-97144310D01*
X141065000Y-96678750D01*
X140906250Y-96520000D01*
X139807000Y-96520000D01*
X139807000Y-96540000D01*
X139553000Y-96540000D01*
X139553000Y-96520000D01*
X139533000Y-96520000D01*
X139533000Y-96266000D01*
X139553000Y-96266000D01*
X139553000Y-96246000D01*
X139807000Y-96246000D01*
X139807000Y-96266000D01*
X140906250Y-96266000D01*
X141033276Y-96138974D01*
X141170622Y-96471377D01*
G36*
X108556346Y-85858748D02*
X108491400Y-86185255D01*
X108491400Y-86554745D01*
X108605474Y-87128234D01*
X108930330Y-87614415D01*
X109416511Y-87939271D01*
X109990000Y-88053345D01*
X110329355Y-87985843D01*
X109534327Y-88780871D01*
X109086791Y-88565291D01*
X109071026Y-88562642D01*
X108839000Y-88683783D01*
X108839000Y-90043000D01*
X108859000Y-90043000D01*
X108859000Y-90297000D01*
X108839000Y-90297000D01*
X108839000Y-91656217D01*
X109071026Y-91777358D01*
X109086791Y-91774709D01*
X109270934Y-91686006D01*
X109279852Y-91730839D01*
X109444599Y-91977401D01*
X110198596Y-92731398D01*
X110192330Y-92735585D01*
X109867474Y-93221766D01*
X109833644Y-93391842D01*
X108104334Y-91662532D01*
X108337209Y-91774709D01*
X108352974Y-91777358D01*
X108585000Y-91656217D01*
X108585000Y-90297000D01*
X108565000Y-90297000D01*
X108565000Y-90043000D01*
X108585000Y-90043000D01*
X108585000Y-88683783D01*
X108352974Y-88562642D01*
X108337209Y-88565291D01*
X107809964Y-88819268D01*
X107438461Y-89235069D01*
X107231670Y-88925585D01*
X106745489Y-88600729D01*
X106172000Y-88486655D01*
X105598511Y-88600729D01*
X105112330Y-88925585D01*
X104902000Y-89240366D01*
X104691670Y-88925585D01*
X104205489Y-88600729D01*
X103866164Y-88533233D01*
X106468102Y-85931295D01*
X106632849Y-85684733D01*
X106690701Y-85393894D01*
X106690701Y-83993103D01*
X108556346Y-85858748D01*
X108556346Y-85858748D01*
G37*
X108556346Y-85858748D02*
X108491400Y-86185255D01*
X108491400Y-86554745D01*
X108605474Y-87128234D01*
X108930330Y-87614415D01*
X109416511Y-87939271D01*
X109990000Y-88053345D01*
X110329355Y-87985843D01*
X109534327Y-88780871D01*
X109086791Y-88565291D01*
X109071026Y-88562642D01*
X108839000Y-88683783D01*
X108839000Y-90043000D01*
X108859000Y-90043000D01*
X108859000Y-90297000D01*
X108839000Y-90297000D01*
X108839000Y-91656217D01*
X109071026Y-91777358D01*
X109086791Y-91774709D01*
X109270934Y-91686006D01*
X109279852Y-91730839D01*
X109444599Y-91977401D01*
X110198596Y-92731398D01*
X110192330Y-92735585D01*
X109867474Y-93221766D01*
X109833644Y-93391842D01*
X108104334Y-91662532D01*
X108337209Y-91774709D01*
X108352974Y-91777358D01*
X108585000Y-91656217D01*
X108585000Y-90297000D01*
X108565000Y-90297000D01*
X108565000Y-90043000D01*
X108585000Y-90043000D01*
X108585000Y-88683783D01*
X108352974Y-88562642D01*
X108337209Y-88565291D01*
X107809964Y-88819268D01*
X107438461Y-89235069D01*
X107231670Y-88925585D01*
X106745489Y-88600729D01*
X106172000Y-88486655D01*
X105598511Y-88600729D01*
X105112330Y-88925585D01*
X104902000Y-89240366D01*
X104691670Y-88925585D01*
X104205489Y-88600729D01*
X103866164Y-88533233D01*
X106468102Y-85931295D01*
X106632849Y-85684733D01*
X106690701Y-85393894D01*
X106690701Y-83993103D01*
X108556346Y-85858748D01*
G36*
X130002000Y-74947250D02*
X130160750Y-75106000D01*
X130810000Y-75106000D01*
X130810000Y-75086000D01*
X131064000Y-75086000D01*
X131064000Y-75106000D01*
X132080000Y-75106000D01*
X132080000Y-75086000D01*
X132334000Y-75086000D01*
X132334000Y-75106000D01*
X133350000Y-75106000D01*
X133350000Y-75086000D01*
X133604000Y-75086000D01*
X133604000Y-75106000D01*
X134620000Y-75106000D01*
X134620000Y-75086000D01*
X134874000Y-75086000D01*
X134874000Y-75106000D01*
X134894000Y-75106000D01*
X134894000Y-75360000D01*
X134874000Y-75360000D01*
X134874000Y-76609250D01*
X135032750Y-76768000D01*
X135173310Y-76768000D01*
X135390028Y-76678232D01*
X135469235Y-76731157D01*
X135717000Y-76780440D01*
X136317000Y-76780440D01*
X136564765Y-76731157D01*
X136652000Y-76672868D01*
X136739235Y-76731157D01*
X136987000Y-76780440D01*
X137587000Y-76780440D01*
X137834765Y-76731157D01*
X137922000Y-76672868D01*
X138009235Y-76731157D01*
X138016376Y-76732577D01*
X138019599Y-76737401D01*
X140325599Y-79043401D01*
X140572160Y-79208148D01*
X140583447Y-79210393D01*
X140863000Y-79266000D01*
X140969549Y-79266000D01*
X141016843Y-79503765D01*
X141157191Y-79713809D01*
X141218320Y-79754654D01*
X141076673Y-79896302D01*
X140980000Y-80129691D01*
X140980000Y-80720250D01*
X141138750Y-80879000D01*
X142113000Y-80879000D01*
X142113000Y-80859000D01*
X142367000Y-80859000D01*
X142367000Y-80879000D01*
X143341250Y-80879000D01*
X143375810Y-80844440D01*
X145796000Y-83264630D01*
X145796000Y-85103941D01*
X145715659Y-85023460D01*
X145356370Y-84874270D01*
X144967337Y-84873931D01*
X144607788Y-85022493D01*
X144332460Y-85297341D01*
X144183270Y-85656630D01*
X144182931Y-86045663D01*
X144331493Y-86405212D01*
X144401000Y-86474840D01*
X144401000Y-87245489D01*
X144226572Y-87070756D01*
X143433336Y-86741376D01*
X142574433Y-86740626D01*
X141780623Y-87068622D01*
X141172756Y-87675428D01*
X141049987Y-87971090D01*
X140587000Y-87508104D01*
X140587000Y-85887530D01*
X140725157Y-85680765D01*
X140774440Y-85433000D01*
X140774440Y-83633000D01*
X140725157Y-83385235D01*
X140584809Y-83175191D01*
X140374765Y-83034843D01*
X140127000Y-82985560D01*
X139813363Y-82985560D01*
X138119553Y-81291750D01*
X140980000Y-81291750D01*
X140980000Y-81882309D01*
X141076673Y-82115698D01*
X141255301Y-82294327D01*
X141488690Y-82391000D01*
X141954250Y-82391000D01*
X142113000Y-82232250D01*
X142113000Y-81133000D01*
X142367000Y-81133000D01*
X142367000Y-82232250D01*
X142525750Y-82391000D01*
X142991310Y-82391000D01*
X143224699Y-82294327D01*
X143403327Y-82115698D01*
X143500000Y-81882309D01*
X143500000Y-81291750D01*
X143341250Y-81133000D01*
X142367000Y-81133000D01*
X142113000Y-81133000D01*
X141138750Y-81133000D01*
X140980000Y-81291750D01*
X138119553Y-81291750D01*
X138104825Y-81277022D01*
X138225300Y-81227243D01*
X138629324Y-80823923D01*
X138848250Y-80296691D01*
X138848748Y-79725813D01*
X138630743Y-79198200D01*
X138227423Y-78794176D01*
X137700191Y-78575250D01*
X137129313Y-78574752D01*
X136601700Y-78792757D01*
X136264859Y-79129011D01*
X136063659Y-78927460D01*
X135704370Y-78778270D01*
X135315337Y-78777931D01*
X134955788Y-78926493D01*
X134680460Y-79201341D01*
X134531270Y-79560630D01*
X134531156Y-79691309D01*
X134384288Y-79751993D01*
X134108960Y-80026841D01*
X133959770Y-80386130D01*
X133959431Y-80775163D01*
X134107993Y-81134712D01*
X134382841Y-81410040D01*
X134742130Y-81559230D01*
X134926118Y-81559390D01*
X134807460Y-81677841D01*
X134658270Y-82037130D01*
X134657931Y-82426163D01*
X134806493Y-82785712D01*
X135025574Y-83005176D01*
X134874000Y-83156750D01*
X134874000Y-84406000D01*
X135890000Y-84406000D01*
X135890000Y-84386000D01*
X136144000Y-84386000D01*
X136144000Y-84406000D01*
X136164000Y-84406000D01*
X136164000Y-84660000D01*
X136144000Y-84660000D01*
X136144000Y-85909250D01*
X136302750Y-86068000D01*
X136443310Y-86068000D01*
X136660028Y-85978232D01*
X136739235Y-86031157D01*
X136987000Y-86080440D01*
X137587000Y-86080440D01*
X137797000Y-86038669D01*
X137797000Y-87122000D01*
X137854852Y-87412839D01*
X138019599Y-87659401D01*
X138904117Y-88543919D01*
X138618511Y-88600729D01*
X138361356Y-88772554D01*
X136935401Y-87346599D01*
X136688839Y-87181852D01*
X136398000Y-87124000D01*
X133537802Y-87124000D01*
X133125401Y-86711599D01*
X132878839Y-86546852D01*
X132588000Y-86489000D01*
X131124802Y-86489000D01*
X130839401Y-86203599D01*
X130636462Y-86068000D01*
X130651250Y-86068000D01*
X130810000Y-85909250D01*
X130810000Y-84660000D01*
X131064000Y-84660000D01*
X131064000Y-85909250D01*
X131222750Y-86068000D01*
X131363310Y-86068000D01*
X131572000Y-85981558D01*
X131780690Y-86068000D01*
X131921250Y-86068000D01*
X132080000Y-85909250D01*
X132080000Y-84660000D01*
X132334000Y-84660000D01*
X132334000Y-85909250D01*
X132492750Y-86068000D01*
X132633310Y-86068000D01*
X132842000Y-85981558D01*
X133050690Y-86068000D01*
X133191250Y-86068000D01*
X133350000Y-85909250D01*
X133350000Y-84660000D01*
X133604000Y-84660000D01*
X133604000Y-85909250D01*
X133762750Y-86068000D01*
X133903310Y-86068000D01*
X134112000Y-85981558D01*
X134320690Y-86068000D01*
X134461250Y-86068000D01*
X134620000Y-85909250D01*
X134620000Y-84660000D01*
X134874000Y-84660000D01*
X134874000Y-85909250D01*
X135032750Y-86068000D01*
X135173310Y-86068000D01*
X135382000Y-85981558D01*
X135590690Y-86068000D01*
X135731250Y-86068000D01*
X135890000Y-85909250D01*
X135890000Y-84660000D01*
X134874000Y-84660000D01*
X134620000Y-84660000D01*
X133604000Y-84660000D01*
X133350000Y-84660000D01*
X132334000Y-84660000D01*
X132080000Y-84660000D01*
X131064000Y-84660000D01*
X130810000Y-84660000D01*
X130160750Y-84660000D01*
X130002000Y-84818750D01*
X130002000Y-85559309D01*
X130098673Y-85792698D01*
X130277301Y-85971327D01*
X130300654Y-85981000D01*
X129219802Y-85981000D01*
X128299401Y-85060599D01*
X128052839Y-84895852D01*
X127762000Y-84838000D01*
X126171802Y-84838000D01*
X124966000Y-83632198D01*
X124966000Y-83506691D01*
X130002000Y-83506691D01*
X130002000Y-84247250D01*
X130160750Y-84406000D01*
X130810000Y-84406000D01*
X130810000Y-83156750D01*
X131064000Y-83156750D01*
X131064000Y-84406000D01*
X132080000Y-84406000D01*
X132080000Y-83156750D01*
X132334000Y-83156750D01*
X132334000Y-84406000D01*
X133350000Y-84406000D01*
X133350000Y-83156750D01*
X133604000Y-83156750D01*
X133604000Y-84406000D01*
X134620000Y-84406000D01*
X134620000Y-83156750D01*
X134461250Y-82998000D01*
X134320690Y-82998000D01*
X134112000Y-83084442D01*
X133903310Y-82998000D01*
X133762750Y-82998000D01*
X133604000Y-83156750D01*
X133350000Y-83156750D01*
X133191250Y-82998000D01*
X133050690Y-82998000D01*
X132842000Y-83084442D01*
X132633310Y-82998000D01*
X132492750Y-82998000D01*
X132334000Y-83156750D01*
X132080000Y-83156750D01*
X131921250Y-82998000D01*
X131780690Y-82998000D01*
X131572000Y-83084442D01*
X131363310Y-82998000D01*
X131222750Y-82998000D01*
X131064000Y-83156750D01*
X130810000Y-83156750D01*
X130651250Y-82998000D01*
X130510690Y-82998000D01*
X130277301Y-83094673D01*
X130098673Y-83273302D01*
X130002000Y-83506691D01*
X124966000Y-83506691D01*
X124966000Y-80286661D01*
X128516258Y-80286661D01*
X128728490Y-80800303D01*
X129121130Y-81193629D01*
X129634400Y-81406757D01*
X130190161Y-81407242D01*
X130703803Y-81195010D01*
X131097129Y-80802370D01*
X131310257Y-80289100D01*
X131310742Y-79733339D01*
X131098510Y-79219697D01*
X130705870Y-78826371D01*
X130192600Y-78613243D01*
X129636839Y-78612758D01*
X129123197Y-78824990D01*
X128729871Y-79217630D01*
X128516743Y-79730900D01*
X128516258Y-80286661D01*
X124966000Y-80286661D01*
X124966000Y-77022802D01*
X126470052Y-75518750D01*
X130002000Y-75518750D01*
X130002000Y-76259309D01*
X130098673Y-76492698D01*
X130277301Y-76671327D01*
X130510690Y-76768000D01*
X130651250Y-76768000D01*
X130810000Y-76609250D01*
X130810000Y-75360000D01*
X131064000Y-75360000D01*
X131064000Y-76609250D01*
X131222750Y-76768000D01*
X131363310Y-76768000D01*
X131572000Y-76681558D01*
X131780690Y-76768000D01*
X131921250Y-76768000D01*
X132080000Y-76609250D01*
X132080000Y-75360000D01*
X132334000Y-75360000D01*
X132334000Y-76609250D01*
X132492750Y-76768000D01*
X132633310Y-76768000D01*
X132842000Y-76681558D01*
X133050690Y-76768000D01*
X133191250Y-76768000D01*
X133350000Y-76609250D01*
X133350000Y-75360000D01*
X133604000Y-75360000D01*
X133604000Y-76609250D01*
X133762750Y-76768000D01*
X133903310Y-76768000D01*
X134112000Y-76681558D01*
X134320690Y-76768000D01*
X134461250Y-76768000D01*
X134620000Y-76609250D01*
X134620000Y-75360000D01*
X133604000Y-75360000D01*
X133350000Y-75360000D01*
X132334000Y-75360000D01*
X132080000Y-75360000D01*
X131064000Y-75360000D01*
X130810000Y-75360000D01*
X130160750Y-75360000D01*
X130002000Y-75518750D01*
X126470052Y-75518750D01*
X126933802Y-75055000D01*
X129413000Y-75055000D01*
X129703839Y-74997148D01*
X129950401Y-74832401D01*
X130002000Y-74780802D01*
X130002000Y-74947250D01*
X130002000Y-74947250D01*
G37*
X130002000Y-74947250D02*
X130160750Y-75106000D01*
X130810000Y-75106000D01*
X130810000Y-75086000D01*
X131064000Y-75086000D01*
X131064000Y-75106000D01*
X132080000Y-75106000D01*
X132080000Y-75086000D01*
X132334000Y-75086000D01*
X132334000Y-75106000D01*
X133350000Y-75106000D01*
X133350000Y-75086000D01*
X133604000Y-75086000D01*
X133604000Y-75106000D01*
X134620000Y-75106000D01*
X134620000Y-75086000D01*
X134874000Y-75086000D01*
X134874000Y-75106000D01*
X134894000Y-75106000D01*
X134894000Y-75360000D01*
X134874000Y-75360000D01*
X134874000Y-76609250D01*
X135032750Y-76768000D01*
X135173310Y-76768000D01*
X135390028Y-76678232D01*
X135469235Y-76731157D01*
X135717000Y-76780440D01*
X136317000Y-76780440D01*
X136564765Y-76731157D01*
X136652000Y-76672868D01*
X136739235Y-76731157D01*
X136987000Y-76780440D01*
X137587000Y-76780440D01*
X137834765Y-76731157D01*
X137922000Y-76672868D01*
X138009235Y-76731157D01*
X138016376Y-76732577D01*
X138019599Y-76737401D01*
X140325599Y-79043401D01*
X140572160Y-79208148D01*
X140583447Y-79210393D01*
X140863000Y-79266000D01*
X140969549Y-79266000D01*
X141016843Y-79503765D01*
X141157191Y-79713809D01*
X141218320Y-79754654D01*
X141076673Y-79896302D01*
X140980000Y-80129691D01*
X140980000Y-80720250D01*
X141138750Y-80879000D01*
X142113000Y-80879000D01*
X142113000Y-80859000D01*
X142367000Y-80859000D01*
X142367000Y-80879000D01*
X143341250Y-80879000D01*
X143375810Y-80844440D01*
X145796000Y-83264630D01*
X145796000Y-85103941D01*
X145715659Y-85023460D01*
X145356370Y-84874270D01*
X144967337Y-84873931D01*
X144607788Y-85022493D01*
X144332460Y-85297341D01*
X144183270Y-85656630D01*
X144182931Y-86045663D01*
X144331493Y-86405212D01*
X144401000Y-86474840D01*
X144401000Y-87245489D01*
X144226572Y-87070756D01*
X143433336Y-86741376D01*
X142574433Y-86740626D01*
X141780623Y-87068622D01*
X141172756Y-87675428D01*
X141049987Y-87971090D01*
X140587000Y-87508104D01*
X140587000Y-85887530D01*
X140725157Y-85680765D01*
X140774440Y-85433000D01*
X140774440Y-83633000D01*
X140725157Y-83385235D01*
X140584809Y-83175191D01*
X140374765Y-83034843D01*
X140127000Y-82985560D01*
X139813363Y-82985560D01*
X138119553Y-81291750D01*
X140980000Y-81291750D01*
X140980000Y-81882309D01*
X141076673Y-82115698D01*
X141255301Y-82294327D01*
X141488690Y-82391000D01*
X141954250Y-82391000D01*
X142113000Y-82232250D01*
X142113000Y-81133000D01*
X142367000Y-81133000D01*
X142367000Y-82232250D01*
X142525750Y-82391000D01*
X142991310Y-82391000D01*
X143224699Y-82294327D01*
X143403327Y-82115698D01*
X143500000Y-81882309D01*
X143500000Y-81291750D01*
X143341250Y-81133000D01*
X142367000Y-81133000D01*
X142113000Y-81133000D01*
X141138750Y-81133000D01*
X140980000Y-81291750D01*
X138119553Y-81291750D01*
X138104825Y-81277022D01*
X138225300Y-81227243D01*
X138629324Y-80823923D01*
X138848250Y-80296691D01*
X138848748Y-79725813D01*
X138630743Y-79198200D01*
X138227423Y-78794176D01*
X137700191Y-78575250D01*
X137129313Y-78574752D01*
X136601700Y-78792757D01*
X136264859Y-79129011D01*
X136063659Y-78927460D01*
X135704370Y-78778270D01*
X135315337Y-78777931D01*
X134955788Y-78926493D01*
X134680460Y-79201341D01*
X134531270Y-79560630D01*
X134531156Y-79691309D01*
X134384288Y-79751993D01*
X134108960Y-80026841D01*
X133959770Y-80386130D01*
X133959431Y-80775163D01*
X134107993Y-81134712D01*
X134382841Y-81410040D01*
X134742130Y-81559230D01*
X134926118Y-81559390D01*
X134807460Y-81677841D01*
X134658270Y-82037130D01*
X134657931Y-82426163D01*
X134806493Y-82785712D01*
X135025574Y-83005176D01*
X134874000Y-83156750D01*
X134874000Y-84406000D01*
X135890000Y-84406000D01*
X135890000Y-84386000D01*
X136144000Y-84386000D01*
X136144000Y-84406000D01*
X136164000Y-84406000D01*
X136164000Y-84660000D01*
X136144000Y-84660000D01*
X136144000Y-85909250D01*
X136302750Y-86068000D01*
X136443310Y-86068000D01*
X136660028Y-85978232D01*
X136739235Y-86031157D01*
X136987000Y-86080440D01*
X137587000Y-86080440D01*
X137797000Y-86038669D01*
X137797000Y-87122000D01*
X137854852Y-87412839D01*
X138019599Y-87659401D01*
X138904117Y-88543919D01*
X138618511Y-88600729D01*
X138361356Y-88772554D01*
X136935401Y-87346599D01*
X136688839Y-87181852D01*
X136398000Y-87124000D01*
X133537802Y-87124000D01*
X133125401Y-86711599D01*
X132878839Y-86546852D01*
X132588000Y-86489000D01*
X131124802Y-86489000D01*
X130839401Y-86203599D01*
X130636462Y-86068000D01*
X130651250Y-86068000D01*
X130810000Y-85909250D01*
X130810000Y-84660000D01*
X131064000Y-84660000D01*
X131064000Y-85909250D01*
X131222750Y-86068000D01*
X131363310Y-86068000D01*
X131572000Y-85981558D01*
X131780690Y-86068000D01*
X131921250Y-86068000D01*
X132080000Y-85909250D01*
X132080000Y-84660000D01*
X132334000Y-84660000D01*
X132334000Y-85909250D01*
X132492750Y-86068000D01*
X132633310Y-86068000D01*
X132842000Y-85981558D01*
X133050690Y-86068000D01*
X133191250Y-86068000D01*
X133350000Y-85909250D01*
X133350000Y-84660000D01*
X133604000Y-84660000D01*
X133604000Y-85909250D01*
X133762750Y-86068000D01*
X133903310Y-86068000D01*
X134112000Y-85981558D01*
X134320690Y-86068000D01*
X134461250Y-86068000D01*
X134620000Y-85909250D01*
X134620000Y-84660000D01*
X134874000Y-84660000D01*
X134874000Y-85909250D01*
X135032750Y-86068000D01*
X135173310Y-86068000D01*
X135382000Y-85981558D01*
X135590690Y-86068000D01*
X135731250Y-86068000D01*
X135890000Y-85909250D01*
X135890000Y-84660000D01*
X134874000Y-84660000D01*
X134620000Y-84660000D01*
X133604000Y-84660000D01*
X133350000Y-84660000D01*
X132334000Y-84660000D01*
X132080000Y-84660000D01*
X131064000Y-84660000D01*
X130810000Y-84660000D01*
X130160750Y-84660000D01*
X130002000Y-84818750D01*
X130002000Y-85559309D01*
X130098673Y-85792698D01*
X130277301Y-85971327D01*
X130300654Y-85981000D01*
X129219802Y-85981000D01*
X128299401Y-85060599D01*
X128052839Y-84895852D01*
X127762000Y-84838000D01*
X126171802Y-84838000D01*
X124966000Y-83632198D01*
X124966000Y-83506691D01*
X130002000Y-83506691D01*
X130002000Y-84247250D01*
X130160750Y-84406000D01*
X130810000Y-84406000D01*
X130810000Y-83156750D01*
X131064000Y-83156750D01*
X131064000Y-84406000D01*
X132080000Y-84406000D01*
X132080000Y-83156750D01*
X132334000Y-83156750D01*
X132334000Y-84406000D01*
X133350000Y-84406000D01*
X133350000Y-83156750D01*
X133604000Y-83156750D01*
X133604000Y-84406000D01*
X134620000Y-84406000D01*
X134620000Y-83156750D01*
X134461250Y-82998000D01*
X134320690Y-82998000D01*
X134112000Y-83084442D01*
X133903310Y-82998000D01*
X133762750Y-82998000D01*
X133604000Y-83156750D01*
X133350000Y-83156750D01*
X133191250Y-82998000D01*
X133050690Y-82998000D01*
X132842000Y-83084442D01*
X132633310Y-82998000D01*
X132492750Y-82998000D01*
X132334000Y-83156750D01*
X132080000Y-83156750D01*
X131921250Y-82998000D01*
X131780690Y-82998000D01*
X131572000Y-83084442D01*
X131363310Y-82998000D01*
X131222750Y-82998000D01*
X131064000Y-83156750D01*
X130810000Y-83156750D01*
X130651250Y-82998000D01*
X130510690Y-82998000D01*
X130277301Y-83094673D01*
X130098673Y-83273302D01*
X130002000Y-83506691D01*
X124966000Y-83506691D01*
X124966000Y-80286661D01*
X128516258Y-80286661D01*
X128728490Y-80800303D01*
X129121130Y-81193629D01*
X129634400Y-81406757D01*
X130190161Y-81407242D01*
X130703803Y-81195010D01*
X131097129Y-80802370D01*
X131310257Y-80289100D01*
X131310742Y-79733339D01*
X131098510Y-79219697D01*
X130705870Y-78826371D01*
X130192600Y-78613243D01*
X129636839Y-78612758D01*
X129123197Y-78824990D01*
X128729871Y-79217630D01*
X128516743Y-79730900D01*
X128516258Y-80286661D01*
X124966000Y-80286661D01*
X124966000Y-77022802D01*
X126470052Y-75518750D01*
X130002000Y-75518750D01*
X130002000Y-76259309D01*
X130098673Y-76492698D01*
X130277301Y-76671327D01*
X130510690Y-76768000D01*
X130651250Y-76768000D01*
X130810000Y-76609250D01*
X130810000Y-75360000D01*
X131064000Y-75360000D01*
X131064000Y-76609250D01*
X131222750Y-76768000D01*
X131363310Y-76768000D01*
X131572000Y-76681558D01*
X131780690Y-76768000D01*
X131921250Y-76768000D01*
X132080000Y-76609250D01*
X132080000Y-75360000D01*
X132334000Y-75360000D01*
X132334000Y-76609250D01*
X132492750Y-76768000D01*
X132633310Y-76768000D01*
X132842000Y-76681558D01*
X133050690Y-76768000D01*
X133191250Y-76768000D01*
X133350000Y-76609250D01*
X133350000Y-75360000D01*
X133604000Y-75360000D01*
X133604000Y-76609250D01*
X133762750Y-76768000D01*
X133903310Y-76768000D01*
X134112000Y-76681558D01*
X134320690Y-76768000D01*
X134461250Y-76768000D01*
X134620000Y-76609250D01*
X134620000Y-75360000D01*
X133604000Y-75360000D01*
X133350000Y-75360000D01*
X132334000Y-75360000D01*
X132080000Y-75360000D01*
X131064000Y-75360000D01*
X130810000Y-75360000D01*
X130160750Y-75360000D01*
X130002000Y-75518750D01*
X126470052Y-75518750D01*
X126933802Y-75055000D01*
X129413000Y-75055000D01*
X129703839Y-74997148D01*
X129950401Y-74832401D01*
X130002000Y-74780802D01*
X130002000Y-74947250D01*
G36*
X116334000Y-84140198D02*
X114028600Y-86445598D01*
X114028600Y-86185255D01*
X113914526Y-85611766D01*
X113589670Y-85125585D01*
X113298454Y-84931000D01*
X113411002Y-84931000D01*
X113411002Y-84772252D01*
X113569750Y-84931000D01*
X114035310Y-84931000D01*
X114268699Y-84834327D01*
X114447327Y-84655698D01*
X114544000Y-84422309D01*
X114544000Y-83831750D01*
X114385250Y-83673000D01*
X113411000Y-83673000D01*
X113411000Y-83693000D01*
X113157000Y-83693000D01*
X113157000Y-83673000D01*
X112182750Y-83673000D01*
X112024000Y-83831750D01*
X112024000Y-84422309D01*
X112120673Y-84655698D01*
X112214405Y-84749431D01*
X112162036Y-84759847D01*
X111841382Y-84439193D01*
X111594820Y-84274446D01*
X111303981Y-84216594D01*
X111164281Y-84216594D01*
X111402765Y-84169157D01*
X111612809Y-84028809D01*
X111753157Y-83818765D01*
X111802440Y-83571000D01*
X111802440Y-83121000D01*
X111782549Y-83021000D01*
X111802440Y-82921000D01*
X111802440Y-82471000D01*
X111782549Y-82371000D01*
X111802440Y-82271000D01*
X111802440Y-81821000D01*
X111782549Y-81721000D01*
X111802440Y-81621000D01*
X111802440Y-81506000D01*
X112011560Y-81506000D01*
X112011560Y-81796000D01*
X112060843Y-82043765D01*
X112201191Y-82253809D01*
X112262320Y-82294654D01*
X112120673Y-82436302D01*
X112024000Y-82669691D01*
X112024000Y-83260250D01*
X112182750Y-83419000D01*
X113157000Y-83419000D01*
X113157000Y-83399000D01*
X113411000Y-83399000D01*
X113411000Y-83419000D01*
X114385250Y-83419000D01*
X114544000Y-83260250D01*
X114544000Y-82669691D01*
X114447327Y-82436302D01*
X114305680Y-82294654D01*
X114366809Y-82253809D01*
X114507157Y-82043765D01*
X114556440Y-81796000D01*
X114556440Y-81672911D01*
X114690401Y-81583401D01*
X115793817Y-80479985D01*
X115890663Y-80480069D01*
X116250212Y-80331507D01*
X116334000Y-80247865D01*
X116334000Y-84140198D01*
X116334000Y-84140198D01*
G37*
X116334000Y-84140198D02*
X114028600Y-86445598D01*
X114028600Y-86185255D01*
X113914526Y-85611766D01*
X113589670Y-85125585D01*
X113298454Y-84931000D01*
X113411002Y-84931000D01*
X113411002Y-84772252D01*
X113569750Y-84931000D01*
X114035310Y-84931000D01*
X114268699Y-84834327D01*
X114447327Y-84655698D01*
X114544000Y-84422309D01*
X114544000Y-83831750D01*
X114385250Y-83673000D01*
X113411000Y-83673000D01*
X113411000Y-83693000D01*
X113157000Y-83693000D01*
X113157000Y-83673000D01*
X112182750Y-83673000D01*
X112024000Y-83831750D01*
X112024000Y-84422309D01*
X112120673Y-84655698D01*
X112214405Y-84749431D01*
X112162036Y-84759847D01*
X111841382Y-84439193D01*
X111594820Y-84274446D01*
X111303981Y-84216594D01*
X111164281Y-84216594D01*
X111402765Y-84169157D01*
X111612809Y-84028809D01*
X111753157Y-83818765D01*
X111802440Y-83571000D01*
X111802440Y-83121000D01*
X111782549Y-83021000D01*
X111802440Y-82921000D01*
X111802440Y-82471000D01*
X111782549Y-82371000D01*
X111802440Y-82271000D01*
X111802440Y-81821000D01*
X111782549Y-81721000D01*
X111802440Y-81621000D01*
X111802440Y-81506000D01*
X112011560Y-81506000D01*
X112011560Y-81796000D01*
X112060843Y-82043765D01*
X112201191Y-82253809D01*
X112262320Y-82294654D01*
X112120673Y-82436302D01*
X112024000Y-82669691D01*
X112024000Y-83260250D01*
X112182750Y-83419000D01*
X113157000Y-83419000D01*
X113157000Y-83399000D01*
X113411000Y-83399000D01*
X113411000Y-83419000D01*
X114385250Y-83419000D01*
X114544000Y-83260250D01*
X114544000Y-82669691D01*
X114447327Y-82436302D01*
X114305680Y-82294654D01*
X114366809Y-82253809D01*
X114507157Y-82043765D01*
X114556440Y-81796000D01*
X114556440Y-81672911D01*
X114690401Y-81583401D01*
X115793817Y-80479985D01*
X115890663Y-80480069D01*
X116250212Y-80331507D01*
X116334000Y-80247865D01*
X116334000Y-84140198D01*
G36*
X88443487Y-65464761D02*
X89350464Y-66373323D01*
X90536094Y-66865639D01*
X91024497Y-66866065D01*
X90387713Y-67129179D01*
X89851360Y-67664596D01*
X89560731Y-68364511D01*
X89560069Y-69122366D01*
X89849477Y-69822787D01*
X90201577Y-70175502D01*
X90182959Y-70269101D01*
X90182959Y-71539101D01*
X90232242Y-71786866D01*
X90372590Y-71996910D01*
X90582634Y-72137258D01*
X90830399Y-72186541D01*
X91706129Y-72186541D01*
X91922289Y-72402701D01*
X91693490Y-72631500D01*
X91213889Y-72631081D01*
X90746941Y-72824019D01*
X90389373Y-73180964D01*
X90195620Y-73647574D01*
X90195179Y-74152811D01*
X90329265Y-74477324D01*
X89851360Y-74954395D01*
X89560731Y-75654310D01*
X89560069Y-76412165D01*
X89849477Y-77112586D01*
X90384894Y-77648939D01*
X91084809Y-77939568D01*
X91842664Y-77940230D01*
X92543085Y-77650822D01*
X93079438Y-77115405D01*
X93370067Y-76415490D01*
X93370729Y-75657635D01*
X93081321Y-74957214D01*
X92601619Y-74476674D01*
X92735178Y-74155028D01*
X92735599Y-73672811D01*
X93017166Y-73391244D01*
X93794201Y-74168279D01*
X93794201Y-78012376D01*
X93786356Y-78015370D01*
X93776338Y-78017363D01*
X93769944Y-78021635D01*
X93719073Y-78041054D01*
X93666325Y-78074198D01*
X93626761Y-78111602D01*
X93620142Y-78115507D01*
X93614002Y-78123665D01*
X93606184Y-78131057D01*
X93597243Y-78137031D01*
X93587924Y-78141201D01*
X93582644Y-78146786D01*
X93537367Y-78177039D01*
X93493316Y-78221090D01*
X93463063Y-78266367D01*
X93457478Y-78271647D01*
X93453308Y-78280966D01*
X93447334Y-78289907D01*
X93439945Y-78297722D01*
X93431784Y-78303864D01*
X93427878Y-78310486D01*
X93390475Y-78350048D01*
X93357331Y-78402796D01*
X93337912Y-78453668D01*
X93333641Y-78460060D01*
X93331649Y-78470075D01*
X93327814Y-78480122D01*
X93322351Y-78489383D01*
X93315761Y-78497187D01*
X93313426Y-78504513D01*
X93285761Y-78551413D01*
X93265186Y-78610214D01*
X93257576Y-78664124D01*
X93254834Y-78671306D01*
X93255120Y-78681515D01*
X93253617Y-78692163D01*
X93250351Y-78702412D01*
X93245665Y-78711482D01*
X93245019Y-78719140D01*
X93228483Y-78771022D01*
X93221508Y-78832928D01*
X93226085Y-78887191D01*
X93225011Y-78894800D01*
X93227561Y-78904684D01*
X93228465Y-78915405D01*
X93227562Y-78926110D01*
X93225011Y-78935999D01*
X93226086Y-78943612D01*
X93221509Y-78997873D01*
X93228484Y-79059778D01*
X93245019Y-79111655D01*
X93245665Y-79119319D01*
X93250354Y-79128396D01*
X93253617Y-79138632D01*
X93255120Y-79149284D01*
X93254834Y-79159493D01*
X93257576Y-79166675D01*
X93265186Y-79220585D01*
X93285761Y-79279386D01*
X93313427Y-79326288D01*
X93315762Y-79333613D01*
X93322351Y-79341416D01*
X93327814Y-79350677D01*
X93331649Y-79360724D01*
X93333641Y-79370739D01*
X93337912Y-79377131D01*
X93357331Y-79428003D01*
X93390475Y-79480751D01*
X93427878Y-79520313D01*
X93431784Y-79526935D01*
X93439945Y-79533077D01*
X93447334Y-79540892D01*
X93453308Y-79549833D01*
X93457478Y-79559152D01*
X93463063Y-79564432D01*
X93493316Y-79609709D01*
X93537367Y-79653760D01*
X93582644Y-79684013D01*
X93587924Y-79689598D01*
X93597243Y-79693768D01*
X93606184Y-79699742D01*
X93614002Y-79707134D01*
X93620142Y-79715292D01*
X93626761Y-79719197D01*
X93666325Y-79756601D01*
X93719073Y-79789745D01*
X93769944Y-79809164D01*
X93776338Y-79813436D01*
X93786356Y-79815429D01*
X93794201Y-79818423D01*
X93794201Y-83879050D01*
X93705057Y-83915883D01*
X93441808Y-84178673D01*
X93366491Y-84360056D01*
X93366491Y-80640104D01*
X93353329Y-80573934D01*
X93353329Y-80506468D01*
X93277209Y-80123785D01*
X93195105Y-79925567D01*
X93174928Y-79876855D01*
X92958155Y-79552432D01*
X92769163Y-79363440D01*
X92444739Y-79146667D01*
X92415215Y-79134438D01*
X92197810Y-79044386D01*
X91815127Y-78968266D01*
X91747661Y-78968266D01*
X91681491Y-78955104D01*
X88748957Y-78955104D01*
X88566081Y-78918728D01*
X88468242Y-78853354D01*
X88402867Y-78755513D01*
X88365800Y-78569164D01*
X88365800Y-65276744D01*
X88443487Y-65464761D01*
X88443487Y-65464761D01*
G37*
X88443487Y-65464761D02*
X89350464Y-66373323D01*
X90536094Y-66865639D01*
X91024497Y-66866065D01*
X90387713Y-67129179D01*
X89851360Y-67664596D01*
X89560731Y-68364511D01*
X89560069Y-69122366D01*
X89849477Y-69822787D01*
X90201577Y-70175502D01*
X90182959Y-70269101D01*
X90182959Y-71539101D01*
X90232242Y-71786866D01*
X90372590Y-71996910D01*
X90582634Y-72137258D01*
X90830399Y-72186541D01*
X91706129Y-72186541D01*
X91922289Y-72402701D01*
X91693490Y-72631500D01*
X91213889Y-72631081D01*
X90746941Y-72824019D01*
X90389373Y-73180964D01*
X90195620Y-73647574D01*
X90195179Y-74152811D01*
X90329265Y-74477324D01*
X89851360Y-74954395D01*
X89560731Y-75654310D01*
X89560069Y-76412165D01*
X89849477Y-77112586D01*
X90384894Y-77648939D01*
X91084809Y-77939568D01*
X91842664Y-77940230D01*
X92543085Y-77650822D01*
X93079438Y-77115405D01*
X93370067Y-76415490D01*
X93370729Y-75657635D01*
X93081321Y-74957214D01*
X92601619Y-74476674D01*
X92735178Y-74155028D01*
X92735599Y-73672811D01*
X93017166Y-73391244D01*
X93794201Y-74168279D01*
X93794201Y-78012376D01*
X93786356Y-78015370D01*
X93776338Y-78017363D01*
X93769944Y-78021635D01*
X93719073Y-78041054D01*
X93666325Y-78074198D01*
X93626761Y-78111602D01*
X93620142Y-78115507D01*
X93614002Y-78123665D01*
X93606184Y-78131057D01*
X93597243Y-78137031D01*
X93587924Y-78141201D01*
X93582644Y-78146786D01*
X93537367Y-78177039D01*
X93493316Y-78221090D01*
X93463063Y-78266367D01*
X93457478Y-78271647D01*
X93453308Y-78280966D01*
X93447334Y-78289907D01*
X93439945Y-78297722D01*
X93431784Y-78303864D01*
X93427878Y-78310486D01*
X93390475Y-78350048D01*
X93357331Y-78402796D01*
X93337912Y-78453668D01*
X93333641Y-78460060D01*
X93331649Y-78470075D01*
X93327814Y-78480122D01*
X93322351Y-78489383D01*
X93315761Y-78497187D01*
X93313426Y-78504513D01*
X93285761Y-78551413D01*
X93265186Y-78610214D01*
X93257576Y-78664124D01*
X93254834Y-78671306D01*
X93255120Y-78681515D01*
X93253617Y-78692163D01*
X93250351Y-78702412D01*
X93245665Y-78711482D01*
X93245019Y-78719140D01*
X93228483Y-78771022D01*
X93221508Y-78832928D01*
X93226085Y-78887191D01*
X93225011Y-78894800D01*
X93227561Y-78904684D01*
X93228465Y-78915405D01*
X93227562Y-78926110D01*
X93225011Y-78935999D01*
X93226086Y-78943612D01*
X93221509Y-78997873D01*
X93228484Y-79059778D01*
X93245019Y-79111655D01*
X93245665Y-79119319D01*
X93250354Y-79128396D01*
X93253617Y-79138632D01*
X93255120Y-79149284D01*
X93254834Y-79159493D01*
X93257576Y-79166675D01*
X93265186Y-79220585D01*
X93285761Y-79279386D01*
X93313427Y-79326288D01*
X93315762Y-79333613D01*
X93322351Y-79341416D01*
X93327814Y-79350677D01*
X93331649Y-79360724D01*
X93333641Y-79370739D01*
X93337912Y-79377131D01*
X93357331Y-79428003D01*
X93390475Y-79480751D01*
X93427878Y-79520313D01*
X93431784Y-79526935D01*
X93439945Y-79533077D01*
X93447334Y-79540892D01*
X93453308Y-79549833D01*
X93457478Y-79559152D01*
X93463063Y-79564432D01*
X93493316Y-79609709D01*
X93537367Y-79653760D01*
X93582644Y-79684013D01*
X93587924Y-79689598D01*
X93597243Y-79693768D01*
X93606184Y-79699742D01*
X93614002Y-79707134D01*
X93620142Y-79715292D01*
X93626761Y-79719197D01*
X93666325Y-79756601D01*
X93719073Y-79789745D01*
X93769944Y-79809164D01*
X93776338Y-79813436D01*
X93786356Y-79815429D01*
X93794201Y-79818423D01*
X93794201Y-83879050D01*
X93705057Y-83915883D01*
X93441808Y-84178673D01*
X93366491Y-84360056D01*
X93366491Y-80640104D01*
X93353329Y-80573934D01*
X93353329Y-80506468D01*
X93277209Y-80123785D01*
X93195105Y-79925567D01*
X93174928Y-79876855D01*
X92958155Y-79552432D01*
X92769163Y-79363440D01*
X92444739Y-79146667D01*
X92415215Y-79134438D01*
X92197810Y-79044386D01*
X91815127Y-78968266D01*
X91747661Y-78968266D01*
X91681491Y-78955104D01*
X88748957Y-78955104D01*
X88566081Y-78918728D01*
X88468242Y-78853354D01*
X88402867Y-78755513D01*
X88365800Y-78569164D01*
X88365800Y-65276744D01*
X88443487Y-65464761D01*
G36*
X116334000Y-74315474D02*
X116334000Y-78755945D01*
X116251659Y-78673460D01*
X115892370Y-78524270D01*
X115503337Y-78523931D01*
X115143788Y-78672493D01*
X114868460Y-78947341D01*
X114719270Y-79306630D01*
X114719184Y-79405014D01*
X114318372Y-79805826D01*
X114156765Y-79697843D01*
X113909000Y-79648560D01*
X112659000Y-79648560D01*
X112639348Y-79652469D01*
X112647000Y-79614000D01*
X112647000Y-79597000D01*
X112998250Y-79597000D01*
X113157000Y-79438250D01*
X113157000Y-78339000D01*
X113411000Y-78339000D01*
X113411000Y-79438250D01*
X113569750Y-79597000D01*
X114035310Y-79597000D01*
X114268699Y-79500327D01*
X114447327Y-79321698D01*
X114544000Y-79088309D01*
X114544000Y-78497750D01*
X114385250Y-78339000D01*
X113411000Y-78339000D01*
X113157000Y-78339000D01*
X113137000Y-78339000D01*
X113137000Y-78085000D01*
X113157000Y-78085000D01*
X113157000Y-78065000D01*
X113411000Y-78065000D01*
X113411000Y-78085000D01*
X114385250Y-78085000D01*
X114544000Y-77926250D01*
X114544000Y-77335691D01*
X114447327Y-77102302D01*
X114305680Y-76960654D01*
X114366809Y-76919809D01*
X114507157Y-76709765D01*
X114556440Y-76462000D01*
X114556440Y-74962000D01*
X114507157Y-74714235D01*
X114366809Y-74504191D01*
X114156765Y-74363843D01*
X114044000Y-74341413D01*
X114044000Y-72632080D01*
X114112540Y-72563659D01*
X114250336Y-72231810D01*
X116334000Y-74315474D01*
X116334000Y-74315474D01*
G37*
X116334000Y-74315474D02*
X116334000Y-78755945D01*
X116251659Y-78673460D01*
X115892370Y-78524270D01*
X115503337Y-78523931D01*
X115143788Y-78672493D01*
X114868460Y-78947341D01*
X114719270Y-79306630D01*
X114719184Y-79405014D01*
X114318372Y-79805826D01*
X114156765Y-79697843D01*
X113909000Y-79648560D01*
X112659000Y-79648560D01*
X112639348Y-79652469D01*
X112647000Y-79614000D01*
X112647000Y-79597000D01*
X112998250Y-79597000D01*
X113157000Y-79438250D01*
X113157000Y-78339000D01*
X113411000Y-78339000D01*
X113411000Y-79438250D01*
X113569750Y-79597000D01*
X114035310Y-79597000D01*
X114268699Y-79500327D01*
X114447327Y-79321698D01*
X114544000Y-79088309D01*
X114544000Y-78497750D01*
X114385250Y-78339000D01*
X113411000Y-78339000D01*
X113157000Y-78339000D01*
X113137000Y-78339000D01*
X113137000Y-78085000D01*
X113157000Y-78085000D01*
X113157000Y-78065000D01*
X113411000Y-78065000D01*
X113411000Y-78085000D01*
X114385250Y-78085000D01*
X114544000Y-77926250D01*
X114544000Y-77335691D01*
X114447327Y-77102302D01*
X114305680Y-76960654D01*
X114366809Y-76919809D01*
X114507157Y-76709765D01*
X114556440Y-76462000D01*
X114556440Y-74962000D01*
X114507157Y-74714235D01*
X114366809Y-74504191D01*
X114156765Y-74363843D01*
X114044000Y-74341413D01*
X114044000Y-72632080D01*
X114112540Y-72563659D01*
X114250336Y-72231810D01*
X116334000Y-74315474D01*
G36*
X104516522Y-70684675D02*
X104362000Y-70915934D01*
X104362000Y-70876690D01*
X104265327Y-70643301D01*
X104086698Y-70464673D01*
X103853309Y-70368000D01*
X103262750Y-70368000D01*
X103104000Y-70526750D01*
X103104000Y-71501000D01*
X103124000Y-71501000D01*
X103124000Y-71755000D01*
X103104000Y-71755000D01*
X103104000Y-72729250D01*
X103262750Y-72888000D01*
X103853309Y-72888000D01*
X104086698Y-72791327D01*
X104265327Y-72612699D01*
X104293923Y-72543662D01*
X104293923Y-74133753D01*
X104202765Y-74072843D01*
X103955000Y-74023560D01*
X102205000Y-74023560D01*
X102158593Y-74032791D01*
X101237000Y-73111198D01*
X101237000Y-72898451D01*
X101474765Y-72851157D01*
X101684809Y-72710809D01*
X101725654Y-72649680D01*
X101867302Y-72791327D01*
X102100691Y-72888000D01*
X102691250Y-72888000D01*
X102850000Y-72729250D01*
X102850000Y-71755000D01*
X102830000Y-71755000D01*
X102830000Y-71501000D01*
X102850000Y-71501000D01*
X102850000Y-70526750D01*
X102691250Y-70368000D01*
X102100691Y-70368000D01*
X101867302Y-70464673D01*
X101725654Y-70606320D01*
X101684809Y-70545191D01*
X101474765Y-70404843D01*
X101227000Y-70355560D01*
X101218414Y-70355560D01*
X101181004Y-70167490D01*
X105033707Y-70167490D01*
X104516522Y-70684675D01*
X104516522Y-70684675D01*
G37*
X104516522Y-70684675D02*
X104362000Y-70915934D01*
X104362000Y-70876690D01*
X104265327Y-70643301D01*
X104086698Y-70464673D01*
X103853309Y-70368000D01*
X103262750Y-70368000D01*
X103104000Y-70526750D01*
X103104000Y-71501000D01*
X103124000Y-71501000D01*
X103124000Y-71755000D01*
X103104000Y-71755000D01*
X103104000Y-72729250D01*
X103262750Y-72888000D01*
X103853309Y-72888000D01*
X104086698Y-72791327D01*
X104265327Y-72612699D01*
X104293923Y-72543662D01*
X104293923Y-74133753D01*
X104202765Y-74072843D01*
X103955000Y-74023560D01*
X102205000Y-74023560D01*
X102158593Y-74032791D01*
X101237000Y-73111198D01*
X101237000Y-72898451D01*
X101474765Y-72851157D01*
X101684809Y-72710809D01*
X101725654Y-72649680D01*
X101867302Y-72791327D01*
X102100691Y-72888000D01*
X102691250Y-72888000D01*
X102850000Y-72729250D01*
X102850000Y-71755000D01*
X102830000Y-71755000D01*
X102830000Y-71501000D01*
X102850000Y-71501000D01*
X102850000Y-70526750D01*
X102691250Y-70368000D01*
X102100691Y-70368000D01*
X101867302Y-70464673D01*
X101725654Y-70606320D01*
X101684809Y-70545191D01*
X101474765Y-70404843D01*
X101227000Y-70355560D01*
X101218414Y-70355560D01*
X101181004Y-70167490D01*
X105033707Y-70167490D01*
X104516522Y-70684675D01*
G36*
X126657800Y-64782200D02*
X126677800Y-64782200D01*
X126677800Y-65036200D01*
X126657800Y-65036200D01*
X126657800Y-65056200D01*
X126403800Y-65056200D01*
X126403800Y-65036200D01*
X126383800Y-65036200D01*
X126383800Y-64782200D01*
X126403800Y-64782200D01*
X126403800Y-64762200D01*
X126657800Y-64762200D01*
X126657800Y-64782200D01*
X126657800Y-64782200D01*
G37*
X126657800Y-64782200D02*
X126677800Y-64782200D01*
X126677800Y-65036200D01*
X126657800Y-65036200D01*
X126657800Y-65056200D01*
X126403800Y-65056200D01*
X126403800Y-65036200D01*
X126383800Y-65036200D01*
X126383800Y-64782200D01*
X126403800Y-64782200D01*
X126403800Y-64762200D01*
X126657800Y-64762200D01*
X126657800Y-64782200D01*
G36*
X106337800Y-64782200D02*
X106357800Y-64782200D01*
X106357800Y-65036200D01*
X106337800Y-65036200D01*
X106337800Y-65056200D01*
X106083800Y-65056200D01*
X106083800Y-65036200D01*
X106063800Y-65036200D01*
X106063800Y-64782200D01*
X106083800Y-64782200D01*
X106083800Y-64762200D01*
X106337800Y-64762200D01*
X106337800Y-64782200D01*
X106337800Y-64782200D01*
G37*
X106337800Y-64782200D02*
X106357800Y-64782200D01*
X106357800Y-65036200D01*
X106337800Y-65036200D01*
X106337800Y-65056200D01*
X106083800Y-65056200D01*
X106083800Y-65036200D01*
X106063800Y-65036200D01*
X106063800Y-64782200D01*
X106083800Y-64782200D01*
X106083800Y-64762200D01*
X106337800Y-64762200D01*
X106337800Y-64782200D01*
G36*
X119037800Y-62242200D02*
X119057800Y-62242200D01*
X119057800Y-62496200D01*
X119037800Y-62496200D01*
X119037800Y-62516200D01*
X118783800Y-62516200D01*
X118783800Y-62496200D01*
X118763800Y-62496200D01*
X118763800Y-62242200D01*
X118783800Y-62242200D01*
X118783800Y-62222200D01*
X119037800Y-62222200D01*
X119037800Y-62242200D01*
X119037800Y-62242200D01*
G37*
X119037800Y-62242200D02*
X119057800Y-62242200D01*
X119057800Y-62496200D01*
X119037800Y-62496200D01*
X119037800Y-62516200D01*
X118783800Y-62516200D01*
X118783800Y-62496200D01*
X118763800Y-62496200D01*
X118763800Y-62242200D01*
X118783800Y-62242200D01*
X118783800Y-62222200D01*
X119037800Y-62222200D01*
X119037800Y-62242200D01*
G36*
X111417800Y-62242200D02*
X111437800Y-62242200D01*
X111437800Y-62496200D01*
X111417800Y-62496200D01*
X111417800Y-62516200D01*
X111163800Y-62516200D01*
X111163800Y-62496200D01*
X111143800Y-62496200D01*
X111143800Y-62242200D01*
X111163800Y-62242200D01*
X111163800Y-62222200D01*
X111417800Y-62222200D01*
X111417800Y-62242200D01*
X111417800Y-62242200D01*
G37*
X111417800Y-62242200D02*
X111437800Y-62242200D01*
X111437800Y-62496200D01*
X111417800Y-62496200D01*
X111417800Y-62516200D01*
X111163800Y-62516200D01*
X111163800Y-62496200D01*
X111143800Y-62496200D01*
X111143800Y-62242200D01*
X111163800Y-62242200D01*
X111163800Y-62222200D01*
X111417800Y-62222200D01*
X111417800Y-62242200D01*
M02*
