M48
INCH,TZ
T1C0.013
T2C0.016
T3C0.040
T4C0.095
T5C0.100
%
G90
G05
T1
X34900Y-29300
X34950Y-42100
X38050Y-31400
X38150Y-41050
X39890Y-29850
X39900Y-30410
X39900Y-41800
X39950Y-32250
X40550Y-27650
X40650Y-26200
X40850Y-37150
X41275Y-43425
X41298Y-27038
X41475Y-39601
X41475Y-39951
X41500Y-42600
X41630Y-27326
X41692Y-26837
X41700Y-26500
X41850Y-43150
X41950Y-28680
X42150Y-26250
X42200Y-43450
X42280Y-28440
X42300Y-25850
X42550Y-28140
X42650Y-43450
X43021Y-38369
X43350Y-25050
X44600Y-28350
X45250Y-30950
X45250Y-32950
X45250Y-40000
X45250Y-42450
X45300Y-39100
X45550Y-31300
X46522Y-40150
X47800Y-26350
X48200Y-26300
X48577Y-43177
X48850Y-43450
X49000Y-44100
X49150Y-42850
X49300Y-42350
X49450Y-39850
X49550Y-43750
X50800Y-30400
X52600Y-26650
X52850Y-26350
X53125Y-31725
X53350Y-37850
X53350Y-31400
X53400Y-32375
X55850Y-38450
X56000Y-30150
X56050Y-32600
X56700Y-30700
X57100Y-35850
X57150Y-33800
X58700Y-36350
X59208Y-28240
T2
X37100Y-33350
X37100Y-35850
X37494Y-33350
X37494Y-35850
T3
X36010Y-27915
X36010Y-29095
X36010Y-40315
X36010Y-41495
X37815Y-24555
X37815Y-25555
X38815Y-24555
X38815Y-25555
X39800Y-35500
X39800Y-45000
X39815Y-24555
X39815Y-25555
X40800Y-35500
X40800Y-45000
X40815Y-24555
X40815Y-25555
X41800Y-35500
X41800Y-45000
X41815Y-24555
X41815Y-25555
X42800Y-35500
X42800Y-45000
X42815Y-24555
X42815Y-25555
X43303Y-34004
X43800Y-27500
X43800Y-35500
X43800Y-37000
X43800Y-45000
X43815Y-24555
X43815Y-25555
X44303Y-34004
X44800Y-27500
X44800Y-35500
X44800Y-37000
X44800Y-45000
X44815Y-24555
X44815Y-25555
X45800Y-27500
X45800Y-35500
X45800Y-37000
X45800Y-45000
X45815Y-24555
X45815Y-25555
X46800Y-27500
X46800Y-35500
X46800Y-37000
X46800Y-45000
X46815Y-24555
X46815Y-25555
X47800Y-27500
X47800Y-35500
X47800Y-37000
X47800Y-45000
X47815Y-24555
X47815Y-25555
X48800Y-27500
X48800Y-35500
X48800Y-37000
X48800Y-45000
X48815Y-24555
X48815Y-25555
X49800Y-27500
X49800Y-35500
X49800Y-37000
X49800Y-45000
X49815Y-24555
X49815Y-25555
X50800Y-27500
X50800Y-35500
X50800Y-37000
X50800Y-45000
X50815Y-24555
X50815Y-25555
X51800Y-27500
X51800Y-35500
X51800Y-37000
X51800Y-45000
X51815Y-24555
X51815Y-25555
X52800Y-27500
X52800Y-35500
X52800Y-37000
X52800Y-45000
X52815Y-24555
X52815Y-25555
X53800Y-27500
X53800Y-35500
X53800Y-37000
X53800Y-45000
X53815Y-24555
X53815Y-25555
X54800Y-27500
X54800Y-35500
X54800Y-37000
X54800Y-45000
X54815Y-24555
X54815Y-25555
X55815Y-24555
X55815Y-25555
X56815Y-24555
X56815Y-25555
X58640Y-38874
X58640Y-40054
X58640Y-41234
X58670Y-31094
X58670Y-32274
X58670Y-33454
X58670Y-34634
T4
X36010Y-27065
X36010Y-29935
X36010Y-39465
X36010Y-42335
T5
X38300Y-28000
X38300Y-35000
X38300Y-37500
X38300Y-44500
X56300Y-28000
X56300Y-35000
X56300Y-37500
X56300Y-44500
T0
M30
